<svg xmlns="http://www.w3.org/2000/svg" xmlns:xlink="http://www.w3.org/1999/xlink" contentStyleType="text/css" height="671px" preserveAspectRatio="none" style="width:942px;height:671px;" version="1.1" viewBox="0 0 942 671" width="942px" zoomAndPan="magnify"><defs/><g><rect fill="#957DAD" height="97.5313" style="stroke:#957DAD;stroke-width:1.0;" width="10" x="111.188" y="281.1953"/><rect fill="#957DAD" height="470.5234" style="stroke:#957DAD;stroke-width:1.0;" width="10" x="301.0537" y="111.2656"/><rect fill="#957DAD" height="29.1328" style="stroke:#957DAD;stroke-width:1.0;" width="10" x="689.0073" y="222.9297"/><rect fill="#957DAD" height="99.5313" style="stroke:#957DAD;stroke-width:1.0;" width="10" x="689.0073" y="399.8594"/><rect fill="#957DAD" height="53.3984" style="stroke:#957DAD;stroke-width:1.0;" width="10" x="813.5828" y="140.3984"/><rect fill="#957DAD" height="29.1328" style="stroke:#957DAD;stroke-width:1.0;" width="10" x="875.5767" y="334.5938"/><rect fill="#EDEDED" height="419.3906" style="stroke:#957DAD;stroke-width:1.5;" width="857.4211" x="77.8662" y="155.3984"/><rect fill="#EDEDED" height="75.5313" style="stroke:#957DAD;stroke-width:1.5;" width="678.4868" x="246.8005" y="296.1953"/><rect fill="#EDEDED" height="77.5313" style="stroke:#957DAD;stroke-width:1.5;" width="554.499" x="246.8005" y="414.8594"/><rect fill="#EDEDED" height="31.1328" style="stroke:none;stroke-width:1.0;" width="554.499" x="246.8005" y="461.2578"/><rect fill="#EDEDED" height="46.2656" style="stroke:none;stroke-width:1.0;" width="857.4211" x="77.8662" y="528.5234"/><line style="stroke:#957DAD;stroke-width:0.5;stroke-dasharray:5.0,5.0;" x1="41" x2="41" y1="80.1328" y2="591.7891"/><line style="stroke:#957DAD;stroke-width:0.5;stroke-dasharray:5.0,5.0;" x1="115.8662" x2="115.8662" y1="80.1328" y2="591.7891"/><line style="stroke:#957DAD;stroke-width:0.5;stroke-dasharray:5.0,5.0;" x1="305.8005" x2="305.8005" y1="80.1328" y2="591.7891"/><line style="stroke:#957DAD;stroke-width:0.5;stroke-dasharray:5.0,5.0;" x1="693.7151" x2="693.7151" y1="80.1328" y2="591.7891"/><line style="stroke:#957DAD;stroke-width:0.5;stroke-dasharray:5.0,5.0;" x1="818.2996" x2="818.2996" y1="80.1328" y2="591.7891"/><line style="stroke:#957DAD;stroke-width:0.5;stroke-dasharray:5.0,5.0;" x1="879.866" x2="879.866" y1="80.1328" y2="591.7891"/><text fill="#2B2B2B" font-family="Calibri" font-size="13" lengthAdjust="spacing" textLength="66.8662" x="5" y="77.0669">Utilisateur</text><ellipse cx="41.4331" cy="13.5" fill="#EDEDED" rx="8" ry="8" style="stroke:#957DAD;stroke-width:0.5;"/><path d="M41.4331,21.5 L41.4331,48.5 M28.4331,29.5 L54.4331,29.5 M41.4331,48.5 L28.4331,63.5 M41.4331,48.5 L54.4331,63.5 " fill="none" style="stroke:#957DAD;stroke-width:0.5;"/><text fill="#2B2B2B" font-family="Calibri" font-size="13" lengthAdjust="spacing" textLength="66.8662" x="5" y="602.856">Utilisateur</text><ellipse cx="41.4331" cy="614.4219" fill="#EDEDED" rx="8" ry="8" style="stroke:#957DAD;stroke-width:0.5;"/><path d="M41.4331,622.4219 L41.4331,649.4219 M28.4331,630.4219 L54.4331,630.4219 M41.4331,649.4219 L28.4331,664.4219 M41.4331,649.4219 L54.4331,664.4219 " fill="none" style="stroke:#957DAD;stroke-width:0.5;"/><rect fill="#625D92" height="29.1328" rx="2.5" ry="2.5" style="stroke:#957DAD;stroke-width:0.5;" width="56.6436" x="87.8662" y="50"/><text fill="#FFFFFF" font-family="Calibri" font-size="13" lengthAdjust="spacing" textLength="42.6436" x="94.8662" y="69.0669">Mobile</text><rect fill="#625D92" height="29.1328" rx="2.5" ry="2.5" style="stroke:#957DAD;stroke-width:0.5;" width="56.6436" x="87.8662" y="590.7891"/><text fill="#FFFFFF" font-family="Calibri" font-size="13" lengthAdjust="spacing" textLength="42.6436" x="94.8662" y="609.856">Mobile</text><rect fill="#625D92" height="29.1328" rx="2.5" ry="2.5" style="stroke:#957DAD;stroke-width:0.5;" width="98.5063" x="256.8005" y="50"/><text fill="#FFFFFF" font-family="Calibri" font-size="13" lengthAdjust="spacing" textLength="84.5063" x="263.8005" y="69.0669">AuthProvider</text><rect fill="#625D92" height="29.1328" rx="2.5" ry="2.5" style="stroke:#957DAD;stroke-width:0.5;" width="98.5063" x="256.8005" y="590.7891"/><text fill="#FFFFFF" font-family="Calibri" font-size="13" lengthAdjust="spacing" textLength="84.5063" x="263.8005" y="609.856">AuthProvider</text><rect fill="#625D92" height="29.1328" rx="2.5" ry="2.5" style="stroke:#957DAD;stroke-width:0.5;" width="194.5845" x="596.7151" y="50"/><text fill="#FFFFFF" font-family="Calibri" font-size="13" lengthAdjust="spacing" textLength="180.5845" x="603.7151" y="69.0669">NamespacedSecureStorage</text><rect fill="#625D92" height="29.1328" rx="2.5" ry="2.5" style="stroke:#957DAD;stroke-width:0.5;" width="194.5845" x="596.7151" y="590.7891"/><text fill="#FFFFFF" font-family="Calibri" font-size="13" lengthAdjust="spacing" textLength="180.5845" x="603.7151" y="609.856">NamespacedSecureStorage</text><rect fill="#625D92" height="29.1328" rx="2.5" ry="2.5" style="stroke:#957DAD;stroke-width:0.5;" width="34.5664" x="801.2996" y="50"/><text fill="#FFFFFF" font-family="Calibri" font-size="13" lengthAdjust="spacing" textLength="20.5664" x="808.2996" y="69.0669">API</text><rect fill="#625D92" height="29.1328" rx="2.5" ry="2.5" style="stroke:#957DAD;stroke-width:0.5;" width="34.5664" x="801.2996" y="590.7891"/><text fill="#FFFFFF" font-family="Calibri" font-size="13" lengthAdjust="spacing" textLength="20.5664" x="808.2996" y="609.856">API</text><rect fill="#625D92" height="29.1328" rx="2.5" ry="2.5" style="stroke:#957DAD;stroke-width:0.5;" width="69.4214" x="845.866" y="50"/><text fill="#FFFFFF" font-family="Calibri" font-size="13" lengthAdjust="spacing" textLength="55.4214" x="852.866" y="69.0669">Firebase</text><rect fill="#625D92" height="29.1328" rx="2.5" ry="2.5" style="stroke:#957DAD;stroke-width:0.5;" width="69.4214" x="845.866" y="590.7891"/><text fill="#FFFFFF" font-family="Calibri" font-size="13" lengthAdjust="spacing" textLength="55.4214" x="852.866" y="609.856">Firebase</text><rect fill="#957DAD" height="97.5313" style="stroke:#957DAD;stroke-width:1.0;" width="10" x="111.188" y="281.1953"/><rect fill="#957DAD" height="470.5234" style="stroke:#957DAD;stroke-width:1.0;" width="10" x="301.0537" y="111.2656"/><rect fill="#957DAD" height="29.1328" style="stroke:#957DAD;stroke-width:1.0;" width="10" x="689.0073" y="222.9297"/><rect fill="#957DAD" height="99.5313" style="stroke:#957DAD;stroke-width:1.0;" width="10" x="689.0073" y="399.8594"/><rect fill="#957DAD" height="53.3984" style="stroke:#957DAD;stroke-width:1.0;" width="10" x="813.5828" y="140.3984"/><rect fill="#957DAD" height="29.1328" style="stroke:#957DAD;stroke-width:1.0;" width="10" x="875.5767" y="334.5938"/><polygon fill="#625D92" points="289.0537,107.2656,299.0537,111.2656,289.0537,115.2656,293.0537,111.2656" style="stroke:#625D92;stroke-width:1.0;"/><line style="stroke:#625D92;stroke-width:1.0;" x1="41.4331" x2="295.0537" y1="111.2656" y2="111.2656"/><text fill="#2B2B2B" font-family="Calibri" font-size="13" lengthAdjust="spacing" textLength="240.6206" x="48.4331" y="106.1997">Envoi des informations de connexion</text><polygon fill="#625D92" points="801.5828,136.3984,811.5828,140.3984,801.5828,144.3984,805.5828,140.3984" style="stroke:#625D92;stroke-width:1.0;"/><line style="stroke:#625D92;stroke-width:1.0;" x1="311.0537" x2="807.5828" y1="140.3984" y2="140.3984"/><text fill="#2B2B2B" font-family="Calibri" font-size="13" lengthAdjust="spacing" textLength="254.998" x="318.0537" y="135.3325">Valider les informations (POST /tokens)</text><path d="M77.8662,155.3984 L142.3091,155.3984 L142.3091,162.5313 L132.3091,172.5313 L77.8662,172.5313 L77.8662,155.3984 " fill="#625D92" style="stroke:#957DAD;stroke-width:1.5;"/><rect fill="none" height="419.3906" style="stroke:#957DAD;stroke-width:1.5;" width="857.4211" x="77.8662" y="155.3984"/><text fill="#FFFFFF" font-family="Calibri" font-size="13" font-weight="bold" lengthAdjust="spacing" textLength="19.4429" x="92.8662" y="168.4653">alt</text><text fill="#2B2B2B" font-family="Calibri" font-size="13" font-weight="bold" lengthAdjust="spacing" textLength="179.1626" x="157.3091" y="169.4653">[Informations correctes]</text><polygon fill="#625D92" points="322.0537,189.7969,312.0537,193.7969,322.0537,197.7969,318.0537,193.7969" style="stroke:#625D92;stroke-width:1.0;"/><line style="stroke:#625D92;stroke-width:1.0;stroke-dasharray:2.0,2.0;" x1="316.0537" x2="817.5828" y1="193.7969" y2="193.7969"/><text fill="#2B2B2B" font-family="Calibri" font-size="13" lengthAdjust="spacing" textLength="106.6724" x="328.0537" y="188.731">Envoi des jetons</text><polygon fill="#625D92" points="677.0073,218.9297,687.0073,222.9297,677.0073,226.9297,681.0073,222.9297" style="stroke:#625D92;stroke-width:1.0;"/><line style="stroke:#625D92;stroke-width:1.0;" x1="311.0537" x2="683.0073" y1="222.9297" y2="222.9297"/><text fill="#2B2B2B" font-family="Calibri" font-size="13" lengthAdjust="spacing" textLength="358.9536" x="318.0537" y="217.8638">Stocker le jeton d'acc&#232;s et le jeton de rafra&#238;chissement</text><polygon fill="#625D92" points="322.0537,248.0625,312.0537,252.0625,322.0537,256.0625,318.0537,252.0625" style="stroke:#625D92;stroke-width:1.0;"/><line style="stroke:#625D92;stroke-width:1.0;stroke-dasharray:2.0,2.0;" x1="316.0537" x2="693.0073" y1="252.0625" y2="252.0625"/><text fill="#2B2B2B" font-family="Calibri" font-size="13" lengthAdjust="spacing" textLength="93.2979" x="328.0537" y="246.9966">Jetons stock&#233;s</text><polygon fill="#625D92" points="132.188,277.1953,122.188,281.1953,132.188,285.1953,128.188,281.1953" style="stroke:#625D92;stroke-width:1.0;"/><line style="stroke:#625D92;stroke-width:1.0;" x1="126.188" x2="300.0537" y1="281.1953" y2="281.1953"/><text fill="#2B2B2B" font-family="Calibri" font-size="13" lengthAdjust="spacing" textLength="134.6084" x="138.188" y="276.1294">V&#233;rifier si sur mobile</text><path d="M246.8005,296.1953 L311.2434,296.1953 L311.2434,303.3281 L301.2434,313.3281 L246.8005,313.3281 L246.8005,296.1953 " fill="#625D92" style="stroke:#957DAD;stroke-width:1.5;"/><rect fill="none" height="75.5313" style="stroke:#957DAD;stroke-width:1.5;" width="678.4868" x="246.8005" y="296.1953"/><text fill="#FFFFFF" font-family="Calibri" font-size="13" font-weight="bold" lengthAdjust="spacing" textLength="19.4429" x="261.8005" y="309.2622">alt</text><text fill="#2B2B2B" font-family="Calibri" font-size="13" font-weight="bold" lengthAdjust="spacing" textLength="90.9492" x="326.2434" y="310.2622">[Sur mobile]</text><polygon fill="#625D92" points="863.5767,330.5938,873.5767,334.5938,863.5767,338.5938,867.5767,334.5938" style="stroke:#625D92;stroke-width:1.0;"/><line style="stroke:#625D92;stroke-width:1.0;" x1="311.0537" x2="869.5767" y1="334.5938" y2="334.5938"/><text fill="#2B2B2B" font-family="Calibri" font-size="13" lengthAdjust="spacing" textLength="146.6182" x="318.0537" y="329.5278">Initialiser la connexion</text><polygon fill="#625D92" points="322.0537,359.7266,312.0537,363.7266,322.0537,367.7266,318.0537,363.7266" style="stroke:#625D92;stroke-width:1.0;"/><line style="stroke:#625D92;stroke-width:1.0;stroke-dasharray:2.0,2.0;" x1="316.0537" x2="879.5767" y1="363.7266" y2="363.7266"/><text fill="#2B2B2B" font-family="Calibri" font-size="13" lengthAdjust="spacing" textLength="135.2686" x="328.0537" y="358.6606">Connexion initialis&#233;e</text><polygon fill="#625D92" points="677.0073,395.8594,687.0073,399.8594,677.0073,403.8594,681.0073,399.8594" style="stroke:#625D92;stroke-width:1.0;"/><line style="stroke:#625D92;stroke-width:1.0;" x1="311.0537" x2="683.0073" y1="399.8594" y2="399.8594"/><text fill="#2B2B2B" font-family="Calibri" font-size="13" lengthAdjust="spacing" textLength="151.8423" x="318.0537" y="394.7935">V&#233;rifier la cl&#233; d'identit&#233;</text><path d="M246.8005,414.8594 L311.2434,414.8594 L311.2434,421.9922 L301.2434,431.9922 L246.8005,431.9922 L246.8005,414.8594 " fill="#625D92" style="stroke:#957DAD;stroke-width:1.5;"/><rect fill="none" height="77.5313" style="stroke:#957DAD;stroke-width:1.5;" width="554.499" x="246.8005" y="414.8594"/><text fill="#FFFFFF" font-family="Calibri" font-size="13" font-weight="bold" lengthAdjust="spacing" textLength="19.4429" x="261.8005" y="427.9263">alt</text><text fill="#2B2B2B" font-family="Calibri" font-size="13" font-weight="bold" lengthAdjust="spacing" textLength="158.2026" x="326.2434" y="428.9263">[Premi&#232;re connexion]</text><polygon fill="#625D92" points="322.0537,449.2578,312.0537,453.2578,322.0537,457.2578,318.0537,453.2578" style="stroke:#625D92;stroke-width:1.0;"/><line style="stroke:#625D92;stroke-width:1.0;stroke-dasharray:2.0,2.0;" x1="316.0537" x2="688.0073" y1="453.2578" y2="453.2578"/><text fill="#2B2B2B" font-family="Calibri" font-size="13" lengthAdjust="spacing" textLength="126.1025" x="328.0537" y="448.1919">Aucune cl&#233; trouv&#233;e</text><line style="stroke:#957DAD;stroke-width:1.0;stroke-dasharray:2.0,2.0;" x1="246.8005" x2="801.2996" y1="462.2578" y2="462.2578"/><polygon fill="#625D92" points="322.0537,480.3906,312.0537,484.3906,322.0537,488.3906,318.0537,484.3906" style="stroke:#625D92;stroke-width:1.0;"/><line style="stroke:#625D92;stroke-width:1.0;stroke-dasharray:2.0,2.0;" x1="316.0537" x2="688.0073" y1="484.3906" y2="484.3906"/><text fill="#2B2B2B" font-family="Calibri" font-size="13" lengthAdjust="spacing" textLength="75.1436" x="328.0537" y="479.3247">Cl&#233; trouv&#233;e</text><polygon fill="#625D92" points="127.188,516.5234,117.188,520.5234,127.188,524.5234,123.188,520.5234" style="stroke:#625D92;stroke-width:1.0;"/><line style="stroke:#625D92;stroke-width:1.0;stroke-dasharray:2.0,2.0;" x1="121.188" x2="300.0537" y1="520.5234" y2="520.5234"/><text fill="#2B2B2B" font-family="Calibri" font-size="13" lengthAdjust="spacing" textLength="147.7607" x="133.188" y="515.4575">AuthenticationSuccess</text><line style="stroke:#957DAD;stroke-width:1.0;stroke-dasharray:2.0,2.0;" x1="77.8662" x2="935.2874" y1="529.5234" y2="529.5234"/><text fill="#2B2B2B" font-family="Calibri" font-size="13" font-weight="bold" lengthAdjust="spacing" textLength="266.2334" x="82.8662" y="541.5903">[Informations incorrectes ou erreur]</text><polygon fill="#625D92" points="127.188,562.7891,117.188,566.7891,127.188,570.7891,123.188,566.7891" style="stroke:#625D92;stroke-width:1.0;"/><line style="stroke:#625D92;stroke-width:1.0;stroke-dasharray:2.0,2.0;" x1="121.188" x2="300.0537" y1="566.7891" y2="566.7891"/><text fill="#2B2B2B" font-family="Calibri" font-size="13" lengthAdjust="spacing" textLength="127.6323" x="133.188" y="561.7231">AuthenticationError</text><!--SRC=[ZLVTRjis5BxNKx3fHRQBOcX-EYJ01iYoqsLDRSzEXksgeALZXujCUYJbhXlsFlNDNi8ljaDH_pP5rsWWyVjullD7YZmdaor8oH8WMoePNQIWo598ahBLioPhaK3mAe4buq2ci_kFuUptJz7aOJ8ZhzzTN0zlBYfqFeecus437mtDhyB3A1gD7qlmvlhxOLY3ZwFV7Zzrx5yCpAzDEH2vlBwykdfNaKQpsMHMOiEBcxU3A0ZEoT2YA-0WQTg9D1Of_jtG5BG69Bzg-_43EIj2FJDWrmC3MoTok1MbmMoWENOaICEmUQePnnIYA_FBEOCm-l1-DdaQ3nkupLMEDrDW89k5iw3AqO41BIbN6og1wq2zC8wFT4t-2GOqVbb9aV4aobFKdHZCdsaYFZE-8akQAWX2ASLdoss5QO4xmRK53nDHC-RiRo1lBuC0QqQpL9knCLq3YMZA5f8rnqjkOyWfq9oclwH0k91hcWPXh8NiHjefGK4ICW5f2SqoMxHNF8Z4UYCu9jYdL1DTQXMZNt58DLrG1Jx1YkVIAmdzSg7KR4bZRtmLpvdCWj0lDyPzoIULSrmo1koNU58Gdv2_akOIAl1-hJkHucoVLC5oALdO8uGhsnkI9Jbb3DglCeDOKxvAlKerqQLMCJpjjpfXRLcIi_5MtZKrCBQf_E8JgdWkhPBWspIubYBrRncMvjumShnVQyGrqzx02fPBoSBzGlTSWyG5xksDckYIgnZzYbCKeYklNabpgHLulzOl6MHU9KjowUHelqeGfLIfhaoRP2dEdZ1eBVBwBlzdXqEj9Lja6Wvn98WiyJPaJd9B8zeVtno_foTKhAIvb0gyN-k1BY3rddGigo5qdE6H0jnYlDahMAwWBEpxEkg3v7M-VhhlqzWiVTSzN0VuXOxPXXvkk6qtcaJtegeuHxfj3dzcm6DuZngRVh4srTaHJTPFG5lVomFP1xR4_noyvYfYNyx_nNLBpKcHF6cMCaKrP3BOr0aW7yM2fT0Q2ZFzF9LYY_UpDjSSYV7C7aCoXpYJKFHwU_BqllL-noIOanoURMeFo9iVMogtPCItWf44RqUCByqXMJF15GxWJObp-0lVJ21iY_FR3WRDjzpmzFwM_8e7T_EUTYr-CvtC7ybtMhm0LzysRABV0KqrkM-oOo4b7WP01OYJDprk_m4Q9mG9j2rsdNEay9RWG_oIEsnDaUISnl7-goAW6uD095rAklylVcPAmTfSdof5LtqSuqVY-JcFWYZZp7xN2iTb_214sr5OWlrEiYN3GSM8mgAlRQjL5elMoxC-h_6klRA3Rh4qJ3Cih39veiSwe-gsyk58Z54v3HkZiBVVGJFKoWfkUitnqk6JYrgdmBYRxdTOLPnaJYpxdRzkUMQc4jPi_rKsLyBf1GspECFhTwwD1x9iQq85Ssy-tKRKdjpEoObjqUWB0vWKnFaQcsTn34hbFhNN7kFLwYCY8u3Fk7UTQ7Q4LtlPzRKvzty0]--></g></svg>