<svg xmlns="http://www.w3.org/2000/svg" xmlns:xlink="http://www.w3.org/1999/xlink" contentStyleType="text/css" height="498px" preserveAspectRatio="none" style="width:1192px;height:498px;" version="1.1" viewBox="0 0 1192 498" width="1192px" zoomAndPan="magnify"><defs/><g><rect fill="#957DAD" height="165.0625" style="stroke:#957DAD;stroke-width:1.0;" width="10" x="287.1235" y="111.2656"/><rect fill="#957DAD" height="29.1328" style="stroke:#957DAD;stroke-width:1.0;" width="10" x="764.9219" y="193.7969"/><rect fill="#957DAD" height="35.1328" style="stroke:#957DAD;stroke-width:1.0;" width="10" x="858.0256" y="322.5938"/><rect fill="#EDEDED" height="163.9297" style="stroke:#957DAD;stroke-width:1.5;" width="1165.7805" x="20" y="237.9297"/><rect fill="#EDEDED" height="117.5313" style="stroke:none;stroke-width:1.0;" width="1165.7805" x="20" y="284.3281"/><line style="stroke:#957DAD;stroke-width:0.5;stroke-dasharray:5.0,5.0;" x1="47" x2="47" y1="80.1328" y2="418.8594"/><line style="stroke:#957DAD;stroke-width:0.5;stroke-dasharray:5.0,5.0;" x1="291.1382" x2="291.1382" y1="80.1328" y2="418.8594"/><line style="stroke:#957DAD;stroke-width:0.5;stroke-dasharray:5.0,5.0;" x1="488.8982" x2="488.8982" y1="80.1328" y2="418.8594"/><line style="stroke:#957DAD;stroke-width:0.5;stroke-dasharray:5.0,5.0;" x1="769.6064" x2="769.6064" y1="80.1328" y2="418.8594"/><line style="stroke:#957DAD;stroke-width:0.5;stroke-dasharray:5.0,5.0;" x1="862.2373" x2="862.2373" y1="80.1328" y2="418.8594"/><text fill="#2B2B2B" font-family="Calibri" font-size="13" lengthAdjust="spacing" textLength="29.6309" x="30" y="77.0669">User</text><ellipse cx="47.8154" cy="13.5" fill="#EDEDED" rx="8" ry="8" style="stroke:#957DAD;stroke-width:0.5;"/><path d="M47.8154,21.5 L47.8154,48.5 M34.8154,29.5 L60.8154,29.5 M47.8154,48.5 L34.8154,63.5 M47.8154,48.5 L60.8154,63.5 " fill="none" style="stroke:#957DAD;stroke-width:0.5;"/><text fill="#2B2B2B" font-family="Calibri" font-size="13" lengthAdjust="spacing" textLength="29.6309" x="30" y="429.9263">User</text><ellipse cx="47.8154" cy="441.4922" fill="#EDEDED" rx="8" ry="8" style="stroke:#957DAD;stroke-width:0.5;"/><path d="M47.8154,449.4922 L47.8154,476.4922 M34.8154,457.4922 L60.8154,457.4922 M47.8154,476.4922 L34.8154,491.4922 M47.8154,476.4922 L60.8154,491.4922 " fill="none" style="stroke:#957DAD;stroke-width:0.5;"/><rect fill="#625D92" height="29.1328" rx="2.5" ry="2.5" style="stroke:#957DAD;stroke-width:0.5;" width="107.9707" x="238.1382" y="50"/><text fill="#FFFFFF" font-family="Calibri" font-size="13" lengthAdjust="spacing" textLength="93.9707" x="245.1382" y="69.0669">SignalProvider</text><rect fill="#625D92" height="29.1328" rx="2.5" ry="2.5" style="stroke:#957DAD;stroke-width:0.5;" width="107.9707" x="238.1382" y="417.8594"/><text fill="#FFFFFF" font-family="Calibri" font-size="13" lengthAdjust="spacing" textLength="93.9707" x="245.1382" y="436.9263">SignalProvider</text><rect fill="#625D92" height="29.1328" rx="2.5" ry="2.5" style="stroke:#957DAD;stroke-width:0.5;" width="194.0894" x="391.8982" y="50"/><text fill="#FFFFFF" font-family="Calibri" font-size="13" lengthAdjust="spacing" textLength="180.0894" x="398.8982" y="69.0669">SecureStorageSessionStore</text><rect fill="#625D92" height="29.1328" rx="2.5" ry="2.5" style="stroke:#957DAD;stroke-width:0.5;" width="194.0894" x="391.8982" y="417.8594"/><text fill="#FFFFFF" font-family="Calibri" font-size="13" lengthAdjust="spacing" textLength="180.0894" x="398.8982" y="436.9263">SecureStorageSessionStore</text><rect fill="#625D92" height="29.1328" rx="2.5" ry="2.5" style="stroke:#957DAD;stroke-width:0.5;" width="56.6309" x="741.6064" y="50"/><text fill="#FFFFFF" font-family="Calibri" font-size="13" lengthAdjust="spacing" textLength="42.6309" x="748.6064" y="69.0669">Server</text><rect fill="#625D92" height="29.1328" rx="2.5" ry="2.5" style="stroke:#957DAD;stroke-width:0.5;" width="56.6309" x="741.6064" y="417.8594"/><text fill="#FFFFFF" font-family="Calibri" font-size="13" lengthAdjust="spacing" textLength="42.6309" x="748.6064" y="436.9263">Server</text><rect fill="#625D92" height="29.1328" rx="2.5" ry="2.5" style="stroke:#957DAD;stroke-width:0.5;" width="109.5767" x="808.2373" y="50"/><text fill="#FFFFFF" font-family="Calibri" font-size="13" lengthAdjust="spacing" textLength="95.5767" x="815.2373" y="69.0669">SessionBuilder</text><rect fill="#625D92" height="29.1328" rx="2.5" ry="2.5" style="stroke:#957DAD;stroke-width:0.5;" width="109.5767" x="808.2373" y="417.8594"/><text fill="#FFFFFF" font-family="Calibri" font-size="13" lengthAdjust="spacing" textLength="95.5767" x="815.2373" y="436.9263">SessionBuilder</text><rect fill="#957DAD" height="165.0625" style="stroke:#957DAD;stroke-width:1.0;" width="10" x="287.1235" y="111.2656"/><rect fill="#957DAD" height="29.1328" style="stroke:#957DAD;stroke-width:1.0;" width="10" x="764.9219" y="193.7969"/><rect fill="#957DAD" height="35.1328" style="stroke:#957DAD;stroke-width:1.0;" width="10" x="858.0256" y="322.5938"/><polygon fill="#625D92" points="275.1235,107.2656,285.1235,111.2656,275.1235,115.2656,279.1235,111.2656" style="stroke:#625D92;stroke-width:1.0;"/><line style="stroke:#625D92;stroke-width:1.0;" x1="47.8154" x2="281.1235" y1="111.2656" y2="111.2656"/><text fill="#2B2B2B" font-family="Calibri" font-size="13" lengthAdjust="spacing" textLength="220.3081" x="54.8154" y="106.1997">buildSession(name, accessToken)</text><polygon fill="#625D92" points="476.9429,136.3984,486.9429,140.3984,476.9429,144.3984,480.9429,140.3984" style="stroke:#625D92;stroke-width:1.0;"/><line style="stroke:#625D92;stroke-width:1.0;" x1="297.1235" x2="482.9429" y1="140.3984" y2="140.3984"/><text fill="#2B2B2B" font-family="Calibri" font-size="13" lengthAdjust="spacing" textLength="167.8193" x="304.1235" y="135.3325">V&#233;rifie si la session existe</text><polygon fill="#625D92" points="752.9219,189.7969,762.9219,193.7969,752.9219,197.7969,756.9219,193.7969" style="stroke:#625D92;stroke-width:1.0;"/><line style="stroke:#625D92;stroke-width:1.0;" x1="297.1235" x2="758.9219" y1="193.7969" y2="193.7969"/><text fill="#2B2B2B" font-family="Calibri" font-size="13" lengthAdjust="spacing" textLength="448.7983" x="304.1235" y="188.731">R&#233;cup&#232;re le bundle de cl&#233;s de l'utilisateur - GET /users/{name}/keys</text><polygon fill="#625D92" points="308.1235,218.9297,298.1235,222.9297,308.1235,226.9297,304.1235,222.9297" style="stroke:#625D92;stroke-width:1.0;"/><line style="stroke:#625D92;stroke-width:1.0;stroke-dasharray:2.0,2.0;" x1="302.1235" x2="768.9219" y1="222.9297" y2="222.9297"/><text fill="#2B2B2B" font-family="Calibri" font-size="13" lengthAdjust="spacing" textLength="158.2217" x="314.1235" y="217.8638">Envoie le bundle de cl&#233;s</text><path d="M20,237.9297 L84.4429,237.9297 L84.4429,245.0625 L74.4429,255.0625 L20,255.0625 L20,237.9297 " fill="#625D92" style="stroke:#957DAD;stroke-width:1.5;"/><rect fill="none" height="163.9297" style="stroke:#957DAD;stroke-width:1.5;" width="1165.7805" x="20" y="237.9297"/><text fill="#FFFFFF" font-family="Calibri" font-size="13" font-weight="bold" lengthAdjust="spacing" textLength="19.4429" x="35" y="250.9966">alt</text><text fill="#2B2B2B" font-family="Calibri" font-size="13" font-weight="bold" lengthAdjust="spacing" textLength="163.668" x="99.4429" y="251.9966">[PreKeyBundle is null]</text><polygon fill="#625D92" points="58.8154,272.3281,48.8154,276.3281,58.8154,280.3281,54.8154,276.3281" style="stroke:#625D92;stroke-width:1.0;"/><line style="stroke:#625D92;stroke-width:1.0;stroke-dasharray:2.0,2.0;" x1="52.8154" x2="291.1235" y1="276.3281" y2="276.3281"/><text fill="#2B2B2B" font-family="Calibri" font-size="13" lengthAdjust="spacing" textLength="40.2632" x="64.8154" y="271.2622">return</text><line style="stroke:#957DAD;stroke-width:1.0;stroke-dasharray:2.0,2.0;" x1="20" x2="1185.7805" y1="285.3281" y2="285.3281"/><text fill="#2B2B2B" font-family="Calibri" font-size="13" font-weight="bold" lengthAdjust="spacing" textLength="192.5942" x="25" y="297.395">[PreKeyBundle is not null]</text><polygon fill="#625D92" points="846.0256,318.5938,856.0256,322.5938,846.0256,326.5938,850.0256,322.5938" style="stroke:#625D92;stroke-width:1.0;"/><line style="stroke:#625D92;stroke-width:1.0;" x1="292.1235" x2="852.0256" y1="322.5938" y2="322.5938"/><text fill="#2B2B2B" font-family="Calibri" font-size="13" lengthAdjust="spacing" textLength="149.1191" x="299.1235" y="317.5278">new SessionBuilder(...)</text><line style="stroke:#625D92;stroke-width:1.0;" x1="868.0256" x2="910.0256" y1="356.7266" y2="356.7266"/><line style="stroke:#625D92;stroke-width:1.0;" x1="910.0256" x2="910.0256" y1="356.7266" y2="369.7266"/><line style="stroke:#625D92;stroke-width:1.0;" x1="863.0256" x2="910.0256" y1="369.7266" y2="369.7266"/><polygon fill="#625D92" points="873.0256,365.7266,863.0256,369.7266,873.0256,373.7266,869.0256,369.7266" style="stroke:#625D92;stroke-width:1.0;"/><text fill="#2B2B2B" font-family="Calibri" font-size="13" lengthAdjust="spacing" textLength="288.7549" x="875.0256" y="351.6606">processPreKeyBundle(remotePreKeyBundle)</text><polygon fill="#625D92" points="58.8154,389.8594,48.8154,393.8594,58.8154,397.8594,54.8154,393.8594" style="stroke:#625D92;stroke-width:1.0;"/><line style="stroke:#625D92;stroke-width:1.0;stroke-dasharray:2.0,2.0;" x1="52.8154" x2="291.1235" y1="393.8594" y2="393.8594"/><text fill="#2B2B2B" font-family="Calibri" font-size="13" lengthAdjust="spacing" textLength="40.2632" x="64.8154" y="388.7935">return</text><!--SRC=[dPTRRjiu58RVjGesVKWAJ1CqbnOnq0Asx6IAPknKTWUTfuAMZbqYDEaXAQUPelkPh2CR6rAKTQSOJ8JO5lzV_7WEhpf4inq8GH90Eom8NbAGQCK5ecJzNQ4DJo1uaS2AC42tqSS_Xj5VtyBPpIn2Bz-UNemlJmjrFWbdqt55dupDLUZ3C9nC5tlnykBTU5YAYydNnRT6_QSZSzKjBSZPnTdv-Tl2D8cYMRJNngUNRqPX41oYiLNNm41WseWqvbH_RZ45fK2RNzJRyHuTvA4U6B7P0YFRHcHoBKgZsK0phID8ux1vAXrTXF3SN9bdD0m_NKUpBzDnHRUvolHg2enait0G53bgLQ04PdAB1J0Lo3l2z4-yGJ-34OxlreAdB0cp53KV3ERVSSBl2LkZ5QOIWg4G_DvwQs5QuOepPSLs8ah7dFm3wCrP4EW-mobLfcoADu12JCbIa6hvtbifSWAgZwa72eXniS4q6CQAYsQaZIx8JLma8AoXsirMxOK78TziETC9zf5AeujMEFg9Owpm4alm0GkVYxStzEE6Gf4LZhtn5JvdCdD3FswgroKVAlEuC4RiHtoH43yZVtkR2vJh_QmhJlNJFbJkSf6ix07fcUqDoPgS6AFsKoA85MPhwYMLHXUjS7Y6t_ePSykQd0DlxPrJ8rCt5Wy-KE5piVO6twB1bE3KlsHOctl1oFH-reGfeho1vIuNoShze8zCWT0Jt3isIgCBLpZwYRSQXDTUtjxcekLwF-jp2gcNP4qkJgRsKuAGOYcRcBh9MfnZmgWbvELLzcUBXqe9iamLj7Lju6dY7P2PoOtMQdzySxsVFgF7zZONATVxMJTu2THxqh6k2gZRuK61NcAysSjThg2ixDiTLIjvZTrFzMsDrQvlDa_F0xr3nsIBsmjklHbLetjI5PwEqJQ7lrDWCLnhnhOVLhSwHqJLzJlWsdxPmjwGbVvduAskCFRb_9UUjzYS594-4eXWMqQEvcJDCBqLVAVVmneInAc0V2JFGKh2cRc3XaliMWzctb5ApAaWEyu8zFf3WpL0IsF8pKTCR-s_8Hp7-dx1xu2zCaqcEwoWsSZwRLQpgwa3zEVJeo0h0aWIH36ILaJmWqZzoeMfGZTbAJkqvVgLJ7PYJAm353qznkdswLy1I9_cbphf-ak_niRqwL6Q7_GmLOGIgHkVwYVHzMI1JbAT1ddoqmJww-GE7cGbG9j4-uLUT-HgmdQSTE6219hLcA1k1No2Xv7r4ebOIcah8iqnVJD00bGgMAsgUif1lsErw-IgkzuFZI4mG0pk6sL7nyV7rIwkZvdwRLUDMy7DKAcswKZ0HYyWrQ9NzVJK6Vy_6opv3m00]--></g></svg>