<svg xmlns="http://www.w3.org/2000/svg" xmlns:xlink="http://www.w3.org/1999/xlink" contentStyleType="text/css" height="488px" preserveAspectRatio="none" style="width:1515px;height:488px;" version="1.1" viewBox="0 0 1515 488" width="1515px" zoomAndPan="magnify"><defs/><g><rect fill="#957DAD" height="308.4609" style="stroke:#957DAD;stroke-width:1.0;" width="10" x="143.7578" y="90.1328"/><rect fill="#957DAD" height="29.1328" style="stroke:#957DAD;stroke-width:1.0;" width="10" x="999.6958" y="153.3984"/><rect fill="#957DAD" height="29.1328" style="stroke:#957DAD;stroke-width:1.0;" width="10" x="1122.5669" y="211.6641"/><rect fill="#957DAD" height="128.6641" style="stroke:#957DAD;stroke-width:1.0;" width="10" x="1216.5784" y="269.9297"/><rect fill="#957DAD" height="99.5313" style="stroke:#957DAD;stroke-width:1.0;" width="10" x="1443.2742" y="299.0625"/><rect fill="#EDEDED" height="77.5313" style="stroke:#957DAD;stroke-width:1.5;" width="324.3057" x="1183.9421" y="314.0625"/><rect fill="#EDEDED" height="31.1328" style="stroke:none;stroke-width:1.0;" width="324.3057" x="1183.9421" y="360.4609"/><line style="stroke:#957DAD;stroke-width:0.5;stroke-dasharray:5.0,5.0;" x1="41" x2="41" y1="80.1328" y2="408.5938"/><line style="stroke:#957DAD;stroke-width:0.5;stroke-dasharray:5.0,5.0;" x1="147.8662" x2="147.8662" y1="80.1328" y2="408.5938"/><line style="stroke:#957DAD;stroke-width:0.5;stroke-dasharray:5.0,5.0;" x1="715.9822" x2="715.9822" y1="80.1328" y2="408.5938"/><line style="stroke:#957DAD;stroke-width:0.5;stroke-dasharray:5.0,5.0;" x1="859.8918" x2="859.8918" y1="80.1328" y2="408.5938"/><line style="stroke:#957DAD;stroke-width:0.5;stroke-dasharray:5.0,5.0;" x1="1004.2" x2="1004.2" y1="80.1328" y2="408.5938"/><line style="stroke:#957DAD;stroke-width:0.5;stroke-dasharray:5.0,5.0;" x1="1127.1917" x2="1127.1917" y1="80.1328" y2="408.5938"/><line style="stroke:#957DAD;stroke-width:0.5;stroke-dasharray:5.0,5.0;" x1="1220.9421" x2="1220.9421" y1="80.1328" y2="408.5938"/><line style="stroke:#957DAD;stroke-width:0.5;stroke-dasharray:5.0,5.0;" x1="1447.3005" x2="1447.3005" y1="80.1328" y2="408.5938"/><text fill="#2B2B2B" font-family="Calibri" font-size="13" lengthAdjust="spacing" textLength="66.8662" x="5" y="77.0669">Utilisateur</text><ellipse cx="41.4331" cy="13.5" fill="#EDEDED" rx="8" ry="8" style="stroke:#957DAD;stroke-width:0.5;"/><path d="M41.4331,21.5 L41.4331,48.5 M28.4331,29.5 L54.4331,29.5 M41.4331,48.5 L28.4331,63.5 M41.4331,48.5 L54.4331,63.5 " fill="none" style="stroke:#957DAD;stroke-width:0.5;"/><text fill="#2B2B2B" font-family="Calibri" font-size="13" lengthAdjust="spacing" textLength="66.8662" x="5" y="419.6606">Utilisateur</text><ellipse cx="41.4331" cy="431.2266" fill="#EDEDED" rx="8" ry="8" style="stroke:#957DAD;stroke-width:0.5;"/><path d="M41.4331,439.2266 L41.4331,466.2266 M28.4331,447.2266 L54.4331,447.2266 M41.4331,466.2266 L28.4331,481.2266 M41.4331,466.2266 L54.4331,481.2266 " fill="none" style="stroke:#957DAD;stroke-width:0.5;"/><rect fill="#625D92" height="29.1328" rx="2.5" ry="2.5" style="stroke:#957DAD;stroke-width:0.5;" width="121.7832" x="87.8662" y="50"/><text fill="#FFFFFF" font-family="Calibri" font-size="13" lengthAdjust="spacing" textLength="107.7832" x="94.8662" y="69.0669">_handleMessage</text><rect fill="#625D92" height="29.1328" rx="2.5" ry="2.5" style="stroke:#957DAD;stroke-width:0.5;" width="121.7832" x="87.8662" y="407.5938"/><text fill="#FFFFFF" font-family="Calibri" font-size="13" lengthAdjust="spacing" textLength="107.7832" x="94.8662" y="426.6606">_handleMessage</text><rect fill="#625D92" height="29.1328" rx="2.5" ry="2.5" style="stroke:#957DAD;stroke-width:0.5;" width="110.9097" x="660.9822" y="50"/><text fill="#FFFFFF" font-family="Calibri" font-size="13" lengthAdjust="spacing" textLength="96.9097" x="667.9822" y="69.0669">SignalMessage</text><rect fill="#625D92" height="29.1328" rx="2.5" ry="2.5" style="stroke:#957DAD;stroke-width:0.5;" width="110.9097" x="660.9822" y="407.5938"/><text fill="#FFFFFF" font-family="Calibri" font-size="13" lengthAdjust="spacing" textLength="96.9097" x="667.9822" y="426.6606">SignalMessage</text><rect fill="#625D92" height="29.1328" rx="2.5" ry="2.5" style="stroke:#957DAD;stroke-width:0.5;" width="156.3081" x="781.8918" y="50"/><text fill="#FFFFFF" font-family="Calibri" font-size="13" lengthAdjust="spacing" textLength="142.3081" x="788.8918" y="69.0669">PreKeySignalMessage</text><rect fill="#625D92" height="29.1328" rx="2.5" ry="2.5" style="stroke:#957DAD;stroke-width:0.5;" width="156.3081" x="781.8918" y="407.5938"/><text fill="#FFFFFF" font-family="Calibri" font-size="13" lengthAdjust="spacing" textLength="142.3081" x="788.8918" y="426.6606">PreKeySignalMessage</text><rect fill="#625D92" height="29.1328" rx="2.5" ry="2.5" style="stroke:#957DAD;stroke-width:0.5;" width="112.9917" x="948.2" y="50"/><text fill="#FFFFFF" font-family="Calibri" font-size="13" lengthAdjust="spacing" textLength="98.9917" x="955.2" y="69.0669">_signalProvider</text><rect fill="#625D92" height="29.1328" rx="2.5" ry="2.5" style="stroke:#957DAD;stroke-width:0.5;" width="112.9917" x="948.2" y="407.5938"/><text fill="#FFFFFF" font-family="Calibri" font-size="13" lengthAdjust="spacing" textLength="98.9917" x="955.2" y="426.6606">_signalProvider</text><rect fill="#625D92" height="29.1328" rx="2.5" ry="2.5" style="stroke:#957DAD;stroke-width:0.5;" width="112.7505" x="1071.1917" y="50"/><text fill="#FFFFFF" font-family="Calibri" font-size="13" lengthAdjust="spacing" textLength="98.7505" x="1078.1917" y="69.0669">_getUserRealm</text><rect fill="#625D92" height="29.1328" rx="2.5" ry="2.5" style="stroke:#957DAD;stroke-width:0.5;" width="112.7505" x="1071.1917" y="407.5938"/><text fill="#FFFFFF" font-family="Calibri" font-size="13" lengthAdjust="spacing" textLength="98.7505" x="1078.1917" y="426.6606">_getUserRealm</text><rect fill="#625D92" height="29.1328" rx="2.5" ry="2.5" style="stroke:#957DAD;stroke-width:0.5;" width="55.2725" x="1193.9421" y="50"/><text fill="#FFFFFF" font-family="Calibri" font-size="13" lengthAdjust="spacing" textLength="41.2725" x="1200.9421" y="69.0669">Realm</text><rect fill="#625D92" height="29.1328" rx="2.5" ry="2.5" style="stroke:#957DAD;stroke-width:0.5;" width="55.2725" x="1193.9421" y="407.5938"/><text fill="#FFFFFF" font-family="Calibri" font-size="13" lengthAdjust="spacing" textLength="41.2725" x="1200.9421" y="426.6606">Realm</text><rect fill="#625D92" height="29.1328" rx="2.5" ry="2.5" style="stroke:#957DAD;stroke-width:0.5;" width="99.9473" x="1398.3005" y="50"/><text fill="#FFFFFF" font-family="Calibri" font-size="13" lengthAdjust="spacing" textLength="85.9473" x="1405.3005" y="69.0669">Conversation</text><rect fill="#625D92" height="29.1328" rx="2.5" ry="2.5" style="stroke:#957DAD;stroke-width:0.5;" width="99.9473" x="1398.3005" y="407.5938"/><text fill="#FFFFFF" font-family="Calibri" font-size="13" lengthAdjust="spacing" textLength="85.9473" x="1405.3005" y="426.6606">Conversation</text><rect fill="#957DAD" height="308.4609" style="stroke:#957DAD;stroke-width:1.0;" width="10" x="143.7578" y="90.1328"/><rect fill="#957DAD" height="29.1328" style="stroke:#957DAD;stroke-width:1.0;" width="10" x="999.6958" y="153.3984"/><rect fill="#957DAD" height="29.1328" style="stroke:#957DAD;stroke-width:1.0;" width="10" x="1122.5669" y="211.6641"/><rect fill="#957DAD" height="128.6641" style="stroke:#957DAD;stroke-width:1.0;" width="10" x="1216.5784" y="269.9297"/><rect fill="#957DAD" height="99.5313" style="stroke:#957DAD;stroke-width:1.0;" width="10" x="1443.2742" y="299.0625"/><line style="stroke:#625D92;stroke-width:1.0;" x1="153.7578" x2="195.7578" y1="111.2656" y2="111.2656"/><line style="stroke:#625D92;stroke-width:1.0;" x1="195.7578" x2="195.7578" y1="111.2656" y2="124.2656"/><line style="stroke:#625D92;stroke-width:1.0;" x1="154.7578" x2="195.7578" y1="124.2656" y2="124.2656"/><polygon fill="#625D92" points="164.7578,120.2656,154.7578,124.2656,164.7578,128.2656,160.7578,124.2656" style="stroke:#625D92;stroke-width:1.0;"/><text fill="#2B2B2B" font-family="Calibri" font-size="13" lengthAdjust="spacing" textLength="533.6792" x="160.7578" y="106.1997">Traitement du JSON (cr&#233;ation d'un objet SignalMessage ou PreKeySignalMessage)</text><polygon fill="#625D92" points="987.6958,149.3984,997.6958,153.3984,987.6958,157.3984,991.6958,153.3984" style="stroke:#625D92;stroke-width:1.0;"/><line style="stroke:#625D92;stroke-width:1.0;" x1="153.7578" x2="993.6958" y1="153.3984" y2="153.3984"/><text fill="#2B2B2B" font-family="Calibri" font-size="13" lengthAdjust="spacing" textLength="176.6807" x="160.7578" y="148.3325">D&#233;chiffrement du message</text><polygon fill="#625D92" points="164.7578,178.5313,154.7578,182.5313,164.7578,186.5313,160.7578,182.5313" style="stroke:#625D92;stroke-width:1.0;"/><line style="stroke:#625D92;stroke-width:1.0;stroke-dasharray:2.0,2.0;" x1="158.7578" x2="1003.6958" y1="182.5313" y2="182.5313"/><text fill="#2B2B2B" font-family="Calibri" font-size="13" lengthAdjust="spacing" textLength="171.0757" x="170.7578" y="177.4653">Envoi du message en clair</text><polygon fill="#625D92" points="1110.5669,207.6641,1120.5669,211.6641,1110.5669,215.6641,1114.5669,211.6641" style="stroke:#625D92;stroke-width:1.0;"/><line style="stroke:#625D92;stroke-width:1.0;" x1="153.7578" x2="1116.5669" y1="211.6641" y2="211.6641"/><text fill="#2B2B2B" font-family="Calibri" font-size="13" lengthAdjust="spacing" textLength="250.1992" x="160.7578" y="206.5981">R&#233;cup&#233;ration du Realm de l'utilisateur</text><polygon fill="#625D92" points="164.7578,236.7969,154.7578,240.7969,164.7578,244.7969,160.7578,240.7969" style="stroke:#625D92;stroke-width:1.0;"/><line style="stroke:#625D92;stroke-width:1.0;stroke-dasharray:2.0,2.0;" x1="158.7578" x2="1126.5669" y1="240.7969" y2="240.7969"/><text fill="#2B2B2B" font-family="Calibri" font-size="13" lengthAdjust="spacing" textLength="236.1074" x="170.7578" y="235.731">Retourne la base de donn&#233;es Realm</text><polygon fill="#625D92" points="1204.5784,265.9297,1214.5784,269.9297,1204.5784,273.9297,1208.5784,269.9297" style="stroke:#625D92;stroke-width:1.0;"/><line style="stroke:#625D92;stroke-width:1.0;" x1="153.7578" x2="1210.5784" y1="269.9297" y2="269.9297"/><text fill="#2B2B2B" font-family="Calibri" font-size="13" lengthAdjust="spacing" textLength="186.3608" x="160.7578" y="264.8638">&#201;criture du message en clair</text><polygon fill="#625D92" points="1431.2742,295.0625,1441.2742,299.0625,1431.2742,303.0625,1435.2742,299.0625" style="stroke:#625D92;stroke-width:1.0;"/><line style="stroke:#625D92;stroke-width:1.0;" x1="1226.5784" x2="1437.2742" y1="299.0625" y2="299.0625"/><text fill="#2B2B2B" font-family="Calibri" font-size="13" lengthAdjust="spacing" textLength="193.3877" x="1233.5784" y="293.9966">Recherche de la conversation</text><path d="M1183.9421,314.0625 L1248.385,314.0625 L1248.385,321.1953 L1238.385,331.1953 L1183.9421,331.1953 L1183.9421,314.0625 " fill="#625D92" style="stroke:#957DAD;stroke-width:1.5;"/><rect fill="none" height="77.5313" style="stroke:#957DAD;stroke-width:1.5;" width="324.3057" x="1183.9421" y="314.0625"/><text fill="#FFFFFF" font-family="Calibri" font-size="13" font-weight="bold" lengthAdjust="spacing" textLength="19.4429" x="1198.9421" y="327.1294">alt</text><text fill="#2B2B2B" font-family="Calibri" font-size="13" font-weight="bold" lengthAdjust="spacing" textLength="168.2891" x="1263.385" y="328.1294">[conversation trouv&#233;e]</text><polygon fill="#625D92" points="1237.5784,348.4609,1227.5784,352.4609,1237.5784,356.4609,1233.5784,352.4609" style="stroke:#625D92;stroke-width:1.0;"/><line style="stroke:#625D92;stroke-width:1.0;" x1="1231.5784" x2="1442.2742" y1="352.4609" y2="352.4609"/><text fill="#2B2B2B" font-family="Calibri" font-size="13" lengthAdjust="spacing" textLength="116.9746" x="1243.5784" y="347.395">Ajout du message</text><line style="stroke:#957DAD;stroke-width:1.0;stroke-dasharray:2.0,2.0;" x1="1183.9421" x2="1508.2478" y1="361.4609" y2="361.4609"/><polygon fill="#625D92" points="1237.5784,379.5938,1227.5784,383.5938,1237.5784,387.5938,1233.5784,383.5938" style="stroke:#625D92;stroke-width:1.0;"/><line style="stroke:#625D92;stroke-width:1.0;" x1="1231.5784" x2="1442.2742" y1="383.5938" y2="383.5938"/><text fill="#2B2B2B" font-family="Calibri" font-size="13" lengthAdjust="spacing" textLength="192.6958" x="1243.5784" y="378.5278">Cr&#233;ation et ajout du message</text><!--SRC=[ZPVVRjis5CRlzHHiUf7reXVDdmuPi0Asx7HTKpkJ4s2x2cZfM65Banv5kSY6FK0V9S_X5zkHA4kY98g9uI3Hz-dypZaaHV6KBFUW54k0xAbYTCqX8nkf26VfeoPRcK3mAe4D4q1keqzV9j5V3-7oPXcHr-_FBcTNPxMwceVBnQobpsV5fzOdOJXVt1t5gykVPvD6l9l_UVVGYNysBJwsfGSvlpo_k7XVc-PHj8oEskpiwjqq389JCZDg2W8KvPrAOydnzuvoq1hG_ChEurToKfLwKeZT30hP957ALfM5PWejjO4Y2uVfK-CO8eGNnQVqJ2VXvu_HydunQ-ccLwNURa4XcIwS17MFUW6qeYBRKGL21zat9l1FkYN_1bCQVqkLp4KIbYtgtXYi7caYlpEHaWtb6GGJfUHtuxNADCAr5Dg8_KOqZXNx1yYxyo30CQCvryMr1Tq22IbdQyNQru_UrYKde7sRVk90X5HRoeD9hANgLjePWieaLGBA6Dh3RDHHU13AxKuARB2Fr1XTjDenJfnHJTSq0n-mzhbuHyCuRg8qsz3OMr_jSpQpCepZ5lXSyg5AZmjJYEE8-mpY5_JlQ7E1AdsSTIqvtkr3LIuNoSWU4AviRqd6vCGKwZWbWbXJaN8lgJ6wQBN3C_tI5wmjOt9ElDIxfgP5RAgUVA3Qvs8T3Rw7Xj1ASlyZmzZS3unI7sVDXMRQMrZbSf6CF0xw93GeNE3UkT4ONRZQCKwyHH1DlRoZpKMhz77M7pdaNf8nkJYbEau9Gawph8knJSRYd1E5sa1UNvS_vl94QyNMkOQ-ZWQP9zu9MPhSQ5J7wrlXVlg24JlQNAHA7sVTq3LmxvkESRL0mmuF2l0Hu-rUvN8LPMJVxgXxpUliVdfiQsmFVJSzN0UuGyTiH_iFN3kDjj6zg6hFm6nRmTyvY1W-8cCt3hEjpXdHTlq6rDelUzWRji6l06-usZZMy_zmtTBYJP7SQyPPHZNaAjWr3I0FZrGa7Bv0bk6qjQGLImNbGygjWi_mvDOVibAwLNAFXxmEC0MDxoSg0igtbjA_Whi87XGnQoP5MGZROmNTdEr_oTiF7GFvXTmfoZHiSRCbIKv-NoqNvATO7PxBo2GvpGMHww_GgPd8VAZKDqD4ks94pWxFyIFRR5IDtLRvDdLqsjGDydQebBdOIzOAHq2Gc5EcWWISaOSoRey3neqmttntU5PLJt8p7WGFwVmqRysU1cADf1rlCFK8jCmLdWOv9SNRVH4xaK8Sdl5KRAAqQx323rHmpFpm8rPCvme6krB7Ct6gz3vOSwlCBNu4XT-oO8e7zDRKgsDq9YJNbWyFjJBVOpM15RoLwkIhpAsv0CKHrkKEwncACvFsRXL9qEwNbLlhUh-nLYV_1m00]--></g></svg>