<svg xmlns="http://www.w3.org/2000/svg" xmlns:xlink="http://www.w3.org/1999/xlink" contentStyleType="text/css" height="488px" preserveAspectRatio="none" style="width:1515px;height:488px;" version="1.1" viewBox="0 0 1515 488" width="1515px" zoomAndPan="magnify"><defs/><g><rect fill="#957DAD" height="308.4609" style="stroke:#957DAD;stroke-width:1.0;" width="10" x="143.7578" y="90.1328"/><rect fill="#957DAD" height="29.1328" style="stroke:#957DAD;stroke-width:1.0;" width="10" x="999.6958" y="153.3984"/><rect fill="#957DAD" height="29.1328" style="stroke:#957DAD;stroke-width:1.0;" width="10" x="1122.5669" y="211.6641"/><rect fill="#957DAD" height="128.6641" style="stroke:#957DAD;stroke-width:1.0;" width="10" x="1216.5784" y="269.9297"/><rect fill="#957DAD" height="99.5313" style="stroke:#957DAD;stroke-width:1.0;" width="10" x="1443.2742" y="299.0625"/><rect fill="#353446" height="77.5313" style="stroke:#957DAD;stroke-width:1.5;" width="324.3057" x="1183.9421" y="314.0625"/><rect fill="#353446" height="31.1328" style="stroke:none;stroke-width:1.0;" width="324.3057" x="1183.9421" y="360.4609"/><line style="stroke:#957DAD;stroke-width:0.5;stroke-dasharray:5.0,5.0;" x1="41" x2="41" y1="80.1328" y2="408.5938"/><line style="stroke:#957DAD;stroke-width:0.5;stroke-dasharray:5.0,5.0;" x1="147.8662" x2="147.8662" y1="80.1328" y2="408.5938"/><line style="stroke:#957DAD;stroke-width:0.5;stroke-dasharray:5.0,5.0;" x1="715.9822" x2="715.9822" y1="80.1328" y2="408.5938"/><line style="stroke:#957DAD;stroke-width:0.5;stroke-dasharray:5.0,5.0;" x1="859.8918" x2="859.8918" y1="80.1328" y2="408.5938"/><line style="stroke:#957DAD;stroke-width:0.5;stroke-dasharray:5.0,5.0;" x1="1004.2" x2="1004.2" y1="80.1328" y2="408.5938"/><line style="stroke:#957DAD;stroke-width:0.5;stroke-dasharray:5.0,5.0;" x1="1127.1917" x2="1127.1917" y1="80.1328" y2="408.5938"/><line style="stroke:#957DAD;stroke-width:0.5;stroke-dasharray:5.0,5.0;" x1="1220.9421" x2="1220.9421" y1="80.1328" y2="408.5938"/><line style="stroke:#957DAD;stroke-width:0.5;stroke-dasharray:5.0,5.0;" x1="1447.3005" x2="1447.3005" y1="80.1328" y2="408.5938"/><text fill="#EDEDED" font-family="Calibri" font-size="13" lengthAdjust="spacing" textLength="66.8662" x="5" y="77.0669">Utilisateur</text><ellipse cx="41.4331" cy="13.5" fill="#353446" rx="8" ry="8" style="stroke:#957DAD;stroke-width:0.5;"/><path d="M41.4331,21.5 L41.4331,48.5 M28.4331,29.5 L54.4331,29.5 M41.4331,48.5 L28.4331,63.5 M41.4331,48.5 L54.4331,63.5 " fill="none" style="stroke:#957DAD;stroke-width:0.5;"/><text fill="#EDEDED" font-family="Calibri" font-size="13" lengthAdjust="spacing" textLength="66.8662" x="5" y="419.6606">Utilisateur</text><ellipse cx="41.4331" cy="431.2266" fill="#353446" rx="8" ry="8" style="stroke:#957DAD;stroke-width:0.5;"/><path d="M41.4331,439.2266 L41.4331,466.2266 M28.4331,447.2266 L54.4331,447.2266 M41.4331,466.2266 L28.4331,481.2266 M41.4331,466.2266 L54.4331,481.2266 " fill="none" style="stroke:#957DAD;stroke-width:0.5;"/><rect fill="#625D92" height="29.1328" rx="2.5" ry="2.5" style="stroke:#957DAD;stroke-width:0.5;" width="121.7832" x="87.8662" y="50"/><text fill="#FFFFFF" font-family="Calibri" font-size="13" lengthAdjust="spacing" textLength="107.7832" x="94.8662" y="69.0669">_handleMessage</text><rect fill="#625D92" height="29.1328" rx="2.5" ry="2.5" style="stroke:#957DAD;stroke-width:0.5;" width="121.7832" x="87.8662" y="407.5938"/><text fill="#FFFFFF" font-family="Calibri" font-size="13" lengthAdjust="spacing" textLength="107.7832" x="94.8662" y="426.6606">_handleMessage</text><rect fill="#625D92" height="29.1328" rx="2.5" ry="2.5" style="stroke:#957DAD;stroke-width:0.5;" width="110.9097" x="660.9822" y="50"/><text fill="#FFFFFF" font-family="Calibri" font-size="13" lengthAdjust="spacing" textLength="96.9097" x="667.9822" y="69.0669">SignalMessage</text><rect fill="#625D92" height="29.1328" rx="2.5" ry="2.5" style="stroke:#957DAD;stroke-width:0.5;" width="110.9097" x="660.9822" y="407.5938"/><text fill="#FFFFFF" font-family="Calibri" font-size="13" lengthAdjust="spacing" textLength="96.9097" x="667.9822" y="426.6606">SignalMessage</text><rect fill="#625D92" height="29.1328" rx="2.5" ry="2.5" style="stroke:#957DAD;stroke-width:0.5;" width="156.3081" x="781.8918" y="50"/><text fill="#FFFFFF" font-family="Calibri" font-size="13" lengthAdjust="spacing" textLength="142.3081" x="788.8918" y="69.0669">PreKeySignalMessage</text><rect fill="#625D92" height="29.1328" rx="2.5" ry="2.5" style="stroke:#957DAD;stroke-width:0.5;" width="156.3081" x="781.8918" y="407.5938"/><text fill="#FFFFFF" font-family="Calibri" font-size="13" lengthAdjust="spacing" textLength="142.3081" x="788.8918" y="426.6606">PreKeySignalMessage</text><rect fill="#625D92" height="29.1328" rx="2.5" ry="2.5" style="stroke:#957DAD;stroke-width:0.5;" width="112.9917" x="948.2" y="50"/><text fill="#FFFFFF" font-family="Calibri" font-size="13" lengthAdjust="spacing" textLength="98.9917" x="955.2" y="69.0669">_signalProvider</text><rect fill="#625D92" height="29.1328" rx="2.5" ry="2.5" style="stroke:#957DAD;stroke-width:0.5;" width="112.9917" x="948.2" y="407.5938"/><text fill="#FFFFFF" font-family="Calibri" font-size="13" lengthAdjust="spacing" textLength="98.9917" x="955.2" y="426.6606">_signalProvider</text><rect fill="#625D92" height="29.1328" rx="2.5" ry="2.5" style="stroke:#957DAD;stroke-width:0.5;" width="112.7505" x="1071.1917" y="50"/><text fill="#FFFFFF" font-family="Calibri" font-size="13" lengthAdjust="spacing" textLength="98.7505" x="1078.1917" y="69.0669">_getUserRealm</text><rect fill="#625D92" height="29.1328" rx="2.5" ry="2.5" style="stroke:#957DAD;stroke-width:0.5;" width="112.7505" x="1071.1917" y="407.5938"/><text fill="#FFFFFF" font-family="Calibri" font-size="13" lengthAdjust="spacing" textLength="98.7505" x="1078.1917" y="426.6606">_getUserRealm</text><rect fill="#625D92" height="29.1328" rx="2.5" ry="2.5" style="stroke:#957DAD;stroke-width:0.5;" width="55.2725" x="1193.9421" y="50"/><text fill="#FFFFFF" font-family="Calibri" font-size="13" lengthAdjust="spacing" textLength="41.2725" x="1200.9421" y="69.0669">Realm</text><rect fill="#625D92" height="29.1328" rx="2.5" ry="2.5" style="stroke:#957DAD;stroke-width:0.5;" width="55.2725" x="1193.9421" y="407.5938"/><text fill="#FFFFFF" font-family="Calibri" font-size="13" lengthAdjust="spacing" textLength="41.2725" x="1200.9421" y="426.6606">Realm</text><rect fill="#625D92" height="29.1328" rx="2.5" ry="2.5" style="stroke:#957DAD;stroke-width:0.5;" width="99.9473" x="1398.3005" y="50"/><text fill="#FFFFFF" font-family="Calibri" font-size="13" lengthAdjust="spacing" textLength="85.9473" x="1405.3005" y="69.0669">Conversation</text><rect fill="#625D92" height="29.1328" rx="2.5" ry="2.5" style="stroke:#957DAD;stroke-width:0.5;" width="99.9473" x="1398.3005" y="407.5938"/><text fill="#FFFFFF" font-family="Calibri" font-size="13" lengthAdjust="spacing" textLength="85.9473" x="1405.3005" y="426.6606">Conversation</text><rect fill="#957DAD" height="308.4609" style="stroke:#957DAD;stroke-width:1.0;" width="10" x="143.7578" y="90.1328"/><rect fill="#957DAD" height="29.1328" style="stroke:#957DAD;stroke-width:1.0;" width="10" x="999.6958" y="153.3984"/><rect fill="#957DAD" height="29.1328" style="stroke:#957DAD;stroke-width:1.0;" width="10" x="1122.5669" y="211.6641"/><rect fill="#957DAD" height="128.6641" style="stroke:#957DAD;stroke-width:1.0;" width="10" x="1216.5784" y="269.9297"/><rect fill="#957DAD" height="99.5313" style="stroke:#957DAD;stroke-width:1.0;" width="10" x="1443.2742" y="299.0625"/><line style="stroke:#625D92;stroke-width:1.0;" x1="153.7578" x2="195.7578" y1="111.2656" y2="111.2656"/><line style="stroke:#625D92;stroke-width:1.0;" x1="195.7578" x2="195.7578" y1="111.2656" y2="124.2656"/><line style="stroke:#625D92;stroke-width:1.0;" x1="154.7578" x2="195.7578" y1="124.2656" y2="124.2656"/><polygon fill="#625D92" points="164.7578,120.2656,154.7578,124.2656,164.7578,128.2656,160.7578,124.2656" style="stroke:#625D92;stroke-width:1.0;"/><text fill="#EDEDED" font-family="Calibri" font-size="13" lengthAdjust="spacing" textLength="533.6792" x="160.7578" y="106.1997">Traitement du JSON (cr&#233;ation d'un objet SignalMessage ou PreKeySignalMessage)</text><polygon fill="#625D92" points="987.6958,149.3984,997.6958,153.3984,987.6958,157.3984,991.6958,153.3984" style="stroke:#625D92;stroke-width:1.0;"/><line style="stroke:#625D92;stroke-width:1.0;" x1="153.7578" x2="993.6958" y1="153.3984" y2="153.3984"/><text fill="#EDEDED" font-family="Calibri" font-size="13" lengthAdjust="spacing" textLength="176.6807" x="160.7578" y="148.3325">D&#233;chiffrement du message</text><polygon fill="#625D92" points="164.7578,178.5313,154.7578,182.5313,164.7578,186.5313,160.7578,182.5313" style="stroke:#625D92;stroke-width:1.0;"/><line style="stroke:#625D92;stroke-width:1.0;stroke-dasharray:2.0,2.0;" x1="158.7578" x2="1003.6958" y1="182.5313" y2="182.5313"/><text fill="#EDEDED" font-family="Calibri" font-size="13" lengthAdjust="spacing" textLength="171.0757" x="170.7578" y="177.4653">Envoi du message en clair</text><polygon fill="#625D92" points="1110.5669,207.6641,1120.5669,211.6641,1110.5669,215.6641,1114.5669,211.6641" style="stroke:#625D92;stroke-width:1.0;"/><line style="stroke:#625D92;stroke-width:1.0;" x1="153.7578" x2="1116.5669" y1="211.6641" y2="211.6641"/><text fill="#EDEDED" font-family="Calibri" font-size="13" lengthAdjust="spacing" textLength="250.1992" x="160.7578" y="206.5981">R&#233;cup&#233;ration du Realm de l'utilisateur</text><polygon fill="#625D92" points="164.7578,236.7969,154.7578,240.7969,164.7578,244.7969,160.7578,240.7969" style="stroke:#625D92;stroke-width:1.0;"/><line style="stroke:#625D92;stroke-width:1.0;stroke-dasharray:2.0,2.0;" x1="158.7578" x2="1126.5669" y1="240.7969" y2="240.7969"/><text fill="#EDEDED" font-family="Calibri" font-size="13" lengthAdjust="spacing" textLength="236.1074" x="170.7578" y="235.731">Retourne la base de donn&#233;es Realm</text><polygon fill="#625D92" points="1204.5784,265.9297,1214.5784,269.9297,1204.5784,273.9297,1208.5784,269.9297" style="stroke:#625D92;stroke-width:1.0;"/><line style="stroke:#625D92;stroke-width:1.0;" x1="153.7578" x2="1210.5784" y1="269.9297" y2="269.9297"/><text fill="#EDEDED" font-family="Calibri" font-size="13" lengthAdjust="spacing" textLength="186.3608" x="160.7578" y="264.8638">&#201;criture du message en clair</text><polygon fill="#625D92" points="1431.2742,295.0625,1441.2742,299.0625,1431.2742,303.0625,1435.2742,299.0625" style="stroke:#625D92;stroke-width:1.0;"/><line style="stroke:#625D92;stroke-width:1.0;" x1="1226.5784" x2="1437.2742" y1="299.0625" y2="299.0625"/><text fill="#EDEDED" font-family="Calibri" font-size="13" lengthAdjust="spacing" textLength="193.3877" x="1233.5784" y="293.9966">Recherche de la conversation</text><path d="M1183.9421,314.0625 L1248.385,314.0625 L1248.385,321.1953 L1238.385,331.1953 L1183.9421,331.1953 L1183.9421,314.0625 " fill="#625D92" style="stroke:#957DAD;stroke-width:1.5;"/><rect fill="none" height="77.5313" style="stroke:#957DAD;stroke-width:1.5;" width="324.3057" x="1183.9421" y="314.0625"/><text fill="#FFFFFF" font-family="Calibri" font-size="13" font-weight="bold" lengthAdjust="spacing" textLength="19.4429" x="1198.9421" y="327.1294">alt</text><text fill="#EDEDED" font-family="Calibri" font-size="13" font-weight="bold" lengthAdjust="spacing" textLength="168.2891" x="1263.385" y="328.1294">[conversation trouv&#233;e]</text><polygon fill="#625D92" points="1237.5784,348.4609,1227.5784,352.4609,1237.5784,356.4609,1233.5784,352.4609" style="stroke:#625D92;stroke-width:1.0;"/><line style="stroke:#625D92;stroke-width:1.0;" x1="1231.5784" x2="1442.2742" y1="352.4609" y2="352.4609"/><text fill="#EDEDED" font-family="Calibri" font-size="13" lengthAdjust="spacing" textLength="116.9746" x="1243.5784" y="347.395">Ajout du message</text><line style="stroke:#957DAD;stroke-width:1.0;stroke-dasharray:2.0,2.0;" x1="1183.9421" x2="1508.2478" y1="361.4609" y2="361.4609"/><polygon fill="#625D92" points="1237.5784,379.5938,1227.5784,383.5938,1237.5784,387.5938,1233.5784,383.5938" style="stroke:#625D92;stroke-width:1.0;"/><line style="stroke:#625D92;stroke-width:1.0;" x1="1231.5784" x2="1442.2742" y1="383.5938" y2="383.5938"/><text fill="#EDEDED" font-family="Calibri" font-size="13" lengthAdjust="spacing" textLength="192.6958" x="1243.5784" y="378.5278">Cr&#233;ation et ajout du message</text><!--SRC=[ZLVTRjis5BxNKp3fHRQBNZG_7J9W1MJ9wRgcTYOdm7OLqDAnmvOcFOfoaGrxW3rAdiClDahK3oc9OYmuYFbzEj_v3Wz9wII33M60xf9FNyBapyTeURjCq9ltvrVnzNbmKgEhURHSn0P-SNLnUVc-nSCecY_k6_3wwgSuZ5lmVlx7_MCl_ZmkBvio48akowibpPDacJHOV7xzRXO5mHcADRe51W9JTC22u3M576suG2cdwkyUKv0I5Fd4pkCNT5fRFIt1VWObh9rMiEMonBJH2XinMJAqpuunfg1jLfnP67t-c2mV5h61dy_AgyBD4fIGhi9fqDPe440ApF8z5i1aa7yZJFsBT-YVO8RJRrl12vP5LOdwDmQh9vpnxuHjqGRJ789G2FvTSosR6hZXJ6fmM8YEiI9_0tft4GHgpd11PJcsm3j04QPaBOWvtd2D8QU0UPjyfe0O5pjCWp2LNFITzgQW9d6HWT04SverEYaUH7otvqmLsAVK4LrgBMDQCSOIht4EFi6Mvz9h2DDoeP1aWrEllvRdB6PDc9PRyCphhEAuP4fmMk8XX_GLzMjeBg4QdzQwuLJTxPEgMIub3Nk4rChsMj8afqo9Jgiaa4hCjjIhr15TQYt3qtxRLwmjJN8stjQxfcPbR2oUVK8jpwNL47oR1fE2K_-MeMdk3QF2fxNcJ1BfDLQpN4eQdXRwn2G8jS2zlT4HNN8jOrhnJWdXhLUleRdKQdnQw_S22g-I9hbqAdHQ9OWeplE-Z4tI56TFb6WdykQc-kZXK4f1reM48Qu8lCYy3LcHtD8AdVQtKkVfAsQieRcKQdnQwnQlWNgVT3JB41fdUAH0RJ7UwjKiboaD-qv7EIXUx_IJKqUZEVNzzDGwK2TqIlPukE7QQPX4zw9gEIFTjeA_2c0fV5GQ-sanc-hi29FrAs3hl1p8tfAD-ZBmXck9KpN_LwrRN3ufeWT9ACcnX484-wu0wF49iup25yXprROMj29RXkaOSYVWCpoxySUyWku4Fn3bmiQs8DNpYKW0qvs534VKAN80eR8cd5L6o44vwETi_qHlF_G8w6TqBp2Hi5E7BSeAzDjgkK0_fEBuKaL6sLd145z_XPvdn8ingp-EATgEbMHyV4cVo6OZMjbTdM_derUcVf2tOrRcxC294Gu1God5H0GPE2EFPMpEWugRg7oB_V55r3Kfz7oW310zAupkwKIicRJZZQQUWEI5K6-35AFowRwCdN76ZY_ghLX7CJrOuKSSD9aV_qi5aOM0qQgqyNISEhqFLczLkQLF8DItCepL2xhHUcsCNaDIQV7KIoql3ifDO0KtKWs_yiBg1IXVOLtigErGrPbuS2lB0hDULcx6-B2mLYN_1m00]--></g></svg>