<svg xmlns="http://www.w3.org/2000/svg" xmlns:xlink="http://www.w3.org/1999/xlink" contentStyleType="text/css" height="636px" preserveAspectRatio="none" style="width:1673px;height:636px;" version="1.1" viewBox="0 0 1673 636" width="1673px" zoomAndPan="magnify"><defs/><g><rect fill="#957DAD" height="420.125" style="stroke:#957DAD;stroke-width:1.0;" width="10" x="136.8516" y="111.2656"/><rect fill="#957DAD" height="58.2656" style="stroke:#957DAD;stroke-width:1.0;" width="10" x="445.0068" y="252.0625"/><rect fill="#957DAD" height="169.9297" style="stroke:#957DAD;stroke-width:1.0;" width="10" x="1057.1765" y="169.5313"/><rect fill="#353446" height="325.7266" style="stroke:#957DAD;stroke-width:1.5;" width="1598.74" x="67.8662" y="213.6641"/><rect fill="#353446" height="46.3984" style="stroke:#957DAD;stroke-width:1.5;" width="867.0642" x="77.8662" y="425.7266"/><rect fill="#353446" height="31.1328" style="stroke:none;stroke-width:1.0;" width="1598.74" x="67.8662" y="508.2578"/><line style="stroke:#957DAD;stroke-width:0.5;stroke-dasharray:5.0,5.0;" x1="41" x2="41" y1="80.1328" y2="556.3906"/><line style="stroke:#957DAD;stroke-width:0.5;stroke-dasharray:5.0,5.0;" x1="140.8662" x2="140.8662" y1="80.1328" y2="556.3906"/><line style="stroke:#957DAD;stroke-width:0.5;stroke-dasharray:5.0,5.0;" x1="449.5549" x2="449.5549" y1="80.1328" y2="556.3906"/><line style="stroke:#957DAD;stroke-width:0.5;stroke-dasharray:5.0,5.0;" x1="637.4587" x2="637.4587" y1="80.1328" y2="556.3906"/><line style="stroke:#957DAD;stroke-width:0.5;stroke-dasharray:5.0,5.0;" x1="839.0432" x2="839.0432" y1="80.1328" y2="556.3906"/><line style="stroke:#957DAD;stroke-width:0.5;stroke-dasharray:5.0,5.0;" x1="1061.9304" x2="1061.9304" y1="80.1328" y2="556.3906"/><line style="stroke:#957DAD;stroke-width:0.5;stroke-dasharray:5.0,5.0;" x1="1286.4226" x2="1286.4226" y1="80.1328" y2="556.3906"/><line style="stroke:#957DAD;stroke-width:0.5;stroke-dasharray:5.0,5.0;" x1="1502.512" x2="1502.512" y1="80.1328" y2="556.3906"/><line style="stroke:#957DAD;stroke-width:0.5;stroke-dasharray:5.0,5.0;" x1="1639.0398" x2="1639.0398" y1="80.1328" y2="556.3906"/><text fill="#EDEDED" font-family="Calibri" font-size="13" lengthAdjust="spacing" textLength="66.8662" x="5" y="77.0669">Utilisateur</text><ellipse cx="41.4331" cy="13.5" fill="#353446" rx="8" ry="8" style="stroke:#957DAD;stroke-width:0.5;"/><path d="M41.4331,21.5 L41.4331,48.5 M28.4331,29.5 L54.4331,29.5 M41.4331,48.5 L28.4331,63.5 M41.4331,48.5 L54.4331,63.5 " fill="none" style="stroke:#957DAD;stroke-width:0.5;"/><text fill="#EDEDED" font-family="Calibri" font-size="13" lengthAdjust="spacing" textLength="66.8662" x="5" y="567.4575">Utilisateur</text><ellipse cx="41.4331" cy="579.0234" fill="#353446" rx="8" ry="8" style="stroke:#957DAD;stroke-width:0.5;"/><path d="M41.4331,587.0234 L41.4331,614.0234 M28.4331,595.0234 L54.4331,595.0234 M41.4331,614.0234 L28.4331,629.0234 M41.4331,614.0234 L54.4331,629.0234 " fill="none" style="stroke:#957DAD;stroke-width:0.5;"/><rect fill="#625D92" height="29.1328" rx="2.5" ry="2.5" style="stroke:#957DAD;stroke-width:0.5;" width="107.9707" x="87.8662" y="50"/><text fill="#FFFFFF" font-family="Calibri" font-size="13" lengthAdjust="spacing" textLength="93.9707" x="94.8662" y="69.0669">SignalProvider</text><rect fill="#625D92" height="29.1328" rx="2.5" ry="2.5" style="stroke:#957DAD;stroke-width:0.5;" width="107.9707" x="87.8662" y="555.3906"/><text fill="#FFFFFF" font-family="Calibri" font-size="13" lengthAdjust="spacing" textLength="93.9707" x="94.8662" y="574.4575">SignalProvider</text><rect fill="#625D92" height="29.1328" rx="2.5" ry="2.5" style="stroke:#957DAD;stroke-width:0.5;" width="160.9038" x="369.5549" y="50"/><text fill="#FFFFFF" font-family="Calibri" font-size="13" lengthAdjust="spacing" textLength="146.9038" x="376.5549" y="69.0669">libsignal_protocol_dart</text><rect fill="#625D92" height="29.1328" rx="2.5" ry="2.5" style="stroke:#957DAD;stroke-width:0.5;" width="160.9038" x="369.5549" y="555.3906"/><text fill="#FFFFFF" font-family="Calibri" font-size="13" lengthAdjust="spacing" textLength="146.9038" x="376.5549" y="574.4575">libsignal_protocol_dart</text><rect fill="#625D92" height="29.1328" rx="2.5" ry="2.5" style="stroke:#957DAD;stroke-width:0.5;" width="194.5845" x="540.4587" y="50"/><text fill="#FFFFFF" font-family="Calibri" font-size="13" lengthAdjust="spacing" textLength="180.5845" x="547.4587" y="69.0669">NamespacedSecureStorage</text><rect fill="#625D92" height="29.1328" rx="2.5" ry="2.5" style="stroke:#957DAD;stroke-width:0.5;" width="194.5845" x="540.4587" y="555.3906"/><text fill="#FFFFFF" font-family="Calibri" font-size="13" lengthAdjust="spacing" textLength="180.5845" x="547.4587" y="574.4575">NamespacedSecureStorage</text><rect fill="#625D92" height="29.1328" rx="2.5" ry="2.5" style="stroke:#957DAD;stroke-width:0.5;" width="189.8872" x="745.0432" y="50"/><text fill="#FFFFFF" font-family="Calibri" font-size="13" lengthAdjust="spacing" textLength="175.8872" x="752.0432" y="69.0669">SecureStoragePreKeyStore</text><rect fill="#625D92" height="29.1328" rx="2.5" ry="2.5" style="stroke:#957DAD;stroke-width:0.5;" width="189.8872" x="745.0432" y="555.3906"/><text fill="#FFFFFF" font-family="Calibri" font-size="13" lengthAdjust="spacing" textLength="175.8872" x="752.0432" y="574.4575">SecureStoragePreKeyStore</text><rect fill="#625D92" height="29.1328" rx="2.5" ry="2.5" style="stroke:#957DAD;stroke-width:0.5;" width="234.4922" x="944.9304" y="50"/><text fill="#FFFFFF" font-family="Calibri" font-size="13" lengthAdjust="spacing" textLength="220.4922" x="951.9304" y="69.0669">SecureStorageSignedPreKeyStore</text><rect fill="#625D92" height="29.1328" rx="2.5" ry="2.5" style="stroke:#957DAD;stroke-width:0.5;" width="234.4922" x="944.9304" y="555.3906"/><text fill="#FFFFFF" font-family="Calibri" font-size="13" lengthAdjust="spacing" textLength="220.4922" x="951.9304" y="574.4575">SecureStorageSignedPreKeyStore</text><rect fill="#625D92" height="29.1328" rx="2.5" ry="2.5" style="stroke:#957DAD;stroke-width:0.5;" width="194.0894" x="1189.4226" y="50"/><text fill="#FFFFFF" font-family="Calibri" font-size="13" lengthAdjust="spacing" textLength="180.0894" x="1196.4226" y="69.0669">SecureStorageSessionStore</text><rect fill="#625D92" height="29.1328" rx="2.5" ry="2.5" style="stroke:#957DAD;stroke-width:0.5;" width="194.0894" x="1189.4226" y="555.3906"/><text fill="#FFFFFF" font-family="Calibri" font-size="13" lengthAdjust="spacing" textLength="180.0894" x="1196.4226" y="574.4575">SecureStorageSessionStore</text><rect fill="#625D92" height="29.1328" rx="2.5" ry="2.5" style="stroke:#957DAD;stroke-width:0.5;" width="218.5278" x="1393.512" y="50"/><text fill="#FFFFFF" font-family="Calibri" font-size="13" lengthAdjust="spacing" textLength="204.5278" x="1400.512" y="69.0669">SecureStorageIdentityKeyStore</text><rect fill="#625D92" height="29.1328" rx="2.5" ry="2.5" style="stroke:#957DAD;stroke-width:0.5;" width="218.5278" x="1393.512" y="555.3906"/><text fill="#FFFFFF" font-family="Calibri" font-size="13" lengthAdjust="spacing" textLength="204.5278" x="1400.512" y="574.4575">SecureStorageIdentityKeyStore</text><rect fill="#625D92" height="29.1328" rx="2.5" ry="2.5" style="stroke:#957DAD;stroke-width:0.5;" width="34.5664" x="1622.0398" y="50"/><text fill="#FFFFFF" font-family="Calibri" font-size="13" lengthAdjust="spacing" textLength="20.5664" x="1629.0398" y="69.0669">API</text><rect fill="#625D92" height="29.1328" rx="2.5" ry="2.5" style="stroke:#957DAD;stroke-width:0.5;" width="34.5664" x="1622.0398" y="555.3906"/><text fill="#FFFFFF" font-family="Calibri" font-size="13" lengthAdjust="spacing" textLength="20.5664" x="1629.0398" y="574.4575">API</text><rect fill="#957DAD" height="420.125" style="stroke:#957DAD;stroke-width:1.0;" width="10" x="136.8516" y="111.2656"/><rect fill="#957DAD" height="58.2656" style="stroke:#957DAD;stroke-width:1.0;" width="10" x="445.0068" y="252.0625"/><rect fill="#957DAD" height="169.9297" style="stroke:#957DAD;stroke-width:1.0;" width="10" x="1057.1765" y="169.5313"/><polygon fill="#625D92" points="157.8516,107.2656,147.8516,111.2656,157.8516,115.2656,153.8516,111.2656" style="stroke:#625D92;stroke-width:1.0;"/><polygon fill="#625D92" points="625.751,107.2656,635.751,111.2656,625.751,115.2656,629.751,111.2656" style="stroke:#625D92;stroke-width:1.0;"/><line style="stroke:#625D92;stroke-width:1.0;" x1="151.8516" x2="631.751" y1="111.2656" y2="111.2656"/><text fill="#EDEDED" font-family="Calibri" font-size="13" lengthAdjust="spacing" textLength="284.3242" x="163.8516" y="106.1997">Initialisation de NamespacedSecureStorage</text><polygon fill="#625D92" points="157.8516,136.3984,147.8516,140.3984,157.8516,144.3984,153.8516,140.3984" style="stroke:#625D92;stroke-width:1.0;"/><polygon fill="#625D92" points="827.9868,136.3984,837.9868,140.3984,827.9868,144.3984,831.9868,140.3984" style="stroke:#625D92;stroke-width:1.0;"/><line style="stroke:#625D92;stroke-width:1.0;" x1="151.8516" x2="833.9868" y1="140.3984" y2="140.3984"/><text fill="#EDEDED" font-family="Calibri" font-size="13" lengthAdjust="spacing" textLength="507.5332" x="163.8516" y="135.3325">Initialisation de SecureStoragePreKeyStore avec NamedspacedSecureStorage</text><polygon fill="#625D92" points="157.8516,165.5313,147.8516,169.5313,157.8516,173.5313,153.8516,169.5313" style="stroke:#625D92;stroke-width:1.0;"/><polygon fill="#625D92" points="1045.1765,165.5313,1055.1765,169.5313,1045.1765,173.5313,1049.1765,169.5313" style="stroke:#625D92;stroke-width:1.0;"/><line style="stroke:#625D92;stroke-width:1.0;" x1="151.8516" x2="1051.1765" y1="169.5313" y2="169.5313"/><text fill="#EDEDED" font-family="Calibri" font-size="13" lengthAdjust="spacing" textLength="552.1382" x="163.8516" y="164.4653">Initialisation de SecureStorageSignedPreKeyStore avec NamedspacedSecureStorage</text><polygon fill="#625D92" points="157.8516,194.6641,147.8516,198.6641,157.8516,202.6641,153.8516,198.6641" style="stroke:#625D92;stroke-width:1.0;"/><polygon fill="#625D92" points="1274.4673,194.6641,1284.4673,198.6641,1274.4673,202.6641,1278.4673,198.6641" style="stroke:#625D92;stroke-width:1.0;"/><line style="stroke:#625D92;stroke-width:1.0;" x1="151.8516" x2="1280.4673" y1="198.6641" y2="198.6641"/><text fill="#EDEDED" font-family="Calibri" font-size="13" lengthAdjust="spacing" textLength="511.7354" x="163.8516" y="193.5981">Initialisation de SecureStorageSessionStore avec NamedspacedSecureStorage</text><path d="M67.8662,213.6641 L132.3091,213.6641 L132.3091,220.7969 L122.3091,230.7969 L67.8662,230.7969 L67.8662,213.6641 " fill="#625D92" style="stroke:#957DAD;stroke-width:1.5;"/><rect fill="none" height="325.7266" style="stroke:#957DAD;stroke-width:1.5;" width="1598.74" x="67.8662" y="213.6641"/><text fill="#FFFFFF" font-family="Calibri" font-size="13" font-weight="bold" lengthAdjust="spacing" textLength="19.4429" x="82.8662" y="226.731">alt</text><text fill="#EDEDED" font-family="Calibri" font-size="13" font-weight="bold" lengthAdjust="spacing" textLength="415.981" x="147.3091" y="227.731">[L'utilisateur installe l'application (premi&#232;re connexion)]</text><polygon fill="#625D92" points="157.8516,248.0625,147.8516,252.0625,157.8516,256.0625,153.8516,252.0625" style="stroke:#625D92;stroke-width:1.0;"/><polygon fill="#625D92" points="433.0068,248.0625,443.0068,252.0625,433.0068,256.0625,437.0068,252.0625" style="stroke:#625D92;stroke-width:1.0;"/><line style="stroke:#625D92;stroke-width:1.0;" x1="151.8516" x2="439.0068" y1="252.0625" y2="252.0625"/><text fill="#EDEDED" font-family="Calibri" font-size="13" lengthAdjust="spacing" textLength="167.8384" x="163.8516" y="246.9966">generateIdentityKeyPair()</text><polygon fill="#625D92" points="157.8516,277.1953,147.8516,281.1953,157.8516,285.1953,153.8516,281.1953" style="stroke:#625D92;stroke-width:1.0;"/><polygon fill="#625D92" points="433.0068,277.1953,443.0068,281.1953,433.0068,285.1953,437.0068,281.1953" style="stroke:#625D92;stroke-width:1.0;"/><line style="stroke:#625D92;stroke-width:1.0;" x1="151.8516" x2="439.0068" y1="281.1953" y2="281.1953"/><text fill="#EDEDED" font-family="Calibri" font-size="13" lengthAdjust="spacing" textLength="191.0264" x="163.8516" y="276.1294">generateRegistrationId(false)</text><polygon fill="#625D92" points="157.8516,306.3281,147.8516,310.3281,157.8516,314.3281,153.8516,310.3281" style="stroke:#625D92;stroke-width:1.0;"/><polygon fill="#625D92" points="438.0068,306.3281,448.0068,310.3281,438.0068,314.3281,442.0068,310.3281" style="stroke:#625D92;stroke-width:1.0;"/><line style="stroke:#625D92;stroke-width:1.0;" x1="151.8516" x2="444.0068" y1="310.3281" y2="310.3281"/><text fill="#EDEDED" font-family="Calibri" font-size="13" lengthAdjust="spacing" textLength="274.1553" x="163.8516" y="305.2622">generateSignedPreKey(identityKeyPair, 0)</text><polygon fill="#625D92" points="157.8516,335.4609,147.8516,339.4609,157.8516,343.4609,153.8516,339.4609" style="stroke:#625D92;stroke-width:1.0;"/><polygon fill="#625D92" points="1050.1765,335.4609,1060.1765,339.4609,1050.1765,343.4609,1054.1765,339.4609" style="stroke:#625D92;stroke-width:1.0;"/><line style="stroke:#625D92;stroke-width:1.0;" x1="151.8516" x2="1056.1765" y1="339.4609" y2="339.4609"/><text fill="#EDEDED" font-family="Calibri" font-size="13" lengthAdjust="spacing" textLength="241.9663" x="163.8516" y="334.395">storeSignedPreKey(id, signedPreKey)</text><polygon fill="#625D92" points="1490.7759,364.5938,1500.7759,368.5938,1490.7759,372.5938,1494.7759,368.5938" style="stroke:#625D92;stroke-width:1.0;"/><line style="stroke:#625D92;stroke-width:1.0;" x1="146.8516" x2="1496.7759" y1="368.5938" y2="368.5938"/><text fill="#EDEDED" font-family="Calibri" font-size="13" lengthAdjust="spacing" textLength="368.1958" x="153.8516" y="363.5278">fromIdentityKeyPair(NSS, identityKeyPair, registrationId)</text><line style="stroke:#625D92;stroke-width:1.0;" x1="146.8516" x2="188.8516" y1="397.7266" y2="397.7266"/><line style="stroke:#625D92;stroke-width:1.0;" x1="188.8516" x2="188.8516" y1="397.7266" y2="410.7266"/><line style="stroke:#625D92;stroke-width:1.0;" x1="147.8516" x2="188.8516" y1="410.7266" y2="410.7266"/><polygon fill="#625D92" points="157.8516,406.7266,147.8516,410.7266,157.8516,414.7266,153.8516,410.7266" style="stroke:#625D92;stroke-width:1.0;"/><text fill="#EDEDED" font-family="Calibri" font-size="13" lengthAdjust="spacing" textLength="212.4624" x="153.8516" y="392.6606">G&#233;n&#232;re une centaine de pr&#233; cl&#233;s</text><path d="M77.8662,425.7266 L154.4902,425.7266 L154.4902,432.8594 L144.4902,442.8594 L77.8662,442.8594 L77.8662,425.7266 " fill="#625D92" style="stroke:#957DAD;stroke-width:1.5;"/><rect fill="none" height="46.3984" style="stroke:#957DAD;stroke-width:1.5;" width="867.0642" x="77.8662" y="425.7266"/><text fill="#FFFFFF" font-family="Calibri" font-size="13" font-weight="bold" lengthAdjust="spacing" textLength="31.624" x="92.8662" y="438.7935">loop</text><text fill="#EDEDED" font-family="Calibri" font-size="13" font-weight="bold" lengthAdjust="spacing" textLength="223.8438" x="169.4902" y="439.7935">[Pour chaque cl&#233; pr&#233;-g&#233;n&#233;r&#233;e]</text><polygon fill="#625D92" points="827.9868,460.125,837.9868,464.125,827.9868,468.125,831.9868,464.125" style="stroke:#625D92;stroke-width:1.0;"/><line style="stroke:#625D92;stroke-width:1.0;" x1="146.8516" x2="833.9868" y1="464.125" y2="464.125"/><text fill="#EDEDED" font-family="Calibri" font-size="13" lengthAdjust="spacing" textLength="129.4731" x="153.8516" y="459.0591">storePreKey(p.id, p)</text><polygon fill="#625D92" points="1627.323,496.2578,1637.323,500.2578,1627.323,504.2578,1631.323,500.2578" style="stroke:#625D92;stroke-width:1.0;"/><line style="stroke:#625D92;stroke-width:1.0;" x1="146.8516" x2="1633.323" y1="500.2578" y2="500.2578"/><text fill="#EDEDED" font-family="Calibri" font-size="13" lengthAdjust="spacing" textLength="335.6514" x="153.8516" y="495.1919">POST /users/$name/keys avec les donn&#233;es des cl&#233;s</text><line style="stroke:#957DAD;stroke-width:1.0;stroke-dasharray:2.0,2.0;" x1="67.8662" x2="1666.6062" y1="509.2578" y2="509.2578"/><polygon fill="#625D92" points="1490.7759,527.3906,1500.7759,531.3906,1490.7759,535.3906,1494.7759,531.3906" style="stroke:#625D92;stroke-width:1.0;"/><line style="stroke:#625D92;stroke-width:1.0;" x1="141.8516" x2="1496.7759" y1="531.3906" y2="531.3906"/><text fill="#EDEDED" font-family="Calibri" font-size="13" lengthAdjust="spacing" textLength="484.1484" x="148.8516" y="526.3247">Initialise SecureStorageIdentityKeyStore avec NameSpacedSecureStorage</text><!--SRC=[ZLXRRkCs5FtNAfXCWSH0fkdaCKK6RG57Tb9ZKjkr4g3z2cY9zX2XIGr5PPeMtK-pZcoibw8iwqNICUpOFEVot0SlAUaW8IlA2Pel9hyD5ty-XhExsGAz-tXsERew2mvAD1g7i-ceXfzVdbzSVApmOHYEf_TRyEhonz5mL87tup_k7rlpZqVwrQHqHC8B_Qf8uyLYjjXYexEh3zTX41oXaK7NX1E96Nh6ak8b8nbQ2ObYmU0pnOmeHO1yqFJZPtHOXdgemRO76ZQH5d0ZIesPG0ki9qZDC77k67qA9io2SpqCFzykPW_JKGq_kzQl0g-dG4Cc2uT1bQFE14fYdgLO4gw2x8bo-8etw9_W6iTFQobodeH5Yjg6GVG59-8RvMkqmYmZmL1AySrm6s4Qu4PmPS1k8dQCYFvDq8Vp882QuPmfFJR56u92pEXIqlhubbiRiWhKpTGB8uWBkS4i6CPAo7QahHAK924J8WsXNcQ3EiM3K6nImI71FgKTqQPMCToA8wpm4cV49rZnR7fRWbjkA1LTuTWRNyMp9hCakEMc8l56Ld1iCXfqIpna9DuZVrkQJQZ4tLetWe6rJwfasPGCx162plQ6P4XM6OswLHOaLfYlcLTfHxIfLGpFybllqLk6P5ruQszFNUkviNpn2LKyczQMuDiqk9A2-RSCGxDl60NkrXfpHPKti99bKpAmMsZ25P7GuDwriIFQv2g6Mt4EGdZjrTlIR6ebxjRwFIUvLycGR3e5wbO9GeQph2tJ91cATKreT2VoxgRuCyD3fIHTvefqSI28FF4ko89abmRK7Ly4v-aU5TlIR4ebxjQwmql2l5SwXbKJwcTuf0XiCTxibInRK0RsdOwgaxpMwQTSHsEzz6tte0_WX8vfYhiRRjEDEj7UL1MdPxL5v6jEU4nkGIDrYpMfrXLHP_rASEEyxCZUqHMyEV5ELn5TEVyN-XRhAqNqe2YZ6LOabq6wIm0wZEYQOpQNufc2u2726MeEDUbmFPmLy6CgXH9m7_C8XuegxExeqfWsJVILD5pgnoI9I9nBKhP8OJADefOxTSfSai_aHVymxDflXvNsWIHjsyweQmQIPLJmcd5jm64tIKXn6ZM4suDD- -5yKh26AOL5q4Wy-kdzBpf1w1EQSAeeBWe8Rg2484jITRNfCvIvNSIUgMkvw9MmbGBXPn8N3YHz7lGeTNBlr-kQk5KRSJVhtETGhPvx-59dkzq8C5FexYZVTHkYF5EOmSqVEy9focXiH8vJIJRqxJ-OCXQSaxzWSD3dQzLLuAXvcA3g2ssEgJmUxEBVDU6USot8ccPmEwwzcYJ7nLtrtexKitrCcrwTe1y6GKBsywnlYMJwVqlX16MrWSRytig3JBiPGMKbnQQTJ-Yw4zG9HpOoDUYPlZNo2Ts-lVAYnZc7EiDyM3yDWGMMohTN5BEtronWGgHeBc2fn5ymREx5S45ulzRch_2jBvQUP9LfIh_NYKe70PpQFOQmru31V1RTezCy8p8x_Ox3WZvz8Y-PMT_wCLK2gnA4uGkyZQT4Ft3PAwbLHxLQgKEjsYdgwQPMSMlR6GJsFm00]--></g></svg>