<svg xmlns="http://www.w3.org/2000/svg" xmlns:xlink="http://www.w3.org/1999/xlink" contentStyleType="text/css" height="258px" preserveAspectRatio="none" style="width:249px;height:258px;" version="1.1" viewBox="0 0 249 258" width="249px" zoomAndPan="magnify"><defs/><g><!--class PendingMessages--><g id="elem_PendingMessages"><rect codeLine="132" fill="#625D92" height="76.2656" id="PendingMessages" rx="2.5" ry="2.5" style="stroke:#957DAD;stroke-width:0.5;" width="235.2471" x="7" y="7"/><ellipse cx="62.533" cy="22" fill="#ADD1B2" rx="10" ry="10" style="stroke:#181818;stroke-width:1.0;"/><path d="M64.3455,26.1563 Q63.8611,26.4219 63.3455,26.5469 Q62.8298,26.6875 62.2517,26.6875 Q60.4236,26.6875 59.408,25.4063 Q58.408,24.1094 58.408,21.7656 Q58.408,19.4531 59.4236,18.1563 Q60.4392,16.8438 62.2517,16.8438 Q62.8298,16.8438 63.3455,16.9844 Q63.8611,17.1094 64.3455,17.375 L64.3455,18.6875 Q63.8767,18.2969 63.3298,18.0938 Q62.7986,17.8906 62.2517,17.8906 Q61.0017,17.8906 60.3767,18.8594 Q59.7517,19.8281 59.7517,21.7656 Q59.7517,23.7188 60.3767,24.6875 Q61.0017,25.6406 62.2517,25.6406 Q62.8142,25.6406 63.3455,25.4375 Q63.8767,25.2344 64.3455,24.8438 L64.3455,26.1563 Z " fill="#EDEDED"/><text fill="#FFFFFF" font-family="Calibri" font-size="13" lengthAdjust="spacing" textLength="116.1812" x="81.533" y="26.5005">PendingMessages</text><line style="stroke:#957DAD;stroke-width:0.5;" x1="8" x2="241.2471" y1="37" y2="37"/><text fill="#FFFFFF" font-family="Calibri" font-size="13" lengthAdjust="spacing" textLength="54.793" x="13" y="53.0669">String id</text><text fill="#FFFFFF" font-family="Calibri" font-size="13" lengthAdjust="spacing" textLength="223.2471" x="13" y="68.1997">List&lt;PendingMessage&gt; messages</text><line style="stroke:#957DAD;stroke-width:0.5;" x1="8" x2="241.2471" y1="75.2656" y2="75.2656"/></g><!--class PendingMessage--><g id="elem_PendingMessage"><rect codeLine="137" fill="#625D92" height="91.3984" id="PendingMessage" rx="2.5" ry="2.5" style="stroke:#957DAD;stroke-width:0.5;" width="178.3848" x="35.43" y="160.26"/><ellipse cx="66.9695" cy="175.26" fill="#ADD1B2" rx="10" ry="10" style="stroke:#181818;stroke-width:1.0;"/><path d="M68.782,179.4163 Q68.2976,179.6819 67.782,179.8069 Q67.2663,179.9475 66.6882,179.9475 Q64.8601,179.9475 63.8445,178.6663 Q62.8445,177.3694 62.8445,175.0256 Q62.8445,172.7131 63.8601,171.4163 Q64.8757,170.1038 66.6882,170.1038 Q67.2663,170.1038 67.782,170.2444 Q68.2976,170.3694 68.782,170.635 L68.782,171.9475 Q68.3132,171.5569 67.7663,171.3538 Q67.2351,171.1506 66.6882,171.1506 Q65.4382,171.1506 64.8132,172.1194 Q64.1882,173.0881 64.1882,175.0256 Q64.1882,176.9788 64.8132,177.9475 Q65.4382,178.9006 66.6882,178.9006 Q67.2507,178.9006 67.782,178.6975 Q68.3132,178.4944 68.782,178.1038 L68.782,179.4163 Z " fill="#EDEDED"/><text fill="#FFFFFF" font-family="Calibri" font-size="13" lengthAdjust="spacing" textLength="109.4082" x="83.8671" y="179.7605">PendingMessage</text><line style="stroke:#957DAD;stroke-width:0.5;" x1="36.43" x2="212.8148" y1="190.26" y2="190.26"/><text fill="#FFFFFF" font-family="Calibri" font-size="13" lengthAdjust="spacing" textLength="54.793" x="41.43" y="206.3269">String id</text><text fill="#FFFFFF" font-family="Calibri" font-size="13" lengthAdjust="spacing" textLength="166.3848" x="41.43" y="221.4597">String ciphertextMessage</text><text fill="#FFFFFF" font-family="Calibri" font-size="13" lengthAdjust="spacing" textLength="96.0654" x="41.43" y="236.5925">String receiver</text><line style="stroke:#957DAD;stroke-width:0.5;" x1="36.43" x2="212.8148" y1="243.6584" y2="243.6584"/></g><!--reverse link PendingMessages to PendingMessage--><g id="link_PendingMessages_PendingMessage"><path codeLine="143" d="M124.62,95.37 C124.62,118.29 124.62,135.82 124.62,160.03 " fill="none" id="PendingMessages-backto-PendingMessage" style="stroke:#625D92;stroke-width:1.0;"/><polygon fill="#625D92" points="124.62,83.37,120.62,89.37,124.62,95.37,128.62,89.37,124.62,83.37" style="stroke:#625D92;stroke-width:1.0;"/><text fill="#EDEDED" font-family="Calibri" font-size="13" lengthAdjust="spacing" textLength="55.0278" x="125.62" y="126.3269">contains</text><text fill="#EDEDED" font-family="Calibri" font-size="13" lengthAdjust="spacing" textLength="8.271" x="115.9552" y="103.3094">1</text><text fill="#EDEDED" font-family="Calibri" font-size="13" lengthAdjust="spacing" textLength="36.5625" x="86.0172" y="149.2592">many</text></g><!--SRC=[ZPTTJzim58RlyojCk9WqYGlAnyIqJKgJmj1AorAGjYla9gV58hKxnu6nQVzzTfoa-QXjg41LtYT-SaxiE1oai28Kq6ryVHF4Fn_2-NGUeyFpqLbqCV8EgdGn2UUpg9MVd9sSdfutUH26azbT7LwSVOY2g0dl9Z_k7dhZJoBrwI83INYgFWqqYUDvN6VHwE9u77hUEnJfT0qKECxGC-O4BpF8qOfnbB1C_jtY38G02Hzqh-CpygjIVHNshq35kj8oxbIfCbrecUqfKX6wpXsnpw3BB9bn47wxYkVtiwYLZyRgK-Rj5gX8Ty7tcXuD1X0SqtoBEL3XvK-4ogzuW_vwOvmyhJahQ1gMBUgVw2qUSSfU25sZ5Svoy0BEsOjcEsNgu99HeSDX8tR4Wlm1T7pYUVAUuI8JwjWCRm25E2DBJjh7QxPro2XedoPUCq2KyGtEl20HZFShxTs22c8y1Qw1zctMgLNkXMopPLGss6NQWIPRGzYD4HPuYNDm2HlEvAi1koxWWgnmugoluOpDh02xRiPIPsKbOzAeqAwupo5vG_zgp2IgShlhacNoR9Ugeamc7Jj4ScKxIzAGKQDIkoM6H62wpfoc7MYoDOHZ-gtViBOqP9nuQ-UQ6gknCNzrYHhEvAe1rqE32iuozoD3O-O7HfdRNHCgY70MLb4cauxjecigWCi5xfmREz2aQmYxyLQAyDhfgp6JhShjhky554wJXaoUChLRl333UTxNT26D6EU4IdUImyloHnyEXE1aMGWOvX9WHUgSa2LaLilKNjz2xgTlk6CrPZ9LkTqrnKl8d6ywccg9zXCE5SX7ZBDx5MKgIiUktL4CcjVR_OHjQspV-lxboNKWT-Y4RF7mWTkzZ3PeNbGDisUsBU1N0JI1A-dOscLTr3WZsjHNm9tzSg2TafNyfU0ShW5jFVydrssYrXUwbJTGlZJVG9xBwPdBD-s5N77oBPgatfJaubCN-88s5Qd6s3T4PuJgcspg8t01lqK5rG671CWpS3LO_qhyOn-zFpf2_WRJLxzl-IZ_LQ824vh_1m00]--></g></svg>