<svg xmlns="http://www.w3.org/2000/svg" xmlns:xlink="http://www.w3.org/1999/xlink" contentStyleType="text/css" height="501px" preserveAspectRatio="none" style="width:273px;height:501px;" version="1.1" viewBox="0 0 273 501" width="273px" zoomAndPan="magnify"><defs/><g><!--class _Conversation--><g id="elem__Conversation"><rect codeLine="133" fill="#625D92" height="76.2656" id="_Conversation" rx="2.5" ry="2.5" style="stroke:#957DAD;stroke-width:0.5;" width="259.4697" x="7" y="7"/><ellipse cx="86.5112" cy="22" fill="#ADD1B2" rx="10" ry="10" style="stroke:#181818;stroke-width:1.0;"/><path d="M88.3237,26.1563 Q87.8394,26.4219 87.3237,26.5469 Q86.8081,26.6875 86.23,26.6875 Q84.4019,26.6875 83.3862,25.4063 Q82.3862,24.1094 82.3862,21.7656 Q82.3862,19.4531 83.4019,18.1563 Q84.4175,16.8438 86.23,16.8438 Q86.8081,16.8438 87.3237,16.9844 Q87.8394,17.1094 88.3237,17.375 L88.3237,18.6875 Q87.855,18.2969 87.3081,18.0938 Q86.7769,17.8906 86.23,17.8906 Q84.98,17.8906 84.355,18.8594 Q83.73,19.8281 83.73,21.7656 Q83.73,23.7188 84.355,24.6875 Q84.98,25.6406 86.23,25.6406 Q86.7925,25.6406 87.3237,25.4375 Q87.855,25.2344 88.3237,24.8438 L88.3237,26.1563 Z " fill="#2B2B2B"/><text fill="#FFFFFF" font-family="Calibri" font-size="13" lengthAdjust="spacing" textLength="92.4473" x="105.5112" y="26.5005">_Conversation</text><line style="stroke:#957DAD;stroke-width:0.5;" x1="8" x2="265.4697" y1="37" y2="37"/><ellipse cx="18" cy="50.0664" fill="none" rx="3" ry="3" style="stroke:#038048;stroke-width:1.0;"/><text fill="#FFFFFF" font-family="Calibri" font-size="13" lengthAdjust="spacing" textLength="108.1514" x="26" y="53.0669">String username</text><ellipse cx="18" cy="65.1992" fill="none" rx="3" ry="3" style="stroke:#038048;stroke-width:1.0;"/><text fill="#FFFFFF" font-family="Calibri" font-size="13" lengthAdjust="spacing" textLength="234.4697" x="26" y="68.1997">List&lt;_PlaintextMessage&gt; messages</text><line style="stroke:#957DAD;stroke-width:0.5;" x1="8" x2="265.4697" y1="75.2656" y2="75.2656"/></g><!--class _PlaintextMessage--><g id="elem__PlaintextMessage"><rect codeLine="138" fill="#625D92" height="151.9297" id="_PlaintextMessage" rx="2.5" ry="2.5" style="stroke:#957DAD;stroke-width:0.5;" width="153.5718" x="59.95" y="144.27"/><ellipse cx="75.2734" cy="159.27" fill="#ADD1B2" rx="10" ry="10" style="stroke:#181818;stroke-width:1.0;"/><path d="M77.0859,163.4263 Q76.6015,163.6919 76.0859,163.8169 Q75.5703,163.9575 74.9922,163.9575 Q73.164,163.9575 72.1484,162.6763 Q71.1484,161.3794 71.1484,159.0356 Q71.1484,156.7231 72.164,155.4263 Q73.1797,154.1138 74.9922,154.1138 Q75.5703,154.1138 76.0859,154.2544 Q76.6015,154.3794 77.0859,154.645 L77.0859,155.9575 Q76.6172,155.5669 76.0703,155.3638 Q75.539,155.1606 74.9922,155.1606 Q73.7422,155.1606 73.1172,156.1294 Q72.4922,157.0981 72.4922,159.0356 Q72.4922,160.9888 73.1172,161.9575 Q73.7422,162.9106 74.9922,162.9106 Q75.5547,162.9106 76.0859,162.7075 Q76.6172,162.5044 77.0859,162.1138 L77.0859,163.4263 Z " fill="#2B2B2B"/><text fill="#FFFFFF" font-family="Calibri" font-size="13" lengthAdjust="spacing" textLength="120.6309" x="88.5675" y="163.7705">_PlaintextMessage</text><line style="stroke:#957DAD;stroke-width:0.5;" x1="60.95" x2="212.5218" y1="174.27" y2="174.27"/><ellipse cx="70.95" cy="187.3364" fill="none" rx="3" ry="3" style="stroke:#038048;stroke-width:1.0;"/><text fill="#FFFFFF" font-family="Calibri" font-size="13" lengthAdjust="spacing" textLength="54.793" x="78.95" y="190.3369">String id</text><ellipse cx="70.95" cy="202.4692" fill="none" rx="3" ry="3" style="stroke:#038048;stroke-width:1.0;"/><text fill="#FFFFFF" font-family="Calibri" font-size="13" lengthAdjust="spacing" textLength="92.7012" x="78.95" y="205.4697">String content</text><ellipse cx="70.95" cy="217.602" fill="none" rx="3" ry="3" style="stroke:#038048;stroke-width:1.0;"/><text fill="#FFFFFF" font-family="Calibri" font-size="13" lengthAdjust="spacing" textLength="58.7285" x="78.95" y="220.6025">bool own</text><ellipse cx="70.95" cy="232.7348" fill="none" rx="3" ry="3" style="stroke:#038048;stroke-width:1.0;"/><text fill="#FFFFFF" font-family="Calibri" font-size="13" lengthAdjust="spacing" textLength="102.9653" x="78.95" y="235.7353">String? receiver</text><ellipse cx="70.95" cy="247.8677" fill="none" rx="3" ry="3" style="stroke:#038048;stroke-width:1.0;"/><text fill="#FFFFFF" font-family="Calibri" font-size="13" lengthAdjust="spacing" textLength="109.5161" x="78.95" y="250.8681">DateTime sentAt</text><ellipse cx="70.95" cy="263.0005" fill="none" rx="3" ry="3" style="stroke:#038048;stroke-width:1.0;"/><text fill="#FFFFFF" font-family="Calibri" font-size="13" lengthAdjust="spacing" textLength="128.5718" x="78.95" y="266.001">String? statusString</text><ellipse cx="70.95" cy="278.1333" fill="none" rx="3" ry="3" style="stroke:#038048;stroke-width:1.0;"/><text fill="#FFFFFF" font-family="Calibri" font-size="13" lengthAdjust="spacing" textLength="85.5029" x="78.95" y="281.1338">Status status</text><line style="stroke:#957DAD;stroke-width:0.5;" x1="60.95" x2="212.5218" y1="288.1997" y2="288.1997"/></g><!--class Status--><g id="elem_Status"><rect codeLine="148" fill="#625D92" height="121.6641" id="Status" rx="2.5" ry="2.5" style="stroke:#957DAD;stroke-width:0.5;" width="123.9727" x="74.75" y="373.2"/><ellipse cx="112.3965" cy="388.2" fill="#ADD1B2" rx="10" ry="10" style="stroke:#181818;stroke-width:1.0;"/><path d="M114.209,392.3563 Q113.7247,392.6219 113.209,392.7469 Q112.6934,392.8875 112.1153,392.8875 Q110.2872,392.8875 109.2715,391.6063 Q108.2715,390.3094 108.2715,387.9656 Q108.2715,385.6531 109.2872,384.3563 Q110.3028,383.0438 112.1153,383.0438 Q112.6934,383.0438 113.209,383.1844 Q113.7247,383.3094 114.209,383.575 L114.209,384.8875 Q113.7403,384.4969 113.1934,384.2938 Q112.6622,384.0906 112.1153,384.0906 Q110.8653,384.0906 110.2403,385.0594 Q109.6153,386.0281 109.6153,387.9656 Q109.6153,389.9188 110.2403,390.8875 Q110.8653,391.8406 112.1153,391.8406 Q112.6778,391.8406 113.209,391.6375 Q113.7403,391.4344 114.209,391.0438 L114.209,392.3563 Z " fill="#2B2B2B"/><text fill="#FFFFFF" font-family="Calibri" font-size="13" lengthAdjust="spacing" textLength="41.4248" x="130.6513" y="392.7005">Status</text><line style="stroke:#957DAD;stroke-width:0.5;" x1="75.75" x2="197.7227" y1="403.2" y2="403.2"/><ellipse cx="85.75" cy="416.2664" fill="none" rx="3" ry="3" style="stroke:#038048;stroke-width:1.0;"/><text fill="#FFFFFF" font-family="Calibri" font-size="13" lengthAdjust="spacing" textLength="95.7734" x="93.75" y="419.2669">String pending</text><ellipse cx="85.75" cy="431.3992" fill="none" rx="3" ry="3" style="stroke:#038048;stroke-width:1.0;"/><text fill="#FFFFFF" font-family="Calibri" font-size="13" lengthAdjust="spacing" textLength="71.0366" x="93.75" y="434.3997">String sent</text><ellipse cx="85.75" cy="446.532" fill="none" rx="3" ry="3" style="stroke:#038048;stroke-width:1.0;"/><text fill="#FFFFFF" font-family="Calibri" font-size="13" lengthAdjust="spacing" textLength="98.9727" x="93.75" y="449.5325">String received</text><ellipse cx="85.75" cy="461.6648" fill="none" rx="3" ry="3" style="stroke:#038048;stroke-width:1.0;"/><text fill="#FFFFFF" font-family="Calibri" font-size="13" lengthAdjust="spacing" textLength="72.4902" x="93.75" y="464.6653">String read</text><ellipse cx="85.75" cy="476.7977" fill="none" rx="3" ry="3" style="stroke:#038048;stroke-width:1.0;"/><text fill="#FFFFFF" font-family="Calibri" font-size="13" lengthAdjust="spacing" textLength="74.915" x="93.75" y="479.7981">String error</text><line style="stroke:#957DAD;stroke-width:0.5;" x1="75.75" x2="197.7227" y1="486.8641" y2="486.8641"/></g><!--link _Conversation to _PlaintextMessage--><g id="link__Conversation__PlaintextMessage"><path codeLine="156" d="M136.73,83.69 C136.73,101.39 136.73,123.17 136.73,144.04 " fill="none" id="_Conversation-_PlaintextMessage" style="stroke:#625D92;stroke-width:1.0;"/><text fill="#2B2B2B" font-family="Calibri" font-size="13" lengthAdjust="spacing" textLength="8.271" x="128.0891" y="103.3961">1</text><text fill="#2B2B2B" font-family="Calibri" font-size="13" lengthAdjust="spacing" textLength="6.5" x="130.4673" y="133.1361">*</text></g><!--reverse link _PlaintextMessage to Status--><g id="link__PlaintextMessage_Status"><path codeLine="157" d="M136.73,308.5 C136.73,333.59 136.73,349.18 136.73,372.96 " fill="none" id="_PlaintextMessage-backto-Status" style="stroke:#625D92;stroke-width:1.0;"/><polygon fill="#625D92" points="136.73,296.5,132.73,302.5,136.73,308.5,140.73,302.5,136.73,296.5" style="stroke:#625D92;stroke-width:1.0;"/><text fill="#2B2B2B" font-family="Calibri" font-size="13" lengthAdjust="spacing" textLength="78.7427" x="137.73" y="339.2669">statusString</text></g><!--SRC=[ZPVRZjCw58RlynIcN20nuc9Ee470Lffss8YX7Tf1Ob-Dt6IrMAHsj-tCS13lpdASSyRsD6gL-F_Ytslvs6TaUGTIiWp87PMCRd9GP2iaoTdkcoPxaK7q98Cjuq2kLny-nQl_RfFbrN95dhuyEPzTd3JgUfui5xEEFf-Pgz7Z99alRchnulpLB6x5c_dNczj1_ITJS_MHaSdf-UdPsSi6cgzMorMjpKukZgT953qZCwlkW8Ea-I3ILEJuUw0vQ0q8F-ctuosPLA5EZ3XiWP5j8qgv5wNHRA2bza2GXh1vQec7798pSvNCD4u-lbyjlonc7TtcgjIxAJ2IpS8aQd8qga1BojM1Ik0wKjyPnrkw9x-ZAKs_xwGeU9QKAHg-6As_qKpSCxuZMvehY68fnRrbUs5QuL9mRSLn8bfYpNu1EJwD8kmpMkJQb2te7aX2SxQHh5jUivqYfq7tDVqp1yA5tDCyYbCjv33IGHTKa90PI0jqkzcgNlCe4Vk3u9ZWa5CBkjmQmkyuevfkg8AGOSEv_6h0RnTBpROq3SRNSCvaLe3VRe7hKiYgP5msHlHRV56GFY9_DUOogdI_rwN8yUsGLKMvdAmSCCAP7Gp9GauRe_fTLf1godTvqAa5NMuD4HX-kqVCBGiv1zukEAUcfcugVuQC6ixbLGEXHODhAVBmac4nzu9HwdwlETTC1mEhA9UJbVr67xW6YHCyE3PQq6NN47x7QpIYkw1VZRdSAjtlzRc08kXa8PTFgVfTeYIdIWrj-f15d6F2gAt9qyloOujZhINR51h6EWAYo883ieJSrgZwurlZVlg87ginbrEb-xskw0Rou4d7KXsZXuc05U0I4ynUHRc2id9eTzIZv0rsF-tR6hjTFsmUpWFSeLDseEC5jz-CBkYUL0tpm6XRm_y5y1JUeyV1RzP7dIEYI_qBjBTVZcols1Q_78BLDQ0lvtzmtgPcVf5RN97nJvUYcWcEv-oZDKuuF4GN2YJ7pJKwkc9AlxczpYd39Uw7_WHAuK1-H_RsHfdAghg6KAS-bZMtAKPfZlT76o5o8kvvhVn39AJ0i3dH4Pxqu8RXKLiX6kiMKPhgGjadKsgUgiAs9LLnQt_0SLgzK3whiW7LG-MQTGfe-u3_I8KqLVTJDJcUa1SloEJvP1ntDCx4SsIhLhtknV0N]--></g></svg>