<svg xmlns="http://www.w3.org/2000/svg" xmlns:xlink="http://www.w3.org/1999/xlink" contentStyleType="text/css" height="671px" preserveAspectRatio="none" style="width:1033px;height:671px;" version="1.1" viewBox="0 0 1033 671" width="1033px" zoomAndPan="magnify"><defs/><g><rect fill="#957DAD" height="470.9922" style="stroke:#957DAD;stroke-width:1.0;" width="10" x="340.9487" y="111.2656"/><rect fill="#957DAD" height="29.1328" style="stroke:#957DAD;stroke-width:1.0;" width="10" x="596.3613" y="140.3984"/><rect fill="#957DAD" height="29.1328" style="stroke:#957DAD;stroke-width:1.0;" width="10" x="733.74" y="198.6641"/><rect fill="#957DAD" height="29.1328" style="stroke:#957DAD;stroke-width:1.0;" width="10" x="833.3467" y="341.1953"/><rect fill="#957DAD" height="16" style="stroke:#957DAD;stroke-width:1.0;" width="10" x="941.2087" y="567.2578"/><rect fill="#353446" height="105.6641" style="stroke:#957DAD;stroke-width:1.5;" width="762.9492" x="263.4854" y="469.5938"/><rect fill="#353446" height="46.2656" style="stroke:none;stroke-width:1.0;" width="762.9492" x="263.4854" y="528.9922"/><line style="stroke:#957DAD;stroke-width:0.5;stroke-dasharray:5.0,5.0;" x1="22" x2="22" y1="80.1328" y2="592.2578"/><line style="stroke:#957DAD;stroke-width:0.5;stroke-dasharray:5.0,5.0;" x1="345.4854" x2="345.4854" y1="80.1328" y2="592.2578"/><line style="stroke:#957DAD;stroke-width:0.5;stroke-dasharray:5.0,5.0;" x1="600.968" x2="600.968" y1="80.1328" y2="592.2578"/><line style="stroke:#957DAD;stroke-width:0.5;stroke-dasharray:5.0,5.0;" x1="737.7546" x2="737.7546" y1="80.1328" y2="592.2578"/><line style="stroke:#957DAD;stroke-width:0.5;stroke-dasharray:5.0,5.0;" x1="837.7104" x2="837.7104" y1="80.1328" y2="592.2578"/><line style="stroke:#957DAD;stroke-width:0.5;stroke-dasharray:5.0,5.0;" x1="945.9829" x2="945.9829" y1="80.1328" y2="592.2578"/><text fill="#EDEDED" font-family="Calibri" font-size="13" lengthAdjust="spacing" textLength="29.6309" x="5" y="77.0669">User</text><ellipse cx="22.8154" cy="13.5" fill="#353446" rx="8" ry="8" style="stroke:#957DAD;stroke-width:0.5;"/><path d="M22.8154,21.5 L22.8154,48.5 M9.8154,29.5 L35.8154,29.5 M22.8154,48.5 L9.8154,63.5 M22.8154,48.5 L35.8154,63.5 " fill="none" style="stroke:#957DAD;stroke-width:0.5;"/><text fill="#EDEDED" font-family="Calibri" font-size="13" lengthAdjust="spacing" textLength="29.6309" x="5" y="603.3247">User</text><ellipse cx="22.8154" cy="614.8906" fill="#353446" rx="8" ry="8" style="stroke:#957DAD;stroke-width:0.5;"/><path d="M22.8154,622.8906 L22.8154,649.8906 M9.8154,630.8906 L35.8154,630.8906 M22.8154,649.8906 L9.8154,664.8906 M22.8154,649.8906 L35.8154,664.8906 " fill="none" style="stroke:#957DAD;stroke-width:0.5;"/><rect fill="#625D92" height="29.1328" rx="2.5" ry="2.5" style="stroke:#957DAD;stroke-width:0.5;" width="144.9268" x="273.4854" y="50"/><text fill="#FFFFFF" font-family="Calibri" font-size="13" lengthAdjust="spacing" textLength="130.9268" x="280.4854" y="69.0669">ConversationScreen</text><rect fill="#625D92" height="29.1328" rx="2.5" ry="2.5" style="stroke:#957DAD;stroke-width:0.5;" width="144.9268" x="273.4854" y="591.2578"/><text fill="#FFFFFF" font-family="Calibri" font-size="13" lengthAdjust="spacing" textLength="130.9268" x="280.4854" y="610.3247">ConversationScreen</text><rect fill="#625D92" height="29.1328" rx="2.5" ry="2.5" style="stroke:#957DAD;stroke-width:0.5;" width="146.7866" x="527.968" y="50"/><text fill="#FFFFFF" font-family="Calibri" font-size="13" lengthAdjust="spacing" textLength="132.7866" x="534.968" y="69.0669">uuid_generator.Uuid</text><rect fill="#625D92" height="29.1328" rx="2.5" ry="2.5" style="stroke:#957DAD;stroke-width:0.5;" width="146.7866" x="527.968" y="591.2578"/><text fill="#FFFFFF" font-family="Calibri" font-size="13" lengthAdjust="spacing" textLength="132.7866" x="534.968" y="610.3247">uuid_generator.Uuid</text><rect fill="#625D92" height="29.1328" rx="2.5" ry="2.5" style="stroke:#957DAD;stroke-width:0.5;" width="107.9707" x="684.7546" y="50"/><text fill="#FFFFFF" font-family="Calibri" font-size="13" lengthAdjust="spacing" textLength="93.9707" x="691.7546" y="69.0669">SignalProvider</text><rect fill="#625D92" height="29.1328" rx="2.5" ry="2.5" style="stroke:#957DAD;stroke-width:0.5;" width="107.9707" x="684.7546" y="591.2578"/><text fill="#FFFFFF" font-family="Calibri" font-size="13" lengthAdjust="spacing" textLength="93.9707" x="691.7546" y="610.3247">SignalProvider</text><rect fill="#625D92" height="29.1328" rx="2.5" ry="2.5" style="stroke:#957DAD;stroke-width:0.5;" width="55.2725" x="810.7104" y="50"/><text fill="#FFFFFF" font-family="Calibri" font-size="13" lengthAdjust="spacing" textLength="41.2725" x="817.7104" y="69.0669">Realm</text><rect fill="#625D92" height="29.1328" rx="2.5" ry="2.5" style="stroke:#957DAD;stroke-width:0.5;" width="55.2725" x="810.7104" y="591.2578"/><text fill="#FFFFFF" font-family="Calibri" font-size="13" lengthAdjust="spacing" textLength="41.2725" x="817.7104" y="610.3247">Realm</text><rect fill="#625D92" height="29.1328" rx="2.5" ry="2.5" style="stroke:#957DAD;stroke-width:0.5;" width="140.4517" x="875.9829" y="50"/><text fill="#FFFFFF" font-family="Calibri" font-size="13" lengthAdjust="spacing" textLength="126.4517" x="882.9829" y="69.0669">WebSocketChannel</text><rect fill="#625D92" height="29.1328" rx="2.5" ry="2.5" style="stroke:#957DAD;stroke-width:0.5;" width="140.4517" x="875.9829" y="591.2578"/><text fill="#FFFFFF" font-family="Calibri" font-size="13" lengthAdjust="spacing" textLength="126.4517" x="882.9829" y="610.3247">WebSocketChannel</text><rect fill="#957DAD" height="470.9922" style="stroke:#957DAD;stroke-width:1.0;" width="10" x="340.9487" y="111.2656"/><rect fill="#957DAD" height="29.1328" style="stroke:#957DAD;stroke-width:1.0;" width="10" x="596.3613" y="140.3984"/><rect fill="#957DAD" height="29.1328" style="stroke:#957DAD;stroke-width:1.0;" width="10" x="733.74" y="198.6641"/><rect fill="#957DAD" height="29.1328" style="stroke:#957DAD;stroke-width:1.0;" width="10" x="833.3467" y="341.1953"/><rect fill="#957DAD" height="16" style="stroke:#957DAD;stroke-width:1.0;" width="10" x="941.2087" y="567.2578"/><polygon fill="#625D92" points="328.9487,107.2656,338.9487,111.2656,328.9487,115.2656,332.9487,111.2656" style="stroke:#625D92;stroke-width:1.0;"/><line style="stroke:#625D92;stroke-width:1.0;" x1="22.8154" x2="334.9487" y1="111.2656" y2="111.2656"/><text fill="#EDEDED" font-family="Calibri" font-size="13" lengthAdjust="spacing" textLength="299.1333" x="29.8154" y="106.1997">Envoie un message texte clair au destinataire</text><polygon fill="#625D92" points="584.3613,136.3984,594.3613,140.3984,584.3613,144.3984,588.3613,140.3984" style="stroke:#625D92;stroke-width:1.0;"/><line style="stroke:#625D92;stroke-width:1.0;" x1="350.9487" x2="590.3613" y1="140.3984" y2="140.3984"/><text fill="#EDEDED" font-family="Calibri" font-size="13" lengthAdjust="spacing" textLength="187.4082" x="357.9487" y="135.3325">G&#233;n&#232;re un identifiant unique</text><polygon fill="#625D92" points="361.9487,165.5313,351.9487,169.5313,361.9487,173.5313,357.9487,169.5313" style="stroke:#625D92;stroke-width:1.0;"/><line style="stroke:#625D92;stroke-width:1.0;" x1="355.9487" x2="600.3613" y1="169.5313" y2="169.5313"/><text fill="#EDEDED" font-family="Calibri" font-size="13" lengthAdjust="spacing" textLength="96.7192" x="367.9487" y="164.4653">Renvoie l'UUID</text><polygon fill="#625D92" points="721.74,194.6641,731.74,198.6641,721.74,202.6641,725.74,198.6641" style="stroke:#625D92;stroke-width:1.0;"/><line style="stroke:#625D92;stroke-width:1.0;" x1="350.9487" x2="727.74" y1="198.6641" y2="198.6641"/><text fill="#EDEDED" font-family="Calibri" font-size="13" lengthAdjust="spacing" textLength="253.4746" x="357.9487" y="193.5981">Chiffre le message pour le destinataire</text><polygon fill="#625D92" points="361.9487,223.7969,351.9487,227.7969,361.9487,231.7969,357.9487,227.7969" style="stroke:#625D92;stroke-width:1.0;"/><line style="stroke:#625D92;stroke-width:1.0;" x1="355.9487" x2="737.74" y1="227.7969" y2="227.7969"/><text fill="#EDEDED" font-family="Calibri" font-size="13" lengthAdjust="spacing" textLength="176.4521" x="367.9487" y="222.731">Renvoie le message chiffr&#233;</text><line style="stroke:#625D92;stroke-width:1.0;" x1="350.9487" x2="392.9487" y1="256.9297" y2="256.9297"/><line style="stroke:#625D92;stroke-width:1.0;" x1="392.9487" x2="392.9487" y1="256.9297" y2="269.9297"/><line style="stroke:#625D92;stroke-width:1.0;" x1="351.9487" x2="392.9487" y1="269.9297" y2="269.9297"/><polygon fill="#625D92" points="361.9487,265.9297,351.9487,269.9297,361.9487,273.9297,357.9487,269.9297" style="stroke:#625D92;stroke-width:1.0;"/><text fill="#EDEDED" font-family="Calibri" font-size="13" lengthAdjust="spacing" textLength="182.6475" x="357.9487" y="251.8638">Encode le message en JSON</text><line style="stroke:#625D92;stroke-width:1.0;" x1="350.9487" x2="392.9487" y1="299.0625" y2="299.0625"/><line style="stroke:#625D92;stroke-width:1.0;" x1="392.9487" x2="392.9487" y1="299.0625" y2="312.0625"/><line style="stroke:#625D92;stroke-width:1.0;" x1="351.9487" x2="392.9487" y1="312.0625" y2="312.0625"/><polygon fill="#625D92" points="361.9487,308.0625,351.9487,312.0625,361.9487,316.0625,357.9487,312.0625" style="stroke:#625D92;stroke-width:1.0;"/><text fill="#EDEDED" font-family="Calibri" font-size="13" lengthAdjust="spacing" textLength="192.8799" x="357.9487" y="293.9966">R&#233;cup&#232;re le Realm utilisateur</text><polygon fill="#625D92" points="821.3467,337.1953,831.3467,341.1953,821.3467,345.1953,825.3467,341.1953" style="stroke:#625D92;stroke-width:1.0;"/><line style="stroke:#625D92;stroke-width:1.0;" x1="350.9487" x2="827.3467" y1="341.1953" y2="341.1953"/><text fill="#EDEDED" font-family="Calibri" font-size="13" lengthAdjust="spacing" textLength="463.3979" x="357.9487" y="336.1294">&#201;crit dans Realm (trouve ou ajoute la conversation, ajoute le message)</text><polygon fill="#625D92" points="361.9487,366.3281,351.9487,370.3281,361.9487,374.3281,357.9487,370.3281" style="stroke:#625D92;stroke-width:1.0;"/><line style="stroke:#625D92;stroke-width:1.0;" x1="355.9487" x2="837.3467" y1="370.3281" y2="370.3281"/><text fill="#EDEDED" font-family="Calibri" font-size="13" lengthAdjust="spacing" textLength="101.8672" x="367.9487" y="365.2622">&#201;criture r&#233;ussie</text><line style="stroke:#625D92;stroke-width:1.0;" x1="350.9487" x2="392.9487" y1="399.4609" y2="399.4609"/><line style="stroke:#625D92;stroke-width:1.0;" x1="392.9487" x2="392.9487" y1="399.4609" y2="412.4609"/><line style="stroke:#625D92;stroke-width:1.0;" x1="351.9487" x2="392.9487" y1="412.4609" y2="412.4609"/><polygon fill="#625D92" points="361.9487,408.4609,351.9487,412.4609,361.9487,416.4609,357.9487,412.4609" style="stroke:#625D92;stroke-width:1.0;"/><text fill="#EDEDED" font-family="Calibri" font-size="13" lengthAdjust="spacing" textLength="221.4126" x="357.9487" y="394.395">V&#233;rifie si l'utilisateur est connect&#233;</text><line style="stroke:#625D92;stroke-width:1.0;" x1="350.9487" x2="392.9487" y1="441.5938" y2="441.5938"/><line style="stroke:#625D92;stroke-width:1.0;" x1="392.9487" x2="392.9487" y1="441.5938" y2="454.5938"/><line style="stroke:#625D92;stroke-width:1.0;" x1="351.9487" x2="392.9487" y1="454.5938" y2="454.5938"/><polygon fill="#625D92" points="361.9487,450.5938,351.9487,454.5938,361.9487,458.5938,357.9487,454.5938" style="stroke:#625D92;stroke-width:1.0;"/><text fill="#EDEDED" font-family="Calibri" font-size="13" lengthAdjust="spacing" textLength="206.1655" x="357.9487" y="436.5278">V&#233;rifie la connexion WebSocket</text><path d="M263.4854,469.5938 L327.9282,469.5938 L327.9282,476.7266 L317.9282,486.7266 L263.4854,486.7266 L263.4854,469.5938 " fill="#625D92" style="stroke:#957DAD;stroke-width:1.5;"/><rect fill="none" height="105.6641" style="stroke:#957DAD;stroke-width:1.5;" width="762.9492" x="263.4854" y="469.5938"/><text fill="#FFFFFF" font-family="Calibri" font-size="13" font-weight="bold" lengthAdjust="spacing" textLength="19.4429" x="278.4854" y="482.6606">alt</text><text fill="#EDEDED" font-family="Calibri" font-size="13" font-weight="bold" lengthAdjust="spacing" textLength="112.1758" x="342.9282" y="483.6606">[Non connect&#233;]</text><line style="stroke:#625D92;stroke-width:1.0;" x1="350.9487" x2="392.9487" y1="507.9922" y2="507.9922"/><line style="stroke:#625D92;stroke-width:1.0;" x1="392.9487" x2="392.9487" y1="507.9922" y2="520.9922"/><line style="stroke:#625D92;stroke-width:1.0;" x1="351.9487" x2="392.9487" y1="520.9922" y2="520.9922"/><polygon fill="#625D92" points="361.9487,516.9922,351.9487,520.9922,361.9487,524.9922,357.9487,520.9922" style="stroke:#625D92;stroke-width:1.0;"/><text fill="#EDEDED" font-family="Calibri" font-size="13" lengthAdjust="spacing" textLength="194.27" x="357.9487" y="502.9263">Stocke le message en attente</text><line style="stroke:#957DAD;stroke-width:1.0;stroke-dasharray:2.0,2.0;" x1="263.4854" x2="1026.4346" y1="529.9922" y2="529.9922"/><text fill="#EDEDED" font-family="Calibri" font-size="13" font-weight="bold" lengthAdjust="spacing" textLength="80.4185" x="268.4854" y="542.0591">[Connect&#233;]</text><polygon fill="#625D92" points="929.2087,563.2578,939.2087,567.2578,929.2087,571.2578,933.2087,567.2578" style="stroke:#625D92;stroke-width:1.0;"/><line style="stroke:#625D92;stroke-width:1.0;" x1="350.9487" x2="935.2087" y1="567.2578" y2="567.2578"/><text fill="#EDEDED" font-family="Calibri" font-size="13" lengthAdjust="spacing" textLength="222.625" x="357.9487" y="562.1919">Envoie le message via WebSocket</text><!--SRC=[dLTRRkCs5FtNAfZCnxH0Ms3oc442j80jEsdQr4xbk8-lW9Qk7JOqwLAKPwQ3Bg0xQTRXZVLAr5kYc4w4117FuJttN3vr5C6Q2I1tmSrFe-3t1tz-Em_8gxSdvvEB4-yeHnTJVpwRrF3JyzEpixSbFlBzwUo-02_Etqr6anAyd_vs_z2AFvsaJvFI4V7FqgSaJODW7XJOvEJYpTZtlDTaOj0D252KaprLZAuun6Gj5Gabnxyxoa5hGF9HCuzloN5kzJW5sncai76QmGsNAMQCPbYFoPHXV5QCFWLZC-ECH_wFry5yEPlKy9Dn-cHulGGfPAfmx9KrwWJGYefuHnK8xSLFJE2_T4i-UMCQFcsKJ4JaPoLgT_GMZpIIxvdOa3NbCNWZfUHxmstODC2L5Dg0tK9KZ0Nx2yYRKy_3CQC9rsdRZ6w1-9IpbMBrze9RQx8ArBlfZno8a6fBkJSAjLHjfwqXo4bIHQ0CeJxC1XqKztovtKc11NOfLKIRMiaOLfnGJLSq1fTWoRFf5OHXkP7IR4r3fx-IPorcJXYMcyd8wIpZs6HIS5XY6KFuWleLD9jGZWzhNKcElLrIESkcP6274AvifoL3iigawB1A0A6cOiETIXNHfbOo7DDlyuArPKZMYRTnhgbn6fkgZowXacVJAWYkJKDe9Rbxop0q-uQHuSDQKw6PTXhBMJOb0myBtGWD2XUuSsvKH9jSoHXMl4CXkd7g5JIRMeuFQ_sSGE9KCYIRJeOEgtW-ft7SbccI3CKw9rAq4dbrbVsOvf7MYgqI3LqS2JA9d1Co8zcb4Htsjy3pz0KZLj1iIZa-h7LBLy2TDnt3gWdrCnnIW5kCitevosRAmAxJKNUArphzzD3HM1_wTdgu3l243jcETZVSPXfredrHbPoUsRQ0FnCG8LoZncvOh4crpeWwwtkWZVEo8tlBrlWhm1ck90xL_6zSjnvDhue4xmJAsrNM2MxHUr0nrKoAHQW0H0DE4XOzc8yNxFxD4byR-89j1ELtIkvPr8eS0ENRHikli5h8y0cq_qY509xTT1Jv-hkUB2x9LEmb0v88ieKunjL4D7pGG49EcI8q8H74cWcy8p85gJssfmZt6FAwRQbeZxTBSdru5eT_LQQBbl1OMREi489XnIkPliBqjDdC1M3SyTVBvSt4yo8OZDnle5dyI-8_ilKQKyTFZA9aEvcezBs_LgtHQxuwKwzKmapuyDpmqGhURw5_u4Ey8jVZ8_U7nNpsFs84X-SmsMK3YN6ogKWIpJX36YIsR3BU9Jdy4ogcIOJVfddNB_0Qa-o1o8JGFoGUK8HJ_7glOdnLjfTPVrdLsIm54ygIiD5CC5-iOnB731h5D15Uxl-NmxF2cGiaPZZ7Qiu9JeGqSu6tMnompuXed0luW62rf3tADPbXo-V4nkCIOxH6d6gDomyymE_xjDTWrFRMKcuVjPXxHklv5gNjx4fuo3LgtrNy3m00]--></g></svg>