<svg xmlns="http://www.w3.org/2000/svg" xmlns:xlink="http://www.w3.org/1999/xlink" contentStyleType="text/css" height="671px" preserveAspectRatio="none" style="width:1033px;height:671px;" version="1.1" viewBox="0 0 1033 671" width="1033px" zoomAndPan="magnify"><defs/><g><rect fill="#957DAD" height="470.9922" style="stroke:#957DAD;stroke-width:1.0;" width="10" x="340.9487" y="111.2656"/><rect fill="#957DAD" height="29.1328" style="stroke:#957DAD;stroke-width:1.0;" width="10" x="596.3613" y="140.3984"/><rect fill="#957DAD" height="29.1328" style="stroke:#957DAD;stroke-width:1.0;" width="10" x="733.74" y="198.6641"/><rect fill="#957DAD" height="29.1328" style="stroke:#957DAD;stroke-width:1.0;" width="10" x="833.3467" y="341.1953"/><rect fill="#957DAD" height="16" style="stroke:#957DAD;stroke-width:1.0;" width="10" x="941.2087" y="567.2578"/><rect fill="#EDEDED" height="105.6641" style="stroke:#957DAD;stroke-width:1.5;" width="762.9492" x="263.4854" y="469.5938"/><rect fill="#EDEDED" height="46.2656" style="stroke:none;stroke-width:1.0;" width="762.9492" x="263.4854" y="528.9922"/><line style="stroke:#957DAD;stroke-width:0.5;stroke-dasharray:5.0,5.0;" x1="22" x2="22" y1="80.1328" y2="592.2578"/><line style="stroke:#957DAD;stroke-width:0.5;stroke-dasharray:5.0,5.0;" x1="345.4854" x2="345.4854" y1="80.1328" y2="592.2578"/><line style="stroke:#957DAD;stroke-width:0.5;stroke-dasharray:5.0,5.0;" x1="600.968" x2="600.968" y1="80.1328" y2="592.2578"/><line style="stroke:#957DAD;stroke-width:0.5;stroke-dasharray:5.0,5.0;" x1="737.7546" x2="737.7546" y1="80.1328" y2="592.2578"/><line style="stroke:#957DAD;stroke-width:0.5;stroke-dasharray:5.0,5.0;" x1="837.7104" x2="837.7104" y1="80.1328" y2="592.2578"/><line style="stroke:#957DAD;stroke-width:0.5;stroke-dasharray:5.0,5.0;" x1="945.9829" x2="945.9829" y1="80.1328" y2="592.2578"/><text fill="#2B2B2B" font-family="Calibri" font-size="13" lengthAdjust="spacing" textLength="29.6309" x="5" y="77.0669">User</text><ellipse cx="22.8154" cy="13.5" fill="#EDEDED" rx="8" ry="8" style="stroke:#957DAD;stroke-width:0.5;"/><path d="M22.8154,21.5 L22.8154,48.5 M9.8154,29.5 L35.8154,29.5 M22.8154,48.5 L9.8154,63.5 M22.8154,48.5 L35.8154,63.5 " fill="none" style="stroke:#957DAD;stroke-width:0.5;"/><text fill="#2B2B2B" font-family="Calibri" font-size="13" lengthAdjust="spacing" textLength="29.6309" x="5" y="603.3247">User</text><ellipse cx="22.8154" cy="614.8906" fill="#EDEDED" rx="8" ry="8" style="stroke:#957DAD;stroke-width:0.5;"/><path d="M22.8154,622.8906 L22.8154,649.8906 M9.8154,630.8906 L35.8154,630.8906 M22.8154,649.8906 L9.8154,664.8906 M22.8154,649.8906 L35.8154,664.8906 " fill="none" style="stroke:#957DAD;stroke-width:0.5;"/><rect fill="#625D92" height="29.1328" rx="2.5" ry="2.5" style="stroke:#957DAD;stroke-width:0.5;" width="144.9268" x="273.4854" y="50"/><text fill="#FFFFFF" font-family="Calibri" font-size="13" lengthAdjust="spacing" textLength="130.9268" x="280.4854" y="69.0669">ConversationScreen</text><rect fill="#625D92" height="29.1328" rx="2.5" ry="2.5" style="stroke:#957DAD;stroke-width:0.5;" width="144.9268" x="273.4854" y="591.2578"/><text fill="#FFFFFF" font-family="Calibri" font-size="13" lengthAdjust="spacing" textLength="130.9268" x="280.4854" y="610.3247">ConversationScreen</text><rect fill="#625D92" height="29.1328" rx="2.5" ry="2.5" style="stroke:#957DAD;stroke-width:0.5;" width="146.7866" x="527.968" y="50"/><text fill="#FFFFFF" font-family="Calibri" font-size="13" lengthAdjust="spacing" textLength="132.7866" x="534.968" y="69.0669">uuid_generator.Uuid</text><rect fill="#625D92" height="29.1328" rx="2.5" ry="2.5" style="stroke:#957DAD;stroke-width:0.5;" width="146.7866" x="527.968" y="591.2578"/><text fill="#FFFFFF" font-family="Calibri" font-size="13" lengthAdjust="spacing" textLength="132.7866" x="534.968" y="610.3247">uuid_generator.Uuid</text><rect fill="#625D92" height="29.1328" rx="2.5" ry="2.5" style="stroke:#957DAD;stroke-width:0.5;" width="107.9707" x="684.7546" y="50"/><text fill="#FFFFFF" font-family="Calibri" font-size="13" lengthAdjust="spacing" textLength="93.9707" x="691.7546" y="69.0669">SignalProvider</text><rect fill="#625D92" height="29.1328" rx="2.5" ry="2.5" style="stroke:#957DAD;stroke-width:0.5;" width="107.9707" x="684.7546" y="591.2578"/><text fill="#FFFFFF" font-family="Calibri" font-size="13" lengthAdjust="spacing" textLength="93.9707" x="691.7546" y="610.3247">SignalProvider</text><rect fill="#625D92" height="29.1328" rx="2.5" ry="2.5" style="stroke:#957DAD;stroke-width:0.5;" width="55.2725" x="810.7104" y="50"/><text fill="#FFFFFF" font-family="Calibri" font-size="13" lengthAdjust="spacing" textLength="41.2725" x="817.7104" y="69.0669">Realm</text><rect fill="#625D92" height="29.1328" rx="2.5" ry="2.5" style="stroke:#957DAD;stroke-width:0.5;" width="55.2725" x="810.7104" y="591.2578"/><text fill="#FFFFFF" font-family="Calibri" font-size="13" lengthAdjust="spacing" textLength="41.2725" x="817.7104" y="610.3247">Realm</text><rect fill="#625D92" height="29.1328" rx="2.5" ry="2.5" style="stroke:#957DAD;stroke-width:0.5;" width="140.4517" x="875.9829" y="50"/><text fill="#FFFFFF" font-family="Calibri" font-size="13" lengthAdjust="spacing" textLength="126.4517" x="882.9829" y="69.0669">WebSocketChannel</text><rect fill="#625D92" height="29.1328" rx="2.5" ry="2.5" style="stroke:#957DAD;stroke-width:0.5;" width="140.4517" x="875.9829" y="591.2578"/><text fill="#FFFFFF" font-family="Calibri" font-size="13" lengthAdjust="spacing" textLength="126.4517" x="882.9829" y="610.3247">WebSocketChannel</text><rect fill="#957DAD" height="470.9922" style="stroke:#957DAD;stroke-width:1.0;" width="10" x="340.9487" y="111.2656"/><rect fill="#957DAD" height="29.1328" style="stroke:#957DAD;stroke-width:1.0;" width="10" x="596.3613" y="140.3984"/><rect fill="#957DAD" height="29.1328" style="stroke:#957DAD;stroke-width:1.0;" width="10" x="733.74" y="198.6641"/><rect fill="#957DAD" height="29.1328" style="stroke:#957DAD;stroke-width:1.0;" width="10" x="833.3467" y="341.1953"/><rect fill="#957DAD" height="16" style="stroke:#957DAD;stroke-width:1.0;" width="10" x="941.2087" y="567.2578"/><polygon fill="#625D92" points="328.9487,107.2656,338.9487,111.2656,328.9487,115.2656,332.9487,111.2656" style="stroke:#625D92;stroke-width:1.0;"/><line style="stroke:#625D92;stroke-width:1.0;" x1="22.8154" x2="334.9487" y1="111.2656" y2="111.2656"/><text fill="#2B2B2B" font-family="Calibri" font-size="13" lengthAdjust="spacing" textLength="299.1333" x="29.8154" y="106.1997">Envoie un message texte clair au destinataire</text><polygon fill="#625D92" points="584.3613,136.3984,594.3613,140.3984,584.3613,144.3984,588.3613,140.3984" style="stroke:#625D92;stroke-width:1.0;"/><line style="stroke:#625D92;stroke-width:1.0;" x1="350.9487" x2="590.3613" y1="140.3984" y2="140.3984"/><text fill="#2B2B2B" font-family="Calibri" font-size="13" lengthAdjust="spacing" textLength="187.4082" x="357.9487" y="135.3325">G&#233;n&#232;re un identifiant unique</text><polygon fill="#625D92" points="361.9487,165.5313,351.9487,169.5313,361.9487,173.5313,357.9487,169.5313" style="stroke:#625D92;stroke-width:1.0;"/><line style="stroke:#625D92;stroke-width:1.0;" x1="355.9487" x2="600.3613" y1="169.5313" y2="169.5313"/><text fill="#2B2B2B" font-family="Calibri" font-size="13" lengthAdjust="spacing" textLength="96.7192" x="367.9487" y="164.4653">Renvoie l'UUID</text><polygon fill="#625D92" points="721.74,194.6641,731.74,198.6641,721.74,202.6641,725.74,198.6641" style="stroke:#625D92;stroke-width:1.0;"/><line style="stroke:#625D92;stroke-width:1.0;" x1="350.9487" x2="727.74" y1="198.6641" y2="198.6641"/><text fill="#2B2B2B" font-family="Calibri" font-size="13" lengthAdjust="spacing" textLength="253.4746" x="357.9487" y="193.5981">Chiffre le message pour le destinataire</text><polygon fill="#625D92" points="361.9487,223.7969,351.9487,227.7969,361.9487,231.7969,357.9487,227.7969" style="stroke:#625D92;stroke-width:1.0;"/><line style="stroke:#625D92;stroke-width:1.0;" x1="355.9487" x2="737.74" y1="227.7969" y2="227.7969"/><text fill="#2B2B2B" font-family="Calibri" font-size="13" lengthAdjust="spacing" textLength="176.4521" x="367.9487" y="222.731">Renvoie le message chiffr&#233;</text><line style="stroke:#625D92;stroke-width:1.0;" x1="350.9487" x2="392.9487" y1="256.9297" y2="256.9297"/><line style="stroke:#625D92;stroke-width:1.0;" x1="392.9487" x2="392.9487" y1="256.9297" y2="269.9297"/><line style="stroke:#625D92;stroke-width:1.0;" x1="351.9487" x2="392.9487" y1="269.9297" y2="269.9297"/><polygon fill="#625D92" points="361.9487,265.9297,351.9487,269.9297,361.9487,273.9297,357.9487,269.9297" style="stroke:#625D92;stroke-width:1.0;"/><text fill="#2B2B2B" font-family="Calibri" font-size="13" lengthAdjust="spacing" textLength="182.6475" x="357.9487" y="251.8638">Encode le message en JSON</text><line style="stroke:#625D92;stroke-width:1.0;" x1="350.9487" x2="392.9487" y1="299.0625" y2="299.0625"/><line style="stroke:#625D92;stroke-width:1.0;" x1="392.9487" x2="392.9487" y1="299.0625" y2="312.0625"/><line style="stroke:#625D92;stroke-width:1.0;" x1="351.9487" x2="392.9487" y1="312.0625" y2="312.0625"/><polygon fill="#625D92" points="361.9487,308.0625,351.9487,312.0625,361.9487,316.0625,357.9487,312.0625" style="stroke:#625D92;stroke-width:1.0;"/><text fill="#2B2B2B" font-family="Calibri" font-size="13" lengthAdjust="spacing" textLength="192.8799" x="357.9487" y="293.9966">R&#233;cup&#232;re le Realm utilisateur</text><polygon fill="#625D92" points="821.3467,337.1953,831.3467,341.1953,821.3467,345.1953,825.3467,341.1953" style="stroke:#625D92;stroke-width:1.0;"/><line style="stroke:#625D92;stroke-width:1.0;" x1="350.9487" x2="827.3467" y1="341.1953" y2="341.1953"/><text fill="#2B2B2B" font-family="Calibri" font-size="13" lengthAdjust="spacing" textLength="463.3979" x="357.9487" y="336.1294">&#201;crit dans Realm (trouve ou ajoute la conversation, ajoute le message)</text><polygon fill="#625D92" points="361.9487,366.3281,351.9487,370.3281,361.9487,374.3281,357.9487,370.3281" style="stroke:#625D92;stroke-width:1.0;"/><line style="stroke:#625D92;stroke-width:1.0;" x1="355.9487" x2="837.3467" y1="370.3281" y2="370.3281"/><text fill="#2B2B2B" font-family="Calibri" font-size="13" lengthAdjust="spacing" textLength="101.8672" x="367.9487" y="365.2622">&#201;criture r&#233;ussie</text><line style="stroke:#625D92;stroke-width:1.0;" x1="350.9487" x2="392.9487" y1="399.4609" y2="399.4609"/><line style="stroke:#625D92;stroke-width:1.0;" x1="392.9487" x2="392.9487" y1="399.4609" y2="412.4609"/><line style="stroke:#625D92;stroke-width:1.0;" x1="351.9487" x2="392.9487" y1="412.4609" y2="412.4609"/><polygon fill="#625D92" points="361.9487,408.4609,351.9487,412.4609,361.9487,416.4609,357.9487,412.4609" style="stroke:#625D92;stroke-width:1.0;"/><text fill="#2B2B2B" font-family="Calibri" font-size="13" lengthAdjust="spacing" textLength="221.4126" x="357.9487" y="394.395">V&#233;rifie si l'utilisateur est connect&#233;</text><line style="stroke:#625D92;stroke-width:1.0;" x1="350.9487" x2="392.9487" y1="441.5938" y2="441.5938"/><line style="stroke:#625D92;stroke-width:1.0;" x1="392.9487" x2="392.9487" y1="441.5938" y2="454.5938"/><line style="stroke:#625D92;stroke-width:1.0;" x1="351.9487" x2="392.9487" y1="454.5938" y2="454.5938"/><polygon fill="#625D92" points="361.9487,450.5938,351.9487,454.5938,361.9487,458.5938,357.9487,454.5938" style="stroke:#625D92;stroke-width:1.0;"/><text fill="#2B2B2B" font-family="Calibri" font-size="13" lengthAdjust="spacing" textLength="206.1655" x="357.9487" y="436.5278">V&#233;rifie la connexion WebSocket</text><path d="M263.4854,469.5938 L327.9282,469.5938 L327.9282,476.7266 L317.9282,486.7266 L263.4854,486.7266 L263.4854,469.5938 " fill="#625D92" style="stroke:#957DAD;stroke-width:1.5;"/><rect fill="none" height="105.6641" style="stroke:#957DAD;stroke-width:1.5;" width="762.9492" x="263.4854" y="469.5938"/><text fill="#FFFFFF" font-family="Calibri" font-size="13" font-weight="bold" lengthAdjust="spacing" textLength="19.4429" x="278.4854" y="482.6606">alt</text><text fill="#2B2B2B" font-family="Calibri" font-size="13" font-weight="bold" lengthAdjust="spacing" textLength="112.1758" x="342.9282" y="483.6606">[Non connect&#233;]</text><line style="stroke:#625D92;stroke-width:1.0;" x1="350.9487" x2="392.9487" y1="507.9922" y2="507.9922"/><line style="stroke:#625D92;stroke-width:1.0;" x1="392.9487" x2="392.9487" y1="507.9922" y2="520.9922"/><line style="stroke:#625D92;stroke-width:1.0;" x1="351.9487" x2="392.9487" y1="520.9922" y2="520.9922"/><polygon fill="#625D92" points="361.9487,516.9922,351.9487,520.9922,361.9487,524.9922,357.9487,520.9922" style="stroke:#625D92;stroke-width:1.0;"/><text fill="#2B2B2B" font-family="Calibri" font-size="13" lengthAdjust="spacing" textLength="194.27" x="357.9487" y="502.9263">Stocke le message en attente</text><line style="stroke:#957DAD;stroke-width:1.0;stroke-dasharray:2.0,2.0;" x1="263.4854" x2="1026.4346" y1="529.9922" y2="529.9922"/><text fill="#2B2B2B" font-family="Calibri" font-size="13" font-weight="bold" lengthAdjust="spacing" textLength="80.4185" x="268.4854" y="542.0591">[Connect&#233;]</text><polygon fill="#625D92" points="929.2087,563.2578,939.2087,567.2578,929.2087,571.2578,933.2087,567.2578" style="stroke:#625D92;stroke-width:1.0;"/><line style="stroke:#625D92;stroke-width:1.0;" x1="350.9487" x2="935.2087" y1="567.2578" y2="567.2578"/><text fill="#2B2B2B" font-family="Calibri" font-size="13" lengthAdjust="spacing" textLength="222.625" x="357.9487" y="562.1919">Envoie le message via WebSocket</text><!--SRC=[dPVRRkCs48RlzHJSx4LQe2smEUmY0Lh0bfqqRMgdSjp3LK1BOuSDJReKvTtjeW_GDscUmo_MaQYpH37T60bY_h_cumoFEYRpFIZ58Y1xgXXTSOZ9MYh2sUPHawsCm7iLmPe987V1pK-ZuFS7Vtux3yZhjoVdaukJKbrC_VbiKjEda_HJwYFVdyxk2_7Y_DraL8dtqz_k7rhnJyRffsdfG4xFJy_EtfQcQH3CWqARd5oy6VkUTqmcHjs004LvAzDGSloxenoq1ZI_QlRZMtAKftgKYkqUfBBfH2OtiamrasYczIIPEaoTAaSVmJzBFvbdFF9_l0xcozcaffjQPNgz1Abagd3abJNg1D2AYdX75GZjnKzCuBzqIpvvOne-RPHCHEHd9Me_w2qUQIJVCx4XQyfZy4PAoVV6sqZJ25TIQ2Ds2r4v5kml86zEFG_7Z2PSfsqpkWNYKyvMYjNR2s-joGgeFwO_SY12gYtbtYZKKhKpRGr1Rf8g0cKCzM4swY3Sy-Ls9mKMs4MgZ3PQwHWcJgYcAng32rZwRBp2C8mRAStMD7JcL_ginSmDmxWPxaikLEQnOL9n6B6C8Nn1_GgR3PJhmwmhoV5f5oftsKX6Te1mPJjJCYOh9bM7AG64ceeDTv8geurMEXpJR_E2jMLCrectSQwfSHgRgeykKEcpiGg3QzCGMadktZACpRvXPFemQoeqqyx4SfUDPEHXq8tGe721E-T6PRJXIiSmyGv1TEFa5JORBTU7MJyda3X9ncJZPEemnVCvZUCsfcao5kkSIDKAyleg-p7D8wqLMoKQkZeQP18v9sHcigDH7SvlWUVf2qQiiDb8kJxCkgKhuCwRZd7LGFqE1mfmYt5MBtVPaZAowtJKdUArJZyzT3JMXxxTFLm7U4A7R4Ux6swp6tMZVL6LdfxPje0_4n0XN2DZDmnhMgqpekxw7cZZlEnWRzaQVmKumvN6ePh_ZUlMe-bLaU2TG7cxAdM2MpI-XSLKCoaMeG8G3Jb9MFHWNbxmyM-M-BMXBzX6K7wdv1xVuvgH0w1yssZv5LOB6Jw1zX-f4C2pcuuYNt_NqujBCXLxoO0aWcmXZd4r4GqVD92GKwO8JKW4iMO2xuXCGPeUsrEKUnBokcqfj2UtIt9zU1Q7VrN6nPJmM5cph122OSKhJ5zXUjfioGLWikF7o-NDnFCY68pSdq2p-9V4VsJhDNOTNp6AakraejBl_RLgZLxpgxFh5INCm8VdHXwjuFqfz0zyY5VaUdpq_h2Op_v7ZE3m72QxR20nJZOLIQ8PPsY3nDQRp7T93l-4YcaIuRjf_kWNU8r9za1aGkWV4WyemYc-lLSnlYhRorv_MTNPB0KJoj9XmqomlrZ798uPD8ff8hmy_ryEpmfdBf2OuHohPKvm8gGz5tYxnG7xZ8WcSm4VKAoMj4Uv9ZDi-PpOU5nYZDQ8Kwrn-O47-7wVFZKOjRsrbDj7BUQUqNf_Yz9sTYKyv1grxnB_0m00]--></g></svg>