<svg xmlns="http://www.w3.org/2000/svg" xmlns:xlink="http://www.w3.org/1999/xlink" contentStyleType="text/css" height="218px" preserveAspectRatio="none" style="width:655px;height:218px;" version="1.1" viewBox="0 0 655 218" width="655px" zoomAndPan="magnify"><defs/><g><!--class SignalProvider--><g id="elem_SignalProvider"><rect codeLine="133" fill="#625D92" height="197.3281" id="SignalProvider" rx="2.5" ry="2.5" style="stroke:#957DAD;stroke-width:0.5;" width="634.3877" x="7" y="7"/><ellipse cx="273.2085" cy="22" fill="#ADD1B2" rx="10" ry="10" style="stroke:#181818;stroke-width:1.0;"/><path d="M275.021,26.1563 Q274.5366,26.4219 274.021,26.5469 Q273.5054,26.6875 272.9272,26.6875 Q271.0991,26.6875 270.0835,25.4063 Q269.0835,24.1094 269.0835,21.7656 Q269.0835,19.4531 270.0991,18.1563 Q271.1147,16.8438 272.9272,16.8438 Q273.5054,16.8438 274.021,16.9844 Q274.5366,17.1094 275.021,17.375 L275.021,18.6875 Q274.5522,18.2969 274.0054,18.0938 Q273.4741,17.8906 272.9272,17.8906 Q271.6772,17.8906 271.0522,18.8594 Q270.4272,19.8281 270.4272,21.7656 Q270.4272,23.7188 271.0522,24.6875 Q271.6772,25.6406 272.9272,25.6406 Q273.4897,25.6406 274.021,25.4375 Q274.5522,25.2344 275.021,24.8438 L275.021,26.1563 Z " fill="#2B2B2B"/><text fill="#FFFFFF" font-family="Calibri" font-size="13" lengthAdjust="spacing" textLength="93.9707" x="292.2085" y="26.5005">SignalProvider</text><line style="stroke:#957DAD;stroke-width:0.5;" x1="8" x2="640.3877" y1="37" y2="37"/><rect fill="none" height="6" style="stroke:#C82930;stroke-width:1.0;" width="6" x="15" y="47.0664"/><text fill="#FFFFFF" font-family="Calibri" font-size="13" lengthAdjust="spacing" textLength="323.6226" x="26" y="53.0669">SecureStorageIdentityKeyStore _identityKeyStore</text><rect fill="none" height="6" style="stroke:#C82930;stroke-width:1.0;" width="6" x="15" y="62.1992"/><text fill="#FFFFFF" font-family="Calibri" font-size="13" lengthAdjust="spacing" textLength="266.9761" x="26" y="68.1997">SecureStoragePreKeyStore _preKeyStore</text><rect fill="none" height="6" style="stroke:#C82930;stroke-width:1.0;" width="6" x="15" y="77.332"/><text fill="#FFFFFF" font-family="Calibri" font-size="13" lengthAdjust="spacing" textLength="354.2944" x="26" y="83.3325">SecureStorageSignedPreKeyStore _signedPreKeyStore</text><rect fill="none" height="6" style="stroke:#C82930;stroke-width:1.0;" width="6" x="15" y="92.4648"/><text fill="#FFFFFF" font-family="Calibri" font-size="13" lengthAdjust="spacing" textLength="273.4888" x="26" y="98.4653">SecureStorageSessionStore _sessionStore</text><rect fill="none" height="6" style="stroke:#C82930;stroke-width:1.0;" width="6" x="15" y="107.5977"/><text fill="#FFFFFF" font-family="Calibri" font-size="13" lengthAdjust="spacing" textLength="97.0874" x="26" y="113.5981">Logger _logger</text><line style="stroke:#957DAD;stroke-width:0.5;" x1="8" x2="640.3877" y1="120.6641" y2="120.6641"/><ellipse cx="18" cy="133.7305" fill="#84BE84" rx="3" ry="3" style="stroke:#038048;stroke-width:1.0;"/><text fill="#FFFFFF" font-family="Calibri" font-size="13" lengthAdjust="spacing" textLength="480.689" x="26" y="136.731">Future&lt;void&gt; initialize(bool installing, String name, String? accessToken)</text><ellipse cx="18" cy="148.8633" fill="#84BE84" rx="3" ry="3" style="stroke:#038048;stroke-width:1.0;"/><text fill="#FFFFFF" font-family="Calibri" font-size="13" lengthAdjust="spacing" textLength="514.1855" x="26" y="151.8638">Future&lt;PreKeyBundle?&gt; fetchPreKeyBundle(String name, String accessToken)</text><ellipse cx="18" cy="163.9961" fill="#84BE84" rx="3" ry="3" style="stroke:#038048;stroke-width:1.0;"/><text fill="#FFFFFF" font-family="Calibri" font-size="13" lengthAdjust="spacing" textLength="401.9907" x="26" y="166.9966">Future&lt;void&gt; buildSession(String name, String accessToken)</text><ellipse cx="18" cy="179.1289" fill="#84BE84" rx="3" ry="3" style="stroke:#038048;stroke-width:1.0;"/><text fill="#FFFFFF" font-family="Calibri" font-size="13" lengthAdjust="spacing" textLength="443.0283" x="26" y="182.1294">Future&lt;CiphertextMessage&gt; encrypt(String name, String message)</text><ellipse cx="18" cy="194.2617" fill="#84BE84" rx="3" ry="3" style="stroke:#038048;stroke-width:1.0;"/><text fill="#FFFFFF" font-family="Calibri" font-size="13" lengthAdjust="spacing" textLength="609.3877" x="26" y="197.2622">Future&lt;String&gt; decrypt(CiphertextMessage message, SignalProtocolAddress senderAddress)</text></g><!--SRC=[ZPTTRzCm58RlyolCk004NB0Fq2GOIjCEfctjQ8S4LvERd6RMNBiupc13_7TEudotjhTeRUFtiL-Vuw_a1PdTWr8i0N9F5QDB3XbPIKKuIsyrMSi4WcS9h9W0SZK_kmpdFs-YsSLiJfw_tpyQ7-ytwc8IpQRZZZuP5rUZXr4qcLxNul7HXt7OYjUJ7zStW_RtHyNLHxPC3euE3W_VDz1aFf_DQssyV_nk50N12p8sQWe25EM3I6F9yND3EMWD23_hz-CJsQj2tIl4OGyAsNIYb7jH5fe9jDHs15aG9ayjiSiXEYokaXc5qVcN-UpxTDpHJQvAlPk2GZ9Ps0kQ76qre1KLsOOg43h8xfZ0dtHD_WOZ6j-bIkOYYSeK3Ii6YrkQoDzCf6H5UGP1g9JyRTXUc4OubK8RSJiHBR5WZq3U7GG1ZXdDkIxAfdGD9AASBHNhbjTifyXgqAsc7pWG8TMQyY2CjLJ3I0T3K45I9Q0Cq1rcephDWqYkDr9WWdrEBMXpQmYtuvXgkgGP-0mRpkPN0swxK6cseh4tleQp9hC2t7PJt9TyLYLZiob4jyNt3E8dvA_6R4QLxlOwbHnh-wmgokPaP8yHhcnlI0QosXIgssKEiQOYvLwd5hIvDOHd-gLFM5i6iawyrBkcHaNRL3tuZ1hEvbK3lar3Q2MvVyimc7t3A7MtrqHefhs1LPJDoSXkepEXGU42zywD5hJPDOJRyGgDQEhrgp6RMwMxlRxba7kT36JpALMtIn1nccL3cpva4EkSADJMvFbf-MUAGwqLM-OQjdK4P9vu9sG9sQrHTSUtmFFq2IDMOpQdIdTxNT0bSE-JZg4wHhi9ZnNW5kFDNaNPWZAoxtJKMyaRd7xQTJHsXtxOFLm7U4B7R4EtDzn-DxgWVL4rp8xPje1VEOWOlg37nctMHwqpeajz1TexBxTiBzWA_mLucsj0Lyx_uRgDY_L55YmLb5yfUO-lNGeVjDyk8CuLLFFrB85o7ps7Xw84o0qRb0mgN2besKrxCy0AMqXwS3Oi6bQ1B6DIr7JdBdXx8TCKUt_3o-_WzMckiUB7UycI4y84qmmVs1_XvL9AZlUPffpZgy8Rii3j1LyP13v6r3UV2OrZRFrQte5urRHbEZR2V7BuV49MeEFRRjdB7KtjRidqQfapdbGnFRrkn3Qte3JyqPSeObPE20wwUjZedMsi3TJMD-Kd905JQQkzkigRTcPeYM-bOP8eL4Y62nvKTVSg-FSV]--></g></svg>