<svg xmlns="http://www.w3.org/2000/svg" xmlns:xlink="http://www.w3.org/1999/xlink" contentStyleType="text/css" height="170px" preserveAspectRatio="none" style="width:1215px;height:170px;" version="1.1" viewBox="0 0 1215 170" width="1215px" zoomAndPan="magnify"><defs/><g><!--cluster Client--><g id="cluster_Client"><path d="M8.5,50.65 L52.2388,50.65 A3.75,3.75 0 0 1 54.7388,53.15 L61.7388,71.7828 L195.5,71.7828 A2.5,2.5 0 0 1 198,74.2828 L198,161.28 A2.5,2.5 0 0 1 195.5,163.78 L8.5,163.78 A2.5,2.5 0 0 1 6,161.28 L6,53.15 A2.5,2.5 0 0 1 8.5,50.65 " fill="#353446" style="stroke:#957DAD;stroke-width:1.5;"/><line style="stroke:#957DAD;stroke-width:1.5;" x1="6" x2="61.7388" y1="71.7828" y2="71.7828"/><text fill="#EDEDED" font-family="Calibri" font-size="13" font-weight="bold" lengthAdjust="spacing" textLength="42.7388" x="10" y="64.7169">Client</text></g><!--cluster Serveur--><g id="cluster_Serveur"><path d="M495.5,50.65 L554.0479,50.65 A3.75,3.75 0 0 1 556.5479,53.15 L563.5479,71.7828 L815.5,71.7828 A2.5,2.5 0 0 1 818,74.2828 L818,161.28 A2.5,2.5 0 0 1 815.5,163.78 L495.5,163.78 A2.5,2.5 0 0 1 493,161.28 L493,53.15 A2.5,2.5 0 0 1 495.5,50.65 " fill="#353446" style="stroke:#957DAD;stroke-width:1.5;"/><line style="stroke:#957DAD;stroke-width:1.5;" x1="493" x2="563.5479" y1="71.7828" y2="71.7828"/><text fill="#EDEDED" font-family="Calibri" font-size="13" font-weight="bold" lengthAdjust="spacing" textLength="57.5479" x="497" y="64.7169">Serveur</text></g><!--cluster Base de donn?es--><g id="cluster_Base de donn&#233;es"><path d="M1064.5,50.65 L1190.0283,50.65 A3.75,3.75 0 0 1 1192.5283,53.15 L1199.5283,71.7828 L1205.5,71.7828 A2.5,2.5 0 0 1 1208,74.2828 L1208,161.28 A2.5,2.5 0 0 1 1205.5,163.78 L1064.5,163.78 A2.5,2.5 0 0 1 1062,161.28 L1062,53.15 A2.5,2.5 0 0 1 1064.5,50.65 " fill="#353446" style="stroke:#957DAD;stroke-width:1.5;"/><line style="stroke:#957DAD;stroke-width:1.5;" x1="1062" x2="1199.5283" y1="71.7828" y2="71.7828"/><text fill="#EDEDED" font-family="Calibri" font-size="13" font-weight="bold" lengthAdjust="spacing" textLength="124.5283" x="1066" y="64.7169">Base de donn&#233;es</text></g><!--entity Flutter Application--><g id="elem_Flutter Application"><rect fill="#353446" height="45.1328" rx="2.5" ry="2.5" style="stroke:#957DAD;stroke-width:0.5;" width="159.6343" x="22.18" y="102.65"/><rect fill="#353446" height="10" style="stroke:#957DAD;stroke-width:0.5;" width="15" x="161.8143" y="107.65"/><rect fill="#353446" height="2" style="stroke:#957DAD;stroke-width:0.5;" width="4" x="159.8143" y="109.65"/><rect fill="#353446" height="2" style="stroke:#957DAD;stroke-width:0.5;" width="4" x="159.8143" y="113.65"/><text fill="#EDEDED" font-family="Calibri" font-size="13" lengthAdjust="spacing" textLength="119.6343" x="37.18" y="134.7169">Flutter Application</text></g><!--entity REST API--><g id="elem_REST API"><rect fill="#353446" height="45.1328" rx="2.5" ry="2.5" style="stroke:#957DAD;stroke-width:0.5;" width="98.1382" x="508.93" y="102.65"/><rect fill="#353446" height="10" style="stroke:#957DAD;stroke-width:0.5;" width="15" x="587.0682" y="107.65"/><rect fill="#353446" height="2" style="stroke:#957DAD;stroke-width:0.5;" width="4" x="585.0682" y="109.65"/><rect fill="#353446" height="2" style="stroke:#957DAD;stroke-width:0.5;" width="4" x="585.0682" y="113.65"/><text fill="#EDEDED" font-family="Calibri" font-size="13" lengthAdjust="spacing" textLength="58.1382" x="523.93" y="134.7169">REST API</text></g><!--entity WebSocket Server--><g id="elem_WebSocket Server"><rect fill="#353446" height="45.1328" rx="2.5" ry="2.5" style="stroke:#957DAD;stroke-width:0.5;" width="159.8438" x="642.08" y="102.65"/><rect fill="#353446" height="10" style="stroke:#957DAD;stroke-width:0.5;" width="15" x="781.9238" y="107.65"/><rect fill="#353446" height="2" style="stroke:#957DAD;stroke-width:0.5;" width="4" x="779.9238" y="109.65"/><rect fill="#353446" height="2" style="stroke:#957DAD;stroke-width:0.5;" width="4" x="779.9238" y="113.65"/><text fill="#EDEDED" font-family="Calibri" font-size="13" lengthAdjust="spacing" textLength="119.8438" x="657.08" y="134.7169">WebSocket Server</text></g><!--entity PostgreSQL--><g id="elem_PostgreSQL"><rect fill="#353446" height="45.1328" rx="2.5" ry="2.5" style="stroke:#957DAD;stroke-width:0.5;" width="114.9849" x="1077.51" y="102.65"/><rect fill="#353446" height="10" style="stroke:#957DAD;stroke-width:0.5;" width="15" x="1172.4949" y="107.65"/><rect fill="#353446" height="2" style="stroke:#957DAD;stroke-width:0.5;" width="4" x="1170.4949" y="109.65"/><rect fill="#353446" height="2" style="stroke:#957DAD;stroke-width:0.5;" width="4" x="1170.4949" y="113.65"/><text fill="#EDEDED" font-family="Calibri" font-size="13" lengthAdjust="spacing" textLength="74.9849" x="1092.51" y="134.7169">PostgreSQL</text></g><!--link Flutter Application to REST API--><g id="link_Flutter Application_REST API"><path d="M182.14,136.35 C211.69,139.94 245.5,143.45 276.37,145.21 C337.61,148.71 353.19,149.45 414.37,145.21 C445.89,143.03 475.104,139.1194 502.734,134.7394 " fill="none" id="Flutter Application-to-REST API" style="stroke:#625D92;stroke-width:1.0;"/><polygon fill="#625D92" points="508.66,133.8,499.1447,131.2584,503.7217,134.5828,500.3973,139.1598,508.66,133.8" style="stroke:#625D92;stroke-width:1.0;"/><text fill="#EDEDED" font-family="Calibri" font-size="13" lengthAdjust="spacing" textLength="136.9189" x="277.37" y="141.2769">Gestion des comptes</text></g><!--link Flutter Application to REST API--><g id="link_Flutter Application_REST API"><path d="M182.21,125.21 C276.51,125.21 424.08,125.21 502.5,125.21 " fill="none" id="Flutter Application-to-REST API-1" style="stroke:#625D92;stroke-width:1.0;"/><polygon fill="#625D92" points="508.5,125.21,499.5,121.21,503.5,125.21,499.5,129.21,508.5,125.21" style="stroke:#625D92;stroke-width:1.0;"/><text fill="#EDEDED" font-family="Calibri" font-size="13" lengthAdjust="spacing" textLength="291.1353" x="199.87" y="118.2769">R&#233;cup&#233;ration et stockage des cl&#233;s publiques</text></g><!--link Flutter Application to WebSocket Server--><g id="link_Flutter Application_WebSocket Server"><path d="M143.43,102.2 C183.58,81.29 246.93,51.98 306,40.16 C375.51,26.25 558.68,17.61 625,42.65 C657.07,54.75 681.8776,77.9822 699.6076,97.9622 " fill="none" id="Flutter Application-to-WebSocket Server" style="stroke:#625D92;stroke-width:1.0;"/><polygon fill="#625D92" points="703.59,102.45,700.6082,93.0634,700.2713,98.7102,694.6245,98.3732,703.59,102.45" style="stroke:#625D92;stroke-width:1.0;"/><text fill="#EDEDED" font-family="Calibri" font-size="13" lengthAdjust="spacing" textLength="168.3018" x="307" y="30.7169">Messagerie en temps r&#233;el</text></g><!--link REST API to PostgreSQL--><g id="link_REST API_PostgreSQL"><path d="M569.35,102.44 C580.53,82.74 599.62,55.46 625,42.65 C641.16,34.49 890.39,6 1005,40.16 C1045.58,52.25 1080.697,77.6275 1105.337,98.4475 " fill="none" id="REST API-to-PostgreSQL" style="stroke:#625D92;stroke-width:1.0;"/><polygon fill="#625D92" points="1109.92,102.32,1105.6272,93.4559,1106.1008,99.0929,1100.4638,99.5666,1109.92,102.32" style="stroke:#625D92;stroke-width:1.0;"/><text fill="#EDEDED" font-family="Calibri" font-size="13" lengthAdjust="spacing" textLength="324.9111" x="680" y="30.7169">Gestion du compte &amp; stockage des cl&#233;s publiques</text></g><!--link WebSocket Server to PostgreSQL--><g id="link_WebSocket Server_PostgreSQL"><path d="M802.12,125.21 C882.81,125.21 999.34,125.21 1071.06,125.21 " fill="none" id="WebSocket Server-to-PostgreSQL" style="stroke:#625D92;stroke-width:1.0;"/><polygon fill="#625D92" points="1077.06,125.21,1068.06,121.21,1072.06,125.21,1068.06,129.21,1077.06,125.21" style="stroke:#625D92;stroke-width:1.0;"/><text fill="#EDEDED" font-family="Calibri" font-size="13" lengthAdjust="spacing" textLength="239.8145" x="820.21" y="118.2769">Stockage des messages temporaires</text></g><!--SRC=[ZPVTRjCm68RFSnLUaU28W_s1XWHIcdHZOhGZsGG88UIcNuirrmws0mB41UqwTcCuTfecJMrlNQSfxsC__fpORWyMi2GCq7Ls-JxEFdzBPbUp33rvSNIQdXr51qsQJvBPDEtanwV79oSlsZnEaidqPXEUdRvCuxGDRoQVRhxjz3z9wrSV6KYIa_hLGfCicsMRB3qwEnmdKVGCfJPT0GE1AVg91S5p2X8jkK05f_flYIae1He-w8_ZDHerfOxgS7S4TMmhDN6loZgpXPfiJv4rOUlS4liCjap3ZEFatKKskvscdVneNBzCtfs2EhApC8hQEHfqe0HciiG2c8ha7M7wNxn6VwCnBkvMWbTiaPWfscqOvT_nWlyYR8MMc4g8OY7uBylsohJ1EMVAXiE9s18v-GFey3YAz3t35LNrjIbU0qem9ND1kjStREUIKz1jfdvJG8oBDQPHN2WkTYlTkGKDnCK2X0MwjzccNdcKy7N9cPxWa6aBkcmjuJUcME4vbX0IjfpBjm7ykbWeiiH5iBwMSqvc0_XrKxu8LcOObwOE_OfR2SKZvc-3kKHDxdUTSwfRXrGDvJBPE23IApjOaeMScZhrMp8e56Oh6ZHjGPUj9GAFt-eHQyj2pWTl5LnJuxflB7w7H2tdScs0qAR1bE0ql6LOpBrXcDplcZ15LB2mXdAPREmNNJ85GY_muBEn1Lswbl0RhxK8huA-3UQoDRdVzQ62AcYoaCjZKhybIYYMSbVJXopYV2RgT2jvScv-xELOAK7cbO9XhW5UBO8Ff87SQftwwylrUVg8ExR1NAOczxkky1ney9EEfJgY_KH01NgB2SvUGxcAid7eT5I3oTiv_PJlQEpU-jtXwNMWJ-Y2b7YuuVQ7qGNTYwfbzZnjEVoeW1LmeHsbNzP7dKz4bteBk7TU3hHNPAdV38BTjQ1lpl_fTLlQFGID4ahqQJFI7xA_dDDAV-_GS5bIKc15EFjQmosRW_W9bJ1mDiblK7nz-JNwyX7cEI_kG243Y7wZiVxCWHRwbpFsS0_IjBxcKgq4v1-k3BnNZPw_GLiDUeKkGDQ1xapghqhhKe5yPCliuRweoeTxONAaHoeLj-CpdT67UudAQaw9daPVfuDITUVlGKhTao20W245wr8YeIkbdKaoZJj5TwkfccBGqy2eXl9XhtctXxKTcJI3qZiG4I3_0m00]--></g></svg>