<svg xmlns="http://www.w3.org/2000/svg" xmlns:xlink="http://www.w3.org/1999/xlink" contentStyleType="text/css" height="399px" preserveAspectRatio="none" style="width:872px;height:399px;" version="1.1" viewBox="0 0 872 399" width="872px" zoomAndPan="magnify"><defs/><g><rect fill="#957DAD" height="215.0625" style="stroke:#957DAD;stroke-width:1.0;" width="10" x="306.325" y="97.2656"/><rect fill="#957DAD" height="29.1328" style="stroke:#957DAD;stroke-width:1.0;" width="10" x="791.5354" y="192.7969"/><rect fill="#353446" height="150.9297" style="stroke:#957DAD;stroke-width:1.5;" width="855.3472" x="10" y="154.3984"/><rect fill="#353446" height="46.2656" style="stroke:none;stroke-width:1.0;" width="855.3472" x="10" y="259.0625"/><line style="stroke:#957DAD;stroke-width:0.5;stroke-dasharray:5.0,5.0;" x1="63" x2="63" y1="66.1328" y2="322.3281"/><line style="stroke:#957DAD;stroke-width:0.5;stroke-dasharray:5.0,5.0;" x1="311.0417" x2="311.0417" y1="66.1328" y2="322.3281"/><line style="stroke:#957DAD;stroke-width:0.5;stroke-dasharray:5.0,5.0;" x1="795.7236" x2="795.7236" y1="66.1328" y2="322.3281"/><rect fill="#625D92" height="29.1328" rx="2.5" ry="2.5" style="stroke:#957DAD;stroke-width:0.5;" width="86.6362" x="20" y="36"/><text fill="#FFFFFF" font-family="Calibri" font-size="13" lengthAdjust="spacing" textLength="72.6362" x="27" y="55.0669">Application</text><rect fill="#625D92" height="29.1328" rx="2.5" ry="2.5" style="stroke:#957DAD;stroke-width:0.5;" width="86.6362" x="20" y="321.3281"/><text fill="#FFFFFF" font-family="Calibri" font-size="13" lengthAdjust="spacing" textLength="72.6362" x="27" y="340.395">Application</text><rect fill="#625D92" height="29.1328" rx="2.5" ry="2.5" style="stroke:#957DAD;stroke-width:0.5;" width="34.5664" x="294.0417" y="36"/><text fill="#FFFFFF" font-family="Calibri" font-size="13" lengthAdjust="spacing" textLength="20.5664" x="301.0417" y="55.0669">API</text><rect fill="#625D92" height="29.1328" rx="2.5" ry="2.5" style="stroke:#957DAD;stroke-width:0.5;" width="34.5664" x="294.0417" y="321.3281"/><text fill="#FFFFFF" font-family="Calibri" font-size="13" lengthAdjust="spacing" textLength="20.5664" x="301.0417" y="340.395">API</text><text fill="#EDEDED" font-family="Calibri" font-size="13" lengthAdjust="spacing" textLength="111.6235" x="737.7236" y="63.0669">Base de donn&#233;es</text><path d="M778.5354,15 C778.5354,5 796.5354,5 796.5354,5 C796.5354,5 814.5354,5 814.5354,15 L814.5354,41 C814.5354,51 796.5354,51 796.5354,51 C796.5354,51 778.5354,51 778.5354,41 L778.5354,15 " fill="#353446" style="stroke:#957DAD;stroke-width:1.5;"/><path d="M778.5354,15 C778.5354,25 796.5354,25 796.5354,25 C796.5354,25 814.5354,25 814.5354,15 " fill="none" style="stroke:#957DAD;stroke-width:1.5;"/><text fill="#EDEDED" font-family="Calibri" font-size="13" lengthAdjust="spacing" textLength="111.6235" x="737.7236" y="333.395">Base de donn&#233;es</text><path d="M778.5354,346.4609 C778.5354,336.4609 796.5354,336.4609 796.5354,336.4609 C796.5354,336.4609 814.5354,336.4609 814.5354,346.4609 L814.5354,372.4609 C814.5354,382.4609 796.5354,382.4609 796.5354,382.4609 C796.5354,382.4609 778.5354,382.4609 778.5354,372.4609 L778.5354,346.4609 " fill="#353446" style="stroke:#957DAD;stroke-width:1.5;"/><path d="M778.5354,346.4609 C778.5354,356.4609 796.5354,356.4609 796.5354,356.4609 C796.5354,356.4609 814.5354,356.4609 814.5354,346.4609 " fill="none" style="stroke:#957DAD;stroke-width:1.5;"/><rect fill="#957DAD" height="215.0625" style="stroke:#957DAD;stroke-width:1.0;" width="10" x="306.325" y="97.2656"/><rect fill="#957DAD" height="29.1328" style="stroke:#957DAD;stroke-width:1.0;" width="10" x="791.5354" y="192.7969"/><polygon fill="#625D92" points="294.325,93.2656,304.325,97.2656,294.325,101.2656,298.325,97.2656" style="stroke:#625D92;stroke-width:1.0;"/><line style="stroke:#625D92;stroke-width:1.0;" x1="63.3181" x2="300.325" y1="97.2656" y2="97.2656"/><text fill="#EDEDED" font-family="Calibri" font-size="13" lengthAdjust="spacing" textLength="102.6543" x="70.3181" y="92.1997">GET /users/{id}</text><line style="stroke:#625D92;stroke-width:1.0;" x1="316.325" x2="358.325" y1="126.3984" y2="126.3984"/><line style="stroke:#625D92;stroke-width:1.0;" x1="358.325" x2="358.325" y1="126.3984" y2="139.3984"/><line style="stroke:#625D92;stroke-width:1.0;" x1="317.325" x2="358.325" y1="139.3984" y2="139.3984"/><polygon fill="#625D92" points="327.325,135.3984,317.325,139.3984,327.325,143.3984,323.325,139.3984" style="stroke:#625D92;stroke-width:1.0;"/><text fill="#EDEDED" font-family="Calibri" font-size="13" lengthAdjust="spacing" textLength="451.2104" x="323.325" y="121.3325">V&#233;rification des permissions du jeton d'acc&#232;s (user:read dans ce cas)</text><path d="M10,154.3984 L74.4429,154.3984 L74.4429,161.5313 L64.4429,171.5313 L10,171.5313 L10,154.3984 " fill="#625D92" style="stroke:#957DAD;stroke-width:1.5;"/><rect fill="none" height="150.9297" style="stroke:#957DAD;stroke-width:1.5;" width="855.3472" x="10" y="154.3984"/><text fill="#FFFFFF" font-family="Calibri" font-size="13" font-weight="bold" lengthAdjust="spacing" textLength="19.4429" x="25" y="167.4653">alt</text><text fill="#EDEDED" font-family="Calibri" font-size="13" font-weight="bold" lengthAdjust="spacing" textLength="254.2363" x="89.4429" y="168.4653">[Permissions pr&#233;sentes et valides]</text><polygon fill="#625D92" points="779.5354,188.7969,789.5354,192.7969,779.5354,196.7969,783.5354,192.7969" style="stroke:#625D92;stroke-width:1.0;"/><line style="stroke:#625D92;stroke-width:1.0;" x1="316.325" x2="785.5354" y1="192.7969" y2="192.7969"/><text fill="#EDEDED" font-family="Calibri" font-size="13" lengthAdjust="spacing" textLength="214.9824" x="323.325" y="187.731">Requ&#234;te des donn&#233;es de compte</text><polygon fill="#625D92" points="327.325,217.9297,317.325,221.9297,327.325,225.9297,323.325,221.9297" style="stroke:#625D92;stroke-width:1.0;"/><line style="stroke:#625D92;stroke-width:1.0;stroke-dasharray:2.0,2.0;" x1="321.325" x2="795.5354" y1="221.9297" y2="221.9297"/><text fill="#EDEDED" font-family="Calibri" font-size="13" lengthAdjust="spacing" textLength="196.0791" x="333.325" y="216.8638">Envoi des donn&#233;es de compte</text><polygon fill="#625D92" points="74.3181,247.0625,64.3181,251.0625,74.3181,255.0625,70.3181,251.0625" style="stroke:#625D92;stroke-width:1.0;"/><line style="stroke:#625D92;stroke-width:1.0;stroke-dasharray:2.0,2.0;" x1="68.3181" x2="305.325" y1="251.0625" y2="251.0625"/><text fill="#EDEDED" font-family="Calibri" font-size="13" lengthAdjust="spacing" textLength="196.0791" x="80.3181" y="245.9966">Envoi des donn&#233;es de compte</text><line style="stroke:#957DAD;stroke-width:1.0;stroke-dasharray:2.0,2.0;" x1="10" x2="865.3472" y1="260.0625" y2="260.0625"/><text fill="#EDEDED" font-family="Calibri" font-size="13" font-weight="bold" lengthAdjust="spacing" textLength="264.6465" x="15" y="272.1294">[Permissions absentes ou invalides]</text><polygon fill="#625D92" points="74.3181,293.3281,64.3181,297.3281,74.3181,301.3281,70.3181,297.3281" style="stroke:#625D92;stroke-width:1.0;"/><line style="stroke:#625D92;stroke-width:1.0;stroke-dasharray:2.0,2.0;" x1="68.3181" x2="305.325" y1="297.3281" y2="297.3281"/><text fill="#EDEDED" font-family="Calibri" font-size="13" lengthAdjust="spacing" textLength="219.0068" x="80.3181" y="292.2622">Envoi d'une erreur 403 Forbidden</text><!--SRC=[ZPVVRjis5CRl-HICUv7jekYQForIO0DasSc2PNOcfyDsLT3IiSUL9ZMAIj4LVPzch-4Nsw4eoP9jYebY8z7tyVnu3acHEibWnING- -JsroZvyqCylvidzCMRiyl9rHavgTN5D9xF9Xtz_FByuk9DgqTnF9qzDEBLvTj9D6d5X-aV3n_suaydzkfR3Y3nXRrQqpH9vacZJSwkNezZGaxfnAbhaA2Pe8zCSxOKKD2LqZHL0hzp9i0OGFD9lny_qb6TwiYA-psmiikqadjPMiqbMcb7ahGEb-VESOpWqgmyuoZ-vIQPlvzDElhPs5wLtYs1bLmLHgIjqK40evaiSgP16b9yv1B_P1lwXOnP-d6jLIcpk2hHVaEo-8jbwXENQxfYeW0IQQq-EMylJITSAscSU5Y8dMF1_mNw-fmG73DM2cFlpTW6QCm4NshUlTzuExUyW6upyra0bKflc21HQfJUptHl26gJqXbeP-WEirC7uIHMcrn9B728j3FwQArZc3XXXYrP0I5Ww_Fn6iCmBjA6hrWQpA_rUOjP6uPnCvK5CwiyFemLXn7l2qYVKR_6vWFL-Z3hMWbi7KBLBX_9oG4GhknWIixanLXrc990QfXSYo1fP_JHMaTW-gsViRQSoJlnri4rDRQncVuS0hK-7winX1uQqcWbmeyCP_C_C2fzc3MLXfjWOhNBHtBoCEXM6j2um8DpOsVquLh7CF4UGMmTv3Ks7wtMXrc_bL06ISxaurJgC8N4WXN5FgPlSXRldB3g3lBYklfnjoDZD5-M1WvrDAWo2qx8okH7epgStmBtqsUCM6FpaMfzc7N7bY229ntdwe2EEm8em4TCi7grovUKaqExepaetjxkPuQsnkxGxtSFrm7kq2dFsU43jz-Dhj6_g5hFaTcsW7zAa2dS82CVXlMjtXdHTVqChBTV7c3l-0e_4eBXMkDGpR_YkirtwT9HbEU2fynm9KUK5JGMt9x0kvxe_fPazVcBZiRsEyDV9UNs2OggLNCyislJjgSlVxBDw3jwCtsWhye2TF7g2y- -4ZnKyKTce8fgBQtpz-sJvgkwBqWeQ0vwmui2_oreLjA_mLZXbANfzbj1lxDHtsci7ytmrO6cGF6CypqXJ1XwtscQw-rJWPt2Y63mjKjm3DwmcvvZ1n8ivFO_0nMxIS-cck9X5r_AsgwtsRQDNxPPJEMZuhu86Hp6gFg1pUl21I80lk7qacFBEZLLKYvxoHq9UbhYgnTe3QMc5p-SqskbbppBG19SpjtkOO3_0G00]--></g></svg>