<svg xmlns="http://www.w3.org/2000/svg" xmlns:xlink="http://www.w3.org/1999/xlink" contentStyleType="text/css" height="483px" preserveAspectRatio="none" style="width:627px;height:483px;" version="1.1" viewBox="0 0 627 483" width="627px" zoomAndPan="magnify"><defs/><g><rect fill="#957DAD" height="299.3281" style="stroke:#957DAD;stroke-width:1.0;" width="10" x="328.2244" y="97.2656"/><rect fill="#957DAD" height="29.1328" style="stroke:#957DAD;stroke-width:1.0;" width="10" x="562.8547" y="126.3984"/><rect fill="#EDEDED" height="176.9297" style="stroke:#957DAD;stroke-width:1.5;" width="521.1018" x="10" y="212.6641"/><rect fill="#EDEDED" height="46.2656" style="stroke:none;stroke-width:1.0;" width="521.1018" x="10" y="343.3281"/><line style="stroke:#957DAD;stroke-width:0.5;stroke-dasharray:5.0,5.0;" x1="63" x2="63" y1="66.1328" y2="406.5938"/><line style="stroke:#957DAD;stroke-width:0.5;stroke-dasharray:5.0,5.0;" x1="332.9412" x2="332.9412" y1="66.1328" y2="406.5938"/><line style="stroke:#957DAD;stroke-width:0.5;stroke-dasharray:5.0,5.0;" x1="567.043" x2="567.043" y1="66.1328" y2="406.5938"/><rect fill="#625D92" height="29.1328" rx="2.5" ry="2.5" style="stroke:#957DAD;stroke-width:0.5;" width="86.6362" x="20" y="36"/><text fill="#FFFFFF" font-family="Calibri" font-size="13" lengthAdjust="spacing" textLength="72.6362" x="27" y="55.0669">Application</text><rect fill="#625D92" height="29.1328" rx="2.5" ry="2.5" style="stroke:#957DAD;stroke-width:0.5;" width="86.6362" x="20" y="405.5938"/><text fill="#FFFFFF" font-family="Calibri" font-size="13" lengthAdjust="spacing" textLength="72.6362" x="27" y="424.6606">Application</text><rect fill="#625D92" height="29.1328" rx="2.5" ry="2.5" style="stroke:#957DAD;stroke-width:0.5;" width="34.5664" x="315.9412" y="36"/><text fill="#FFFFFF" font-family="Calibri" font-size="13" lengthAdjust="spacing" textLength="20.5664" x="322.9412" y="55.0669">API</text><rect fill="#625D92" height="29.1328" rx="2.5" ry="2.5" style="stroke:#957DAD;stroke-width:0.5;" width="34.5664" x="315.9412" y="405.5938"/><text fill="#FFFFFF" font-family="Calibri" font-size="13" lengthAdjust="spacing" textLength="20.5664" x="322.9412" y="424.6606">API</text><text fill="#2B2B2B" font-family="Calibri" font-size="13" lengthAdjust="spacing" textLength="111.6235" x="509.043" y="63.0669">Base de donn&#233;es</text><path d="M549.8547,15 C549.8547,5 567.8547,5 567.8547,5 C567.8547,5 585.8547,5 585.8547,15 L585.8547,41 C585.8547,51 567.8547,51 567.8547,51 C567.8547,51 549.8547,51 549.8547,41 L549.8547,15 " fill="#EDEDED" style="stroke:#957DAD;stroke-width:1.5;"/><path d="M549.8547,15 C549.8547,25 567.8547,25 567.8547,25 C567.8547,25 585.8547,25 585.8547,15 " fill="none" style="stroke:#957DAD;stroke-width:1.5;"/><text fill="#2B2B2B" font-family="Calibri" font-size="13" lengthAdjust="spacing" textLength="111.6235" x="509.043" y="417.6606">Base de donn&#233;es</text><path d="M549.8547,430.7266 C549.8547,420.7266 567.8547,420.7266 567.8547,420.7266 C567.8547,420.7266 585.8547,420.7266 585.8547,430.7266 L585.8547,456.7266 C585.8547,466.7266 567.8547,466.7266 567.8547,466.7266 C567.8547,466.7266 549.8547,466.7266 549.8547,456.7266 L549.8547,430.7266 " fill="#EDEDED" style="stroke:#957DAD;stroke-width:1.5;"/><path d="M549.8547,430.7266 C549.8547,440.7266 567.8547,440.7266 567.8547,440.7266 C567.8547,440.7266 585.8547,440.7266 585.8547,430.7266 " fill="none" style="stroke:#957DAD;stroke-width:1.5;"/><rect fill="#957DAD" height="299.3281" style="stroke:#957DAD;stroke-width:1.0;" width="10" x="328.2244" y="97.2656"/><rect fill="#957DAD" height="29.1328" style="stroke:#957DAD;stroke-width:1.0;" width="10" x="562.8547" y="126.3984"/><polygon fill="#625D92" points="316.2244,93.2656,326.2244,97.2656,316.2244,101.2656,320.2244,97.2656" style="stroke:#625D92;stroke-width:1.0;"/><line style="stroke:#625D92;stroke-width:1.0;" x1="63.3181" x2="322.2244" y1="97.2656" y2="97.2656"/><text fill="#2B2B2B" font-family="Calibri" font-size="13" lengthAdjust="spacing" textLength="86.3662" x="70.3181" y="92.1997">POST /tokens</text><polygon fill="#625D92" points="550.8547,122.3984,560.8547,126.3984,550.8547,130.3984,554.8547,126.3984" style="stroke:#625D92;stroke-width:1.0;"/><line style="stroke:#625D92;stroke-width:1.0;" x1="338.2244" x2="556.8547" y1="126.3984" y2="126.3984"/><text fill="#2B2B2B" font-family="Calibri" font-size="13" lengthAdjust="spacing" textLength="181.1938" x="345.2244" y="121.3325">Requ&#234;te des donn&#233;es client</text><polygon fill="#625D92" points="349.2244,151.5313,339.2244,155.5313,349.2244,159.5313,345.2244,155.5313" style="stroke:#625D92;stroke-width:1.0;"/><line style="stroke:#625D92;stroke-width:1.0;stroke-dasharray:2.0,2.0;" x1="343.2244" x2="566.8547" y1="155.5313" y2="155.5313"/><text fill="#2B2B2B" font-family="Calibri" font-size="13" lengthAdjust="spacing" textLength="162.2905" x="355.2244" y="150.4653">Envoi des donn&#233;es client</text><line style="stroke:#625D92;stroke-width:1.0;" x1="338.2244" x2="380.2244" y1="184.6641" y2="184.6641"/><line style="stroke:#625D92;stroke-width:1.0;" x1="380.2244" x2="380.2244" y1="184.6641" y2="197.6641"/><line style="stroke:#625D92;stroke-width:1.0;" x1="339.2244" x2="380.2244" y1="197.6641" y2="197.6641"/><polygon fill="#625D92" points="349.2244,193.6641,339.2244,197.6641,349.2244,201.6641,345.2244,197.6641" style="stroke:#625D92;stroke-width:1.0;"/><text fill="#2B2B2B" font-family="Calibri" font-size="13" lengthAdjust="spacing" textLength="200.6304" x="345.2244" y="179.5981">V&#233;rification des donn&#233;es client</text><path d="M10,212.6641 L74.4429,212.6641 L74.4429,219.7969 L64.4429,229.7969 L10,229.7969 L10,212.6641 " fill="#625D92" style="stroke:#957DAD;stroke-width:1.5;"/><rect fill="none" height="176.9297" style="stroke:#957DAD;stroke-width:1.5;" width="521.1018" x="10" y="212.6641"/><text fill="#FFFFFF" font-family="Calibri" font-size="13" font-weight="bold" lengthAdjust="spacing" textLength="19.4429" x="25" y="225.731">alt</text><text fill="#2B2B2B" font-family="Calibri" font-size="13" font-weight="bold" lengthAdjust="spacing" textLength="274.6567" x="89.4429" y="226.731">[Donn&#233;es client pr&#233;sentes et valides]</text><line style="stroke:#625D92;stroke-width:1.0;" x1="338.2244" x2="380.2244" y1="251.0625" y2="251.0625"/><line style="stroke:#625D92;stroke-width:1.0;" x1="380.2244" x2="380.2244" y1="251.0625" y2="264.0625"/><line style="stroke:#625D92;stroke-width:1.0;" x1="339.2244" x2="380.2244" y1="264.0625" y2="264.0625"/><polygon fill="#625D92" points="349.2244,260.0625,339.2244,264.0625,349.2244,268.0625,345.2244,264.0625" style="stroke:#625D92;stroke-width:1.0;"/><text fill="#2B2B2B" font-family="Calibri" font-size="13" lengthAdjust="spacing" textLength="161.4082" x="345.2244" y="245.9966">G&#233;n&#233;ration access token</text><line style="stroke:#625D92;stroke-width:1.0;" x1="338.2244" x2="380.2244" y1="293.1953" y2="293.1953"/><line style="stroke:#625D92;stroke-width:1.0;" x1="380.2244" x2="380.2244" y1="293.1953" y2="306.1953"/><line style="stroke:#625D92;stroke-width:1.0;" x1="339.2244" x2="380.2244" y1="306.1953" y2="306.1953"/><polygon fill="#625D92" points="349.2244,302.1953,339.2244,306.1953,349.2244,310.1953,345.2244,306.1953" style="stroke:#625D92;stroke-width:1.0;"/><text fill="#2B2B2B" font-family="Calibri" font-size="13" lengthAdjust="spacing" textLength="163.8774" x="345.2244" y="288.1294">G&#233;n&#233;ration refresh token</text><polygon fill="#625D92" points="74.3181,331.3281,64.3181,335.3281,74.3181,339.3281,70.3181,335.3281" style="stroke:#625D92;stroke-width:1.0;"/><line style="stroke:#625D92;stroke-width:1.0;stroke-dasharray:2.0,2.0;" x1="68.3181" x2="327.2244" y1="335.3281" y2="335.3281"/><text fill="#2B2B2B" font-family="Calibri" font-size="13" lengthAdjust="spacing" textLength="110.5889" x="80.3181" y="330.2622">Envoi des tokens</text><line style="stroke:#957DAD;stroke-width:1.0;stroke-dasharray:2.0,2.0;" x1="10" x2="531.1018" y1="344.3281" y2="344.3281"/><text fill="#2B2B2B" font-family="Calibri" font-size="13" font-weight="bold" lengthAdjust="spacing" textLength="285.0669" x="15" y="356.395">[Donn&#233;es client absentes ou invalides]</text><polygon fill="#625D92" points="74.3181,377.5938,64.3181,381.5938,74.3181,385.5938,70.3181,381.5938" style="stroke:#625D92;stroke-width:1.0;"/><line style="stroke:#625D92;stroke-width:1.0;stroke-dasharray:2.0,2.0;" x1="68.3181" x2="327.2244" y1="381.5938" y2="381.5938"/><text fill="#2B2B2B" font-family="Calibri" font-size="13" lengthAdjust="spacing" textLength="240.9063" x="80.3181" y="376.5278">Envoi d'une erreur 401 Unauthorized</text><!--SRC=[ZPVRRkCs48RlzHHSxqMk5jkSjaY15f0b9msQjLCvATgh1IsD7I8qwL9K5jkY3vHz3RzOXw8aws2AYH73uFznViw81_64B5v0APO1UQ6AqHM7dAob8fnjdZJPoWo2TncicG1odzn-3fE_laIBkqL2tdywkuolpXfrEOiMyxYbpsBpQVGmYcRpXrgyklmn3W_Ym-pFXo-z-6TJy-aY0vFpo_EBYqyDD4kIHL9hyTdLwJGAWXCIMtK30XJblKnJoV5xHpbe3GY_wuxZPpAfKfqOiJy28zj1b78dIwFPH4ljI9A6i7Kw4CSSeWlpAPbf6FrsaomUvt5BjxKgzNO9Z6IhC0cQ6Wq2Q4L5lgCAX0xoPoRm9zsIVuCfJPytIXOYYyeIzJi6ooUQoQzCRCYQyXo2K2dvrRATDArmBOMsuh0G1sB9_W5oUXu4-CnemRLfczCja8XojbAitLwphIQdGRkR_iQ12Acsb0TXggNgPzfx11KaLGRA0kt7RDLHyo2IsvqKM62Vqm5qkJN4k6DCDLtH77o63UVogu5nkr1fjgQfDx-6SnQp0iRjvhWl-QnAncLZn76BnnpIDzIlnbn6bJxkTIqvzlPPLPJBoSeU8rpPtfGivBGnwhXB0gccOiEzJWVGvTOGdkctUSFQif1pucsyQsfgObFrpMVKS2wl6l1j6a8hoVrRXiNS6qQfZtlDX6RQcrX5kPoiF6vqApGeNE3UkN40NNODCUvuZqPqu_MhCPTRfOzx_Lv0uNMoaCkdLCTTWeZJFE_RT26BEEU4KGycxw_BFziSQgtOgj0mr16GHUQTa2NajaPrFBybdgTlU68rvdAgz76lExe2xdtJiLJBw3ZXiGBSOhpLgoXNKbRsdOvwKBpUwQV7ZiRse-yF3zS1dj0fsz7XXjiTHXjqBwg6EJBRbl1t0IA56_JOZPjrKUUCQ5E_0ksSbmFRExR6Vm7US0quLlF_SDtk3kcIIRZRSPPIpQIO49gJY3Fp1jvcmllR8AlUlyXaQhxnefP98VQla9UzwjSpipPDV_BX5zED_4Jk5yi7yb7BPn1vW6zKx8LgA4CQ7R6wAx89PhB_hatul8bFKZkYfc_ZrVJyqBZDn8jaHxjdC0nGZS1s_MF_gjYwAiNH407bciJTHh9J-zSSVs0BQBpJSRp4vjt8D_jNxA9iO9gcaEUaBCW8fc2j87zgSmXMnMtdMLKMyEOp61jTLIEJ1M6YCxOZmKuAl9RXBHmAHIv-E2MFWXRwIIgytcG1hlPs2J76_m00]--></g></svg>