<svg xmlns="http://www.w3.org/2000/svg" xmlns:xlink="http://www.w3.org/1999/xlink" contentStyleType="text/css" height="543px" preserveAspectRatio="none" style="width:892px;height:543px;" version="1.1" viewBox="0 0 892 543" width="892px" zoomAndPan="magnify"><defs/><g><rect fill="#957DAD" height="334.4609" style="stroke:#957DAD;stroke-width:1.0;" width="10" x="300.6523" y="111.2656"/><rect fill="#957DAD" height="87.3984" style="stroke:#957DAD;stroke-width:1.0;" width="10" x="561.2656" y="235.9297"/><rect fill="#957DAD" height="29.1328" style="stroke:#957DAD;stroke-width:1.0;" width="10" x="811.9556" y="265.0625"/><rect fill="#353446" height="291.3281" style="stroke:#957DAD;stroke-width:1.5;" width="875.7673" x="10" y="126.2656"/><rect fill="#353446" height="44.1328" style="stroke:none;stroke-width:1.0;" width="875.7673" x="10" y="373.4609"/><line style="stroke:#957DAD;stroke-width:0.5;stroke-dasharray:5.0,5.0;" x1="56" x2="56" y1="80.1328" y2="463.7266"/><line style="stroke:#957DAD;stroke-width:0.5;stroke-dasharray:5.0,5.0;" x1="305.3342" x2="305.3342" y1="80.1328" y2="463.7266"/><line style="stroke:#957DAD;stroke-width:0.5;stroke-dasharray:5.0,5.0;" x1="565.9824" x2="565.9824" y1="80.1328" y2="463.7266"/><line style="stroke:#957DAD;stroke-width:0.5;stroke-dasharray:5.0,5.0;" x1="816.1438" x2="816.1438" y1="80.1328" y2="463.7266"/><text fill="#EDEDED" font-family="Calibri" font-size="13" lengthAdjust="spacing" textLength="66.8662" x="20" y="77.0669">Utilisateur</text><ellipse cx="56.4331" cy="13.5" fill="#353446" rx="8" ry="8" style="stroke:#957DAD;stroke-width:0.5;"/><path d="M56.4331,21.5 L56.4331,48.5 M43.4331,29.5 L69.4331,29.5 M56.4331,48.5 L43.4331,63.5 M56.4331,48.5 L69.4331,63.5 " fill="none" style="stroke:#957DAD;stroke-width:0.5;"/><text fill="#EDEDED" font-family="Calibri" font-size="13" lengthAdjust="spacing" textLength="66.8662" x="20" y="474.7935">Utilisateur</text><ellipse cx="56.4331" cy="486.3594" fill="#353446" rx="8" ry="8" style="stroke:#957DAD;stroke-width:0.5;"/><path d="M56.4331,494.3594 L56.4331,521.3594 M43.4331,502.3594 L69.4331,502.3594 M56.4331,521.3594 L43.4331,536.3594 M56.4331,521.3594 L69.4331,536.3594 " fill="none" style="stroke:#957DAD;stroke-width:0.5;"/><rect fill="#625D92" height="29.1328" rx="2.5" ry="2.5" style="stroke:#957DAD;stroke-width:0.5;" width="86.6362" x="262.3342" y="50"/><text fill="#FFFFFF" font-family="Calibri" font-size="13" lengthAdjust="spacing" textLength="72.6362" x="269.3342" y="69.0669">Application</text><rect fill="#625D92" height="29.1328" rx="2.5" ry="2.5" style="stroke:#957DAD;stroke-width:0.5;" width="86.6362" x="262.3342" y="462.7266"/><text fill="#FFFFFF" font-family="Calibri" font-size="13" lengthAdjust="spacing" textLength="72.6362" x="269.3342" y="481.7935">Application</text><rect fill="#625D92" height="29.1328" rx="2.5" ry="2.5" style="stroke:#957DAD;stroke-width:0.5;" width="34.5664" x="548.9824" y="50"/><text fill="#FFFFFF" font-family="Calibri" font-size="13" lengthAdjust="spacing" textLength="20.5664" x="555.9824" y="69.0669">API</text><rect fill="#625D92" height="29.1328" rx="2.5" ry="2.5" style="stroke:#957DAD;stroke-width:0.5;" width="34.5664" x="548.9824" y="462.7266"/><text fill="#FFFFFF" font-family="Calibri" font-size="13" lengthAdjust="spacing" textLength="20.5664" x="555.9824" y="481.7935">API</text><text fill="#EDEDED" font-family="Calibri" font-size="13" lengthAdjust="spacing" textLength="111.6235" x="758.1438" y="77.0669">Base de donn&#233;es</text><path d="M798.9556,29 C798.9556,19 816.9556,19 816.9556,19 C816.9556,19 834.9556,19 834.9556,29 L834.9556,55 C834.9556,65 816.9556,65 816.9556,65 C816.9556,65 798.9556,65 798.9556,55 L798.9556,29 " fill="#353446" style="stroke:#957DAD;stroke-width:1.5;"/><path d="M798.9556,29 C798.9556,39 816.9556,39 816.9556,39 C816.9556,39 834.9556,39 834.9556,29 " fill="none" style="stroke:#957DAD;stroke-width:1.5;"/><text fill="#EDEDED" font-family="Calibri" font-size="13" lengthAdjust="spacing" textLength="111.6235" x="758.1438" y="474.7935">Base de donn&#233;es</text><path d="M798.9556,487.8594 C798.9556,477.8594 816.9556,477.8594 816.9556,477.8594 C816.9556,477.8594 834.9556,477.8594 834.9556,487.8594 L834.9556,513.8594 C834.9556,523.8594 816.9556,523.8594 816.9556,523.8594 C816.9556,523.8594 798.9556,523.8594 798.9556,513.8594 L798.9556,487.8594 " fill="#353446" style="stroke:#957DAD;stroke-width:1.5;"/><path d="M798.9556,487.8594 C798.9556,497.8594 816.9556,497.8594 816.9556,497.8594 C816.9556,497.8594 834.9556,497.8594 834.9556,487.8594 " fill="none" style="stroke:#957DAD;stroke-width:1.5;"/><rect fill="#957DAD" height="334.4609" style="stroke:#957DAD;stroke-width:1.0;" width="10" x="300.6523" y="111.2656"/><rect fill="#957DAD" height="87.3984" style="stroke:#957DAD;stroke-width:1.0;" width="10" x="561.2656" y="235.9297"/><rect fill="#957DAD" height="29.1328" style="stroke:#957DAD;stroke-width:1.0;" width="10" x="811.9556" y="265.0625"/><polygon fill="#625D92" points="288.6523,107.2656,298.6523,111.2656,288.6523,115.2656,292.6523,111.2656" style="stroke:#625D92;stroke-width:1.0;"/><line style="stroke:#625D92;stroke-width:1.0;" x1="56.4331" x2="294.6523" y1="111.2656" y2="111.2656"/><text fill="#EDEDED" font-family="Calibri" font-size="13" lengthAdjust="spacing" textLength="164.0488" x="63.4331" y="106.1997">Acc&#232;s &#224; la page d'accueil</text><path d="M10,126.2656 L74.4429,126.2656 L74.4429,133.3984 L64.4429,143.3984 L10,143.3984 L10,126.2656 " fill="#625D92" style="stroke:#957DAD;stroke-width:1.5;"/><rect fill="none" height="291.3281" style="stroke:#957DAD;stroke-width:1.5;" width="875.7673" x="10" y="126.2656"/><text fill="#FFFFFF" font-family="Calibri" font-size="13" font-weight="bold" lengthAdjust="spacing" textLength="19.4429" x="25" y="139.3325">alt</text><text fill="#EDEDED" font-family="Calibri" font-size="13" font-weight="bold" lengthAdjust="spacing" textLength="387.918" x="89.4429" y="140.3325">[Premi&#232;re connexion au compte sur ce p&#233;riph&#233;rique]</text><polygon fill="#625D92" points="67.4331,160.6641,57.4331,164.6641,67.4331,168.6641,63.4331,164.6641" style="stroke:#625D92;stroke-width:1.0;"/><line style="stroke:#625D92;stroke-width:1.0;" x1="61.4331" x2="299.6523" y1="164.6641" y2="164.6641"/><text fill="#EDEDED" font-family="Calibri" font-size="13" lengthAdjust="spacing" textLength="140.3721" x="73.4331" y="159.5981">&#201;cran de chargement</text><line style="stroke:#625D92;stroke-width:1.0;" x1="310.6523" x2="352.6523" y1="193.7969" y2="193.7969"/><line style="stroke:#625D92;stroke-width:1.0;" x1="352.6523" x2="352.6523" y1="193.7969" y2="206.7969"/><line style="stroke:#625D92;stroke-width:1.0;" x1="311.6523" x2="352.6523" y1="206.7969" y2="206.7969"/><polygon fill="#625D92" points="321.6523,202.7969,311.6523,206.7969,321.6523,210.7969,317.6523,206.7969" style="stroke:#625D92;stroke-width:1.0;"/><text fill="#EDEDED" font-family="Calibri" font-size="13" lengthAdjust="spacing" textLength="129.3398" x="317.6523" y="188.731">G&#233;n&#233;ration des cl&#233;s</text><polygon fill="#625D92" points="549.2656,231.9297,559.2656,235.9297,549.2656,239.9297,553.2656,235.9297" style="stroke:#625D92;stroke-width:1.0;"/><line style="stroke:#625D92;stroke-width:1.0;" x1="310.6523" x2="555.2656" y1="235.9297" y2="235.9297"/><text fill="#EDEDED" font-family="Calibri" font-size="13" lengthAdjust="spacing" textLength="231.6133" x="317.6523" y="230.8638">Envoi de la partie publique des cl&#233;s</text><polygon fill="#625D92" points="799.9556,261.0625,809.9556,265.0625,799.9556,269.0625,803.9556,265.0625" style="stroke:#625D92;stroke-width:1.0;"/><line style="stroke:#625D92;stroke-width:1.0;" x1="571.2656" x2="805.9556" y1="265.0625" y2="265.0625"/><text fill="#EDEDED" font-family="Calibri" font-size="13" lengthAdjust="spacing" textLength="157.6885" x="578.2656" y="259.9966">Enregistrement des cl&#233;s</text><polygon fill="#625D92" points="582.2656,290.1953,572.2656,294.1953,582.2656,298.1953,578.2656,294.1953" style="stroke:#625D92;stroke-width:1.0;"/><line style="stroke:#625D92;stroke-width:1.0;" x1="576.2656" x2="815.9556" y1="294.1953" y2="294.1953"/><text fill="#EDEDED" font-family="Calibri" font-size="13" lengthAdjust="spacing" textLength="216.6899" x="588.2656" y="289.1294">Confirmation de l'enregistrement</text><polygon fill="#625D92" points="321.6523,319.3281,311.6523,323.3281,321.6523,327.3281,317.6523,323.3281" style="stroke:#625D92;stroke-width:1.0;"/><line style="stroke:#625D92;stroke-width:1.0;" x1="315.6523" x2="565.2656" y1="323.3281" y2="323.3281"/><text fill="#EDEDED" font-family="Calibri" font-size="13" lengthAdjust="spacing" textLength="224.6245" x="327.6523" y="318.2622">Confirmation du stockage des cl&#233;s</text><line style="stroke:#625D92;stroke-width:1.0;" x1="310.6523" x2="352.6523" y1="352.4609" y2="352.4609"/><line style="stroke:#625D92;stroke-width:1.0;" x1="352.6523" x2="352.6523" y1="352.4609" y2="365.4609"/><line style="stroke:#625D92;stroke-width:1.0;" x1="311.6523" x2="352.6523" y1="365.4609" y2="365.4609"/><polygon fill="#625D92" points="321.6523,361.4609,311.6523,365.4609,321.6523,369.4609,317.6523,365.4609" style="stroke:#625D92;stroke-width:1.0;"/><text fill="#EDEDED" font-family="Calibri" font-size="13" lengthAdjust="spacing" textLength="171.8057" x="317.6523" y="347.395">Stockage des cl&#233;s en local</text><line style="stroke:#957DAD;stroke-width:1.0;stroke-dasharray:2.0,2.0;" x1="10" x2="885.7673" y1="374.4609" y2="374.4609"/><line style="stroke:#625D92;stroke-width:1.0;" x1="310.6523" x2="352.6523" y1="396.5938" y2="396.5938"/><line style="stroke:#625D92;stroke-width:1.0;" x1="352.6523" x2="352.6523" y1="396.5938" y2="409.5938"/><line style="stroke:#625D92;stroke-width:1.0;" x1="311.6523" x2="352.6523" y1="409.5938" y2="409.5938"/><polygon fill="#625D92" points="321.6523,405.5938,311.6523,409.5938,321.6523,413.5938,317.6523,409.5938" style="stroke:#625D92;stroke-width:1.0;"/><text fill="#EDEDED" font-family="Calibri" font-size="13" lengthAdjust="spacing" textLength="198.4912" x="317.6523" y="391.5278">R&#233;cup&#233;ration des cl&#233;s en local</text><polygon fill="#625D92" points="67.4331,441.7266,57.4331,445.7266,67.4331,449.7266,63.4331,445.7266" style="stroke:#625D92;stroke-width:1.0;"/><line style="stroke:#625D92;stroke-width:1.0;" x1="61.4331" x2="304.6523" y1="445.7266" y2="445.7266"/><text fill="#EDEDED" font-family="Calibri" font-size="13" lengthAdjust="spacing" textLength="220.2192" x="73.4331" y="440.6606">Redirection vers la page d'accueil</text><!--SRC=[ZPVVSgCs5CRlUGh5Uv6hNcp-R2SxqyvWSD9CKpl5oKnxjIF3CT6iB54Xijrs-W1zYrwkdyClrYE4CHWB9IHEmlST_SuvI0ZECbWp0UGnkVybJ7x_52qU5Wbvz-7YEhwv2CuQTJcB5lEuerzUNrvTVMZrC8fcywUzU7FzVHp6hVWq- -tfqz7uizWSVSi04bsPepNDacIHxBNuukRzD0g2Sn9RDGS1YdBoIXMZAmubMKj5Kidniw0Sj0Oqd_Np-85Ccb8dHZpEmCYsqbhkLMaqMsYjdIZIE6oT1ySfWYspzap3wEUxPF4yZplwnTGSjTvjWP5i5oP1swF105fHKHPKWT11-Pa9_9DkoD_1bAQVSoKhaKLrYuu3W-KBpUGN9dAofho485HAVh7UNfbMk9L2Mt7OY8DZoVu2yluo2F2QqOfhSsvEDq0YojbAiUxvlRTpoWdeXkcl78YGQaDv4APQgkDAZov1Ov8g0sKDtSjirL5u4CbD8GKss4Sw65sqrZ5EZAccArg23zZwNBozOHmNAitMDFNMr_gSpMmCuxYvpBoLrHuNneZZYESIqZVqRszpWHfzd7KhEKRxK8tBHRAo1uGhsrkIDJanHXsd991gAdBk9HsCBbhhy4o__0rhovgS4o_thgcf6PkghpvGwtEnzWRVJKDe9Rd_bc5jxXj6hO-pPa8pxIsiSRb8LXu7tGiD2XUuTsuSZ2vSwnWdFYA8vbxUtkQYDVeuwzSAAY_9cboSMXsd116dPNcCwPkinJadZ7g0lBkjl-pfK6l5LfM6eOu6MMNU2LcRt6XKn-jRudxwXYksjxb8ZJxEUg0huDud7UlgW4uxF2Z0MuotUutBLPILVRkZ7ZJlQFVJOrjZzz8VfuVh07Veb1LqUCFjfz4rkXTLwpansvRmHmKYXJja5EEmljKv8xgkdu3szii1ze6jyKU0TxZMEDRpVt3TKlEaI2RFcd5MKWsLcX1Q4dn6K45nQ0MPX4N1MKeraw9sH9oPf_E-v_6-rl1ta3KFQMGoDPyPVaiXTbieQqiyhPzd5FdknsOeyf64QRhxLfBTVuHJVFt9CUQSfca5Z9j4sIick0TJhicZWWtRVLE0Rqn2m9-O6w4L_hCfq5XM-2O5fDXj5IjUp2Vs9cXWYAtn7ydktnJVDao2wGjLEMpCw0TNczpTRelfgxe3w2v9odVRikF4gj4s4w-IcT7g4h0vc46rueRTYMghCQqoWHWVJ-jm1JahjQhpE1M1dKDdoyEzTCtmlQ59Y_1pw0qHPD0DRLXjLVtmYfHQrfjAXzmPm6HxeZNBGH01GRXCyMq6p6lOYPXajqshOjZGJgJ8XbShWOmfV08pCQ-WoXCpfPEl3VyV]--></g></svg>