<svg xmlns="http://www.w3.org/2000/svg" xmlns:xlink="http://www.w3.org/1999/xlink" contentStyleType="text/css" height="808px" preserveAspectRatio="none" style="width:855px;height:808px;" version="1.1" viewBox="0 0 855 808" width="855px" zoomAndPan="magnify"><defs/><g><rect fill="#957DAD" height="607.9219" style="stroke:#957DAD;stroke-width:1.0;" width="10" x="189.3477" y="111.2656"/><rect fill="#957DAD" height="153.7969" style="stroke:#957DAD;stroke-width:1.0;" width="10" x="515.0923" y="221.9297"/><rect fill="#957DAD" height="87.3984" style="stroke:#957DAD;stroke-width:1.0;" width="10" x="515.0923" y="504.2578"/><rect fill="#957DAD" height="29.1328" style="stroke:#957DAD;stroke-width:1.0;" width="10" x="764.6543" y="317.4609"/><rect fill="#957DAD" height="29.1328" style="stroke:#957DAD;stroke-width:1.0;" width="10" x="764.6543" y="533.3906"/><rect fill="#EDEDED" height="543.7891" style="stroke:#957DAD;stroke-width:1.5;" width="717.4365" x="131.0295" y="168.3984"/><rect fill="#EDEDED" height="366.8594" style="stroke:#957DAD;stroke-width:1.5;" width="697.4365" x="141.0295" y="279.0625"/><rect fill="#EDEDED" height="46.2656" style="stroke:none;stroke-width:1.0;" width="697.4365" x="141.0295" y="599.6563"/><rect fill="#EDEDED" height="59.2656" style="stroke:none;stroke-width:1.0;" width="717.4365" x="131.0295" y="652.9219"/><line style="stroke:#957DAD;stroke-width:0.5;stroke-dasharray:5.0,5.0;" x1="41" x2="41" y1="80.1328" y2="729.1875"/><line style="stroke:#957DAD;stroke-width:0.5;stroke-dasharray:5.0,5.0;" x1="194.0295" x2="194.0295" y1="80.1328" y2="729.1875"/><line style="stroke:#957DAD;stroke-width:0.5;stroke-dasharray:5.0,5.0;" x1="519.8091" x2="519.8091" y1="80.1328" y2="729.1875"/><line style="stroke:#957DAD;stroke-width:0.5;stroke-dasharray:5.0,5.0;" x1="768.8425" x2="768.8425" y1="80.1328" y2="729.1875"/><text fill="#2B2B2B" font-family="Calibri" font-size="13" lengthAdjust="spacing" textLength="66.8662" x="5" y="77.0669">Utilisateur</text><ellipse cx="41.4331" cy="13.5" fill="#EDEDED" rx="8" ry="8" style="stroke:#957DAD;stroke-width:0.5;"/><path d="M41.4331,21.5 L41.4331,48.5 M28.4331,29.5 L54.4331,29.5 M41.4331,48.5 L28.4331,63.5 M41.4331,48.5 L54.4331,63.5 " fill="none" style="stroke:#957DAD;stroke-width:0.5;"/><text fill="#2B2B2B" font-family="Calibri" font-size="13" lengthAdjust="spacing" textLength="66.8662" x="5" y="740.2544">Utilisateur</text><ellipse cx="41.4331" cy="751.8203" fill="#EDEDED" rx="8" ry="8" style="stroke:#957DAD;stroke-width:0.5;"/><path d="M41.4331,759.8203 L41.4331,786.8203 M28.4331,767.8203 L54.4331,767.8203 M41.4331,786.8203 L28.4331,801.8203 M41.4331,786.8203 L54.4331,801.8203 " fill="none" style="stroke:#957DAD;stroke-width:0.5;"/><rect fill="#625D92" height="29.1328" rx="2.5" ry="2.5" style="stroke:#957DAD;stroke-width:0.5;" width="86.6362" x="151.0295" y="50"/><text fill="#FFFFFF" font-family="Calibri" font-size="13" lengthAdjust="spacing" textLength="72.6362" x="158.0295" y="69.0669">Application</text><rect fill="#625D92" height="29.1328" rx="2.5" ry="2.5" style="stroke:#957DAD;stroke-width:0.5;" width="86.6362" x="151.0295" y="728.1875"/><text fill="#FFFFFF" font-family="Calibri" font-size="13" lengthAdjust="spacing" textLength="72.6362" x="158.0295" y="747.2544">Application</text><rect fill="#625D92" height="29.1328" rx="2.5" ry="2.5" style="stroke:#957DAD;stroke-width:0.5;" width="34.5664" x="502.8091" y="50"/><text fill="#FFFFFF" font-family="Calibri" font-size="13" lengthAdjust="spacing" textLength="20.5664" x="509.8091" y="69.0669">API</text><rect fill="#625D92" height="29.1328" rx="2.5" ry="2.5" style="stroke:#957DAD;stroke-width:0.5;" width="34.5664" x="502.8091" y="728.1875"/><text fill="#FFFFFF" font-family="Calibri" font-size="13" lengthAdjust="spacing" textLength="20.5664" x="509.8091" y="747.2544">API</text><text fill="#2B2B2B" font-family="Calibri" font-size="13" lengthAdjust="spacing" textLength="111.6235" x="710.8425" y="77.0669">Base de donn&#233;es</text><path d="M751.6543,29 C751.6543,19 769.6543,19 769.6543,19 C769.6543,19 787.6543,19 787.6543,29 L787.6543,55 C787.6543,65 769.6543,65 769.6543,65 C769.6543,65 751.6543,65 751.6543,55 L751.6543,29 " fill="#EDEDED" style="stroke:#957DAD;stroke-width:1.5;"/><path d="M751.6543,29 C751.6543,39 769.6543,39 769.6543,39 C769.6543,39 787.6543,39 787.6543,29 " fill="none" style="stroke:#957DAD;stroke-width:1.5;"/><text fill="#2B2B2B" font-family="Calibri" font-size="13" lengthAdjust="spacing" textLength="111.6235" x="710.8425" y="740.2544">Base de donn&#233;es</text><path d="M751.6543,753.3203 C751.6543,743.3203 769.6543,743.3203 769.6543,743.3203 C769.6543,743.3203 787.6543,743.3203 787.6543,753.3203 L787.6543,779.3203 C787.6543,789.3203 769.6543,789.3203 769.6543,789.3203 C769.6543,789.3203 751.6543,789.3203 751.6543,779.3203 L751.6543,753.3203 " fill="#EDEDED" style="stroke:#957DAD;stroke-width:1.5;"/><path d="M751.6543,753.3203 C751.6543,763.3203 769.6543,763.3203 769.6543,763.3203 C769.6543,763.3203 787.6543,763.3203 787.6543,753.3203 " fill="none" style="stroke:#957DAD;stroke-width:1.5;"/><rect fill="#957DAD" height="607.9219" style="stroke:#957DAD;stroke-width:1.0;" width="10" x="189.3477" y="111.2656"/><rect fill="#957DAD" height="153.7969" style="stroke:#957DAD;stroke-width:1.0;" width="10" x="515.0923" y="221.9297"/><rect fill="#957DAD" height="87.3984" style="stroke:#957DAD;stroke-width:1.0;" width="10" x="515.0923" y="504.2578"/><rect fill="#957DAD" height="29.1328" style="stroke:#957DAD;stroke-width:1.0;" width="10" x="764.6543" y="317.4609"/><rect fill="#957DAD" height="29.1328" style="stroke:#957DAD;stroke-width:1.0;" width="10" x="764.6543" y="533.3906"/><polygon fill="#625D92" points="177.3477,107.2656,187.3477,111.2656,177.3477,115.2656,181.3477,111.2656" style="stroke:#625D92;stroke-width:1.0;"/><line style="stroke:#625D92;stroke-width:1.0;" x1="41.4331" x2="183.3477" y1="111.2656" y2="111.2656"/><text fill="#2B2B2B" font-family="Calibri" font-size="13" lengthAdjust="spacing" textLength="128.9146" x="48.4331" y="106.1997">Cr&#233;ation de compte</text><line style="stroke:#625D92;stroke-width:1.0;" x1="199.3477" x2="241.3477" y1="140.3984" y2="140.3984"/><line style="stroke:#625D92;stroke-width:1.0;" x1="241.3477" x2="241.3477" y1="140.3984" y2="153.3984"/><line style="stroke:#625D92;stroke-width:1.0;" x1="200.3477" x2="241.3477" y1="153.3984" y2="153.3984"/><polygon fill="#625D92" points="210.3477,149.3984,200.3477,153.3984,210.3477,157.3984,206.3477,153.3984" style="stroke:#625D92;stroke-width:1.0;"/><text fill="#2B2B2B" font-family="Calibri" font-size="13" lengthAdjust="spacing" textLength="160.7925" x="206.3477" y="135.3325">V&#233;rification des donn&#233;es</text><path d="M131.0295,168.3984 L195.4724,168.3984 L195.4724,175.5313 L185.4724,185.5313 L131.0295,185.5313 L131.0295,168.3984 " fill="#625D92" style="stroke:#957DAD;stroke-width:1.5;"/><rect fill="none" height="543.7891" style="stroke:#957DAD;stroke-width:1.5;" width="717.4365" x="131.0295" y="168.3984"/><text fill="#FFFFFF" font-family="Calibri" font-size="13" font-weight="bold" lengthAdjust="spacing" textLength="19.4429" x="146.0295" y="181.4653">alt</text><text fill="#2B2B2B" font-family="Calibri" font-size="13" font-weight="bold" lengthAdjust="spacing" textLength="177.4614" x="210.4724" y="182.4653">[Donn&#233;es client valides]</text><polygon fill="#625D92" points="503.0923,217.9297,513.0923,221.9297,503.0923,225.9297,507.0923,221.9297" style="stroke:#625D92;stroke-width:1.0;"/><line style="stroke:#625D92;stroke-width:1.0;" x1="199.3477" x2="509.0923" y1="221.9297" y2="221.9297"/><text fill="#2B2B2B" font-family="Calibri" font-size="13" lengthAdjust="spacing" textLength="169.4126" x="206.3477" y="201.731">Envoi des informations de</text><text fill="#2B2B2B" font-family="Calibri" font-size="13" lengthAdjust="spacing" textLength="126.9849" x="210.48" y="216.8638">cr&#233;ation de compte</text><line style="stroke:#625D92;stroke-width:1.0;" x1="525.0923" x2="567.0923" y1="251.0625" y2="251.0625"/><line style="stroke:#625D92;stroke-width:1.0;" x1="567.0923" x2="567.0923" y1="251.0625" y2="264.0625"/><line style="stroke:#625D92;stroke-width:1.0;" x1="526.0923" x2="567.0923" y1="264.0625" y2="264.0625"/><polygon fill="#625D92" points="536.0923,260.0625,526.0923,264.0625,536.0923,268.0625,532.0923,264.0625" style="stroke:#625D92;stroke-width:1.0;"/><text fill="#2B2B2B" font-family="Calibri" font-size="13" lengthAdjust="spacing" textLength="160.7925" x="532.0923" y="245.9966">V&#233;rification des donn&#233;es</text><path d="M141.0295,279.0625 L205.4724,279.0625 L205.4724,286.1953 L195.4724,296.1953 L141.0295,296.1953 L141.0295,279.0625 " fill="#625D92" style="stroke:#957DAD;stroke-width:1.5;"/><rect fill="none" height="366.8594" style="stroke:#957DAD;stroke-width:1.5;" width="697.4365" x="141.0295" y="279.0625"/><text fill="#FFFFFF" font-family="Calibri" font-size="13" font-weight="bold" lengthAdjust="spacing" textLength="19.4429" x="156.0295" y="292.1294">alt</text><text fill="#2B2B2B" font-family="Calibri" font-size="13" font-weight="bold" lengthAdjust="spacing" textLength="192.48" x="220.4724" y="293.1294">[Donn&#233;es serveur valides]</text><polygon fill="#625D92" points="752.6543,313.4609,762.6543,317.4609,752.6543,321.4609,756.6543,317.4609" style="stroke:#625D92;stroke-width:1.0;"/><line style="stroke:#625D92;stroke-width:1.0;" x1="525.0923" x2="758.6543" y1="317.4609" y2="317.4609"/><text fill="#2B2B2B" font-family="Calibri" font-size="13" lengthAdjust="spacing" textLength="220.562" x="532.0923" y="312.395">Stockage des donn&#233;es de compte</text><polygon fill="#625D92" points="536.0923,342.5938,526.0923,346.5938,536.0923,350.5938,532.0923,346.5938" style="stroke:#625D92;stroke-width:1.0;"/><line style="stroke:#625D92;stroke-width:1.0;stroke-dasharray:2.0,2.0;" x1="530.0923" x2="768.6543" y1="346.5938" y2="346.5938"/><text fill="#2B2B2B" font-family="Calibri" font-size="13" lengthAdjust="spacing" textLength="167.5654" x="542.0923" y="341.5278">Confirmation de stockage</text><polygon fill="#625D92" points="210.3477,371.7266,200.3477,375.7266,210.3477,379.7266,206.3477,375.7266" style="stroke:#625D92;stroke-width:1.0;"/><line style="stroke:#625D92;stroke-width:1.0;stroke-dasharray:2.0,2.0;" x1="204.3477" x2="519.0923" y1="375.7266" y2="375.7266"/><text fill="#2B2B2B" font-family="Calibri" font-size="13" lengthAdjust="spacing" textLength="235.8345" x="216.3477" y="370.6606">Confirmation de cr&#233;ation de compte</text><line style="stroke:#625D92;stroke-width:1.0;" x1="199.3477" x2="241.3477" y1="404.8594" y2="404.8594"/><line style="stroke:#625D92;stroke-width:1.0;" x1="241.3477" x2="241.3477" y1="404.8594" y2="417.8594"/><line style="stroke:#625D92;stroke-width:1.0;" x1="200.3477" x2="241.3477" y1="417.8594" y2="417.8594"/><polygon fill="#625D92" points="210.3477,413.8594,200.3477,417.8594,210.3477,421.8594,206.3477,417.8594" style="stroke:#625D92;stroke-width:1.0;"/><text fill="#2B2B2B" font-family="Calibri" font-size="13" lengthAdjust="spacing" textLength="265.7319" x="206.3477" y="399.7935">G&#233;n&#233;ration des cl&#233;s publiques et priv&#233;es</text><line style="stroke:#625D92;stroke-width:1.0;" x1="199.3477" x2="241.3477" y1="462.125" y2="462.125"/><line style="stroke:#625D92;stroke-width:1.0;" x1="241.3477" x2="241.3477" y1="462.125" y2="475.125"/><line style="stroke:#625D92;stroke-width:1.0;" x1="200.3477" x2="241.3477" y1="475.125" y2="475.125"/><polygon fill="#625D92" points="210.3477,471.125,200.3477,475.125,210.3477,479.125,206.3477,475.125" style="stroke:#625D92;stroke-width:1.0;"/><text fill="#2B2B2B" font-family="Calibri" font-size="13" lengthAdjust="spacing" textLength="164.2075" x="206.3477" y="441.9263">Stockage de la cl&#233; priv&#233;e</text><text fill="#2B2B2B" font-family="Calibri" font-size="13" lengthAdjust="spacing" textLength="141.4639" x="206.3477" y="457.0591">(API native s&#233;curis&#233;e)</text><polygon fill="#625D92" points="503.0923,500.2578,513.0923,504.2578,503.0923,508.2578,507.0923,504.2578" style="stroke:#625D92;stroke-width:1.0;"/><line style="stroke:#625D92;stroke-width:1.0;" x1="199.3477" x2="509.0923" y1="504.2578" y2="504.2578"/><text fill="#2B2B2B" font-family="Calibri" font-size="13" lengthAdjust="spacing" textLength="159.8911" x="206.3477" y="499.1919">Envoi des cl&#233;s publiques</text><polygon fill="#625D92" points="752.6543,529.3906,762.6543,533.3906,752.6543,537.3906,756.6543,533.3906" style="stroke:#625D92;stroke-width:1.0;"/><line style="stroke:#625D92;stroke-width:1.0;" x1="525.0923" x2="758.6543" y1="533.3906" y2="533.3906"/><text fill="#2B2B2B" font-family="Calibri" font-size="13" lengthAdjust="spacing" textLength="184.374" x="532.0923" y="528.3247">Stockage des cl&#233;s publiques</text><polygon fill="#625D92" points="536.0923,558.5234,526.0923,562.5234,536.0923,566.5234,532.0923,562.5234" style="stroke:#625D92;stroke-width:1.0;"/><line style="stroke:#625D92;stroke-width:1.0;stroke-dasharray:2.0,2.0;" x1="530.0923" x2="768.6543" y1="562.5234" y2="562.5234"/><text fill="#2B2B2B" font-family="Calibri" font-size="13" lengthAdjust="spacing" textLength="167.5654" x="542.0923" y="557.4575">Confirmation de stockage</text><polygon fill="#625D92" points="210.3477,587.6563,200.3477,591.6563,210.3477,595.6563,206.3477,591.6563" style="stroke:#625D92;stroke-width:1.0;"/><line style="stroke:#625D92;stroke-width:1.0;stroke-dasharray:2.0,2.0;" x1="204.3477" x2="519.0923" y1="591.6563" y2="591.6563"/><text fill="#2B2B2B" font-family="Calibri" font-size="13" lengthAdjust="spacing" textLength="291.7446" x="216.3477" y="586.5903">Confirmation de stockage des cl&#233;s publiques</text><line style="stroke:#957DAD;stroke-width:1.0;stroke-dasharray:2.0,2.0;" x1="141.0295" x2="838.4661" y1="600.6563" y2="600.6563"/><text fill="#2B2B2B" font-family="Calibri" font-size="13" font-weight="bold" lengthAdjust="spacing" textLength="145.7422" x="146.0295" y="612.7231">[Donn&#233;es invalides]</text><polygon fill="#625D92" points="210.3477,633.9219,200.3477,637.9219,210.3477,641.9219,206.3477,637.9219" style="stroke:#625D92;stroke-width:1.0;"/><line style="stroke:#625D92;stroke-width:1.0;stroke-dasharray:2.0,2.0;" x1="204.3477" x2="519.0923" y1="637.9219" y2="637.9219"/><text fill="#2B2B2B" font-family="Calibri" font-size="13" lengthAdjust="spacing" textLength="191.9849" x="216.3477" y="632.856">Erreur de cr&#233;ation de compte</text><line style="stroke:#957DAD;stroke-width:1.0;stroke-dasharray:2.0,2.0;" x1="131.0295" x2="848.4661" y1="653.9219" y2="653.9219"/><text fill="#2B2B2B" font-family="Calibri" font-size="13" font-weight="bold" lengthAdjust="spacing" textLength="191.1724" x="136.0295" y="665.9888">[Donn&#233;es client invalides]</text><line style="stroke:#625D92;stroke-width:1.0;" x1="199.3477" x2="241.3477" y1="691.1875" y2="691.1875"/><line style="stroke:#625D92;stroke-width:1.0;" x1="241.3477" x2="241.3477" y1="691.1875" y2="704.1875"/><line style="stroke:#625D92;stroke-width:1.0;" x1="200.3477" x2="241.3477" y1="704.1875" y2="704.1875"/><polygon fill="#625D92" points="210.3477,700.1875,200.3477,704.1875,210.3477,708.1875,206.3477,704.1875" style="stroke:#625D92;stroke-width:1.0;"/><text fill="#2B2B2B" font-family="Calibri" font-size="13" lengthAdjust="spacing" textLength="191.9849" x="206.3477" y="686.1216">Erreur de cr&#233;ation de compte</text><!--SRC=[hLVRRjis6BxNKx3kHRUBNZI73XdG0RBafC5IExEJOWCA5BH4kqHfIgKe5zsm1_9p-CNsKwIE5abVB4RiHD_t_zz_ui6lq69FXA0fGNiiA5upKg1D9X2ZsoyIxRAK12zIig6SeCVb_OTm-TVdQF6mMAANRo-kuvkB1btDeiKyxk2pMBqQF8oYsVof1c-kVud35doQ_VdqUU3_OgfUVSg9oENrvTNLsuOqMouNongBBsxUJACWU8LYZMu99mApGQP9nk0znun8IO3yeX_7EpGngKuKE8n0mJg82kvbgJ2TQ8MD9AaOkaujOqmXkbAlYZCDez_lbeldUTp1TQqgl5i21UagJ8AcHYSEfC2yoB4WN0R5LyhXJxn3_mHJd7pTYgpaQLILQ6WOhBxWDFjE-HPjC2j840gHVTVSNfeQkCsurE1f8Lh6YlvDq9lB882UuP99zMoETmH5cD6reDtdDRVpo2hGDPC_644y4plCWZ2HcHXcEcY18MKY9K8JkctMg5CyYB9Tdd4ei4-f9ThK6ePRCSOIht51V88DpwPN4znoeP1qWnDlVWtFMan3SClDOL_oILKScum2tHBF1KdEg5zDimaPtArrcp6mzaaPbar9mnuXMDdUb3J9AgDGjygI91BpBVCgjKIRMiFmZD_sZBMbITR1sthNr5JvnkA7JwZXsRHgWc_Ju59apBzbQ9fzmwXmjzQCIogzYHcMJKd3Rg5xBec01UwTZPPeasiORiL74C9RhrvDiwaPtAtrHqbAhv8csNGgrAqIH0mNnL2cJz8Kwqmej1LvULlzwCUXb8AkIqbESI1aPUeTo8fabmRKdTyApjCpEbRJR4e6Tsizu3LXtfkEPdM4nXaUAG9RZBTwXcLBIiE-qr6U56zm-adNqTXj_J0yM0TmGYSqnwSRRZ-CBj6-g1hEoBIjoBUIy8JSWKRk5kjJhHFHPRqdk7TUdiW-q0tySk9rrn1TDVyNrYrMDqNqB2cZ1PQa50WN26u88iZRGg19cEUC9bZIZ4yK8s9KtSsxdF3nFaZDpGnDfkeTliAb6UV70oagg_hYLbrb17hzc_63VaMHE1ugzyeeWGibVF61sEWUWghL3Bbhzl5u47HZ8WFJeX64r9X4iVaF9TfY3rTsO7LSGTZWPyRt6QtiAT-eQxZo1yx89uuILsWgQ-MYyNHsH521lQft7PBnKjS8NC5kKMtmFIzZGJHrROnVD_70MRkX9Y5bMnYdGKfExNKGlRuCpCUAqV6aoZ7MfxlZ0Q8NRL4ITZmKA2_NZCB45eX8b0kwh-eqOjyf1MAuigxvd_XFAceEllUGtl6Gb8B21_avSBHve3_QK5ihhBR_Mn-yRIXSyGpwGU2BS3jsbFS6hYio4q8Dv7bTXYr_uDaiiLPWf8zk2UMp8wEj_WC0]--></g></svg>