<svg xmlns="http://www.w3.org/2000/svg" xmlns:xlink="http://www.w3.org/1999/xlink" contentStyleType="text/css" height="518px" preserveAspectRatio="none" style="width:926px;height:518px;" version="1.1" viewBox="0 0 926 518" width="926px" zoomAndPan="magnify"><defs/><g><rect fill="#EDEDED" height="35.1328" rx="12.5" ry="12.5" style="stroke:#957DAD;stroke-width:1.5;" width="206.1768" x="10" y="240.5313"/><text fill="#2B2B2B" font-family="Calibri" font-size="13" lengthAdjust="spacing" textLength="186.1768" x="20" y="262.5981">Fournisseurs de l'application</text><rect fill="#EDEDED" height="35.1328" rx="12.5" ry="12.5" style="stroke:#957DAD;stroke-width:1.5;" width="104.5063" x="266.1768" y="47.5664"/><text fill="#2B2B2B" font-family="Calibri" font-size="13" lengthAdjust="spacing" textLength="84.5063" x="276.1768" y="69.6333">AuthProvider</text><rect fill="#EDEDED" height="35.1328" rx="12.5" ry="12.5" style="stroke:#957DAD;stroke-width:1.5;" width="274.4204" x="420.6831" y="20"/><text fill="#2B2B2B" font-family="Calibri" font-size="13" lengthAdjust="spacing" textLength="254.4204" x="430.6831" y="42.0669">G&#233;rer l'authentification des utilisateurs</text><path d="M370.6831,65.1328 L380.6831,65.1328 C395.6831,65.1328 395.6831,37.5664 410.6831,37.5664 L420.6831,37.5664 " fill="none" style="stroke:#625D92;stroke-width:1.0;"/><rect fill="#EDEDED" height="35.1328" rx="12.5" ry="12.5" style="stroke:#957DAD;stroke-width:1.5;" width="222.0142" x="420.6831" y="75.1328"/><text fill="#2B2B2B" font-family="Calibri" font-size="13" lengthAdjust="spacing" textLength="202.0142" x="430.6831" y="97.1997">G&#233;rer la session de l'utilisateur</text><path d="M370.6831,65.1328 L380.6831,65.1328 C395.6831,65.1328 395.6831,92.6992 410.6831,92.6992 L420.6831,92.6992 " fill="none" style="stroke:#625D92;stroke-width:1.0;"/><path d="M216.1768,258.0977 L226.1768,258.0977 C241.1768,258.0977 241.1768,65.1328 256.1768,65.1328 L266.1768,65.1328 " fill="none" style="stroke:#625D92;stroke-width:1.0;"/><rect fill="#EDEDED" height="35.1328" rx="12.5" ry="12.5" style="stroke:#957DAD;stroke-width:1.5;" width="113.9707" x="266.1768" y="212.9648"/><text fill="#2B2B2B" font-family="Calibri" font-size="13" lengthAdjust="spacing" textLength="93.9707" x="276.1768" y="235.0317">SignalProvider</text><rect fill="#EDEDED" height="35.1328" rx="12.5" ry="12.5" style="stroke:#957DAD;stroke-width:1.5;" width="339.3125" x="430.1475" y="130.2656"/><text fill="#2B2B2B" font-family="Calibri" font-size="13" lengthAdjust="spacing" textLength="319.3125" x="440.1475" y="152.3325">Interface de haut niveau pour le protocole Signal</text><path d="M380.1475,230.5313 L390.1475,230.5313 C405.1475,230.5313 405.1475,147.832 420.1475,147.832 L430.1475,147.832 " fill="none" style="stroke:#625D92;stroke-width:1.0;"/><rect fill="#EDEDED" height="35.1328" rx="12.5" ry="12.5" style="stroke:#957DAD;stroke-width:1.5;" width="484.3311" x="430.1475" y="185.3984"/><text fill="#2B2B2B" font-family="Calibri" font-size="13" lengthAdjust="spacing" textLength="464.3311" x="440.1475" y="207.4653">Communication avec le serveur pour la rotation et le stockage des cl&#233;s</text><path d="M380.1475,230.5313 L390.1475,230.5313 C405.1475,230.5313 405.1475,202.9648 420.1475,202.9648 L430.1475,202.9648 " fill="none" style="stroke:#625D92;stroke-width:1.0;"/><rect fill="#EDEDED" height="35.1328" rx="12.5" ry="12.5" style="stroke:#957DAD;stroke-width:1.5;" width="307.0093" x="430.1475" y="240.5313"/><text fill="#2B2B2B" font-family="Calibri" font-size="13" lengthAdjust="spacing" textLength="287.0093" x="440.1475" y="262.5981">Chiffrement et d&#233;chiffrement des messages</text><path d="M380.1475,230.5313 L390.1475,230.5313 C405.1475,230.5313 405.1475,258.0977 420.1475,258.0977 L430.1475,258.0977 " fill="none" style="stroke:#625D92;stroke-width:1.0;"/><rect fill="#EDEDED" height="35.1328" rx="12.5" ry="12.5" style="stroke:#957DAD;stroke-width:1.5;" width="265.3052" x="430.1475" y="295.6641"/><text fill="#2B2B2B" font-family="Calibri" font-size="13" lengthAdjust="spacing" textLength="245.3052" x="440.1475" y="317.731">R&#233;cup&#233;ration des bundles de pr&#233; cl&#233;s</text><path d="M380.1475,230.5313 L390.1475,230.5313 C405.1475,230.5313 405.1475,313.2305 420.1475,313.2305 L430.1475,313.2305 " fill="none" style="stroke:#625D92;stroke-width:1.0;"/><path d="M216.1768,258.0977 L226.1768,258.0977 C241.1768,258.0977 241.1768,230.5313 256.1768,230.5313 L266.1768,230.5313 " fill="none" style="stroke:#625D92;stroke-width:1.0;"/><rect fill="#EDEDED" height="35.1328" rx="12.5" ry="12.5" style="stroke:#957DAD;stroke-width:1.5;" width="104.4175" x="266.1768" y="405.9297"/><text fill="#2B2B2B" font-family="Calibri" font-size="13" lengthAdjust="spacing" textLength="84.4175" x="276.1768" y="427.9966">ChatProvider</text><rect fill="#EDEDED" height="35.1328" rx="12.5" ry="12.5" style="stroke:#957DAD;stroke-width:1.5;" width="166.231" x="420.5942" y="350.7969"/><text fill="#2B2B2B" font-family="Calibri" font-size="13" lengthAdjust="spacing" textLength="146.231" x="430.5942" y="372.8638">Gestion des messages</text><path d="M370.5942,423.4961 L380.5942,423.4961 C395.5942,423.4961 395.5942,368.3633 410.5942,368.3633 L420.5942,368.3633 " fill="none" style="stroke:#625D92;stroke-width:1.0;"/><rect fill="#EDEDED" height="35.1328" rx="12.5" ry="12.5" style="stroke:#957DAD;stroke-width:1.5;" width="138.7139" x="420.5942" y="405.9297"/><text fill="#2B2B2B" font-family="Calibri" font-size="13" lengthAdjust="spacing" textLength="118.7139" x="430.5942" y="427.9966">Envoi et r&#233;ception</text><path d="M370.5942,423.4961 L380.5942,423.4961 C395.5942,423.4961 395.5942,423.4961 410.5942,423.4961 L420.5942,423.4961 " fill="none" style="stroke:#625D92;stroke-width:1.0;"/><rect fill="#EDEDED" height="35.1328" rx="12.5" ry="12.5" style="stroke:#957DAD;stroke-width:1.5;" width="288.3535" x="420.5942" y="461.0625"/><text fill="#2B2B2B" font-family="Calibri" font-size="13" lengthAdjust="spacing" textLength="268.3535" x="430.5942" y="483.1294">Communique avec le serveur WebSocket</text><path d="M370.5942,423.4961 L380.5942,423.4961 C395.5942,423.4961 395.5942,478.6289 410.5942,478.6289 L420.5942,478.6289 " fill="none" style="stroke:#625D92;stroke-width:1.0;"/><path d="M216.1768,258.0977 L226.1768,258.0977 C241.1768,258.0977 241.1768,423.4961 256.1768,423.4961 L266.1768,423.4961 " fill="none" style="stroke:#625D92;stroke-width:1.0;"/><!--SRC=[xLXTKzms57tthr2IXoJC91DWeO6PpcJnBYG4MBeBQVkKqNgrHXElxChoPj9EVn2_Wp_MAykIFoJPjCrRomuC-1wTetlruNjubmlCnOQorGPdAEFfbgu8VxMYEEPu4pn7iotX79wXBUOKBnEIetNAKKBZEu4swOe4JrPaJHb1r_CFb-Fvhv_3sSLiZfuTxXrCZlPCT34DPrUJHdmwaHyJ7uVXzEf61uyEVfYCw-3Dz9URpnt-lHFvQKCiaVs3_T7eq82cy_bihcEJlQFTap2072Sg6XD6E4uwcKPf0Zypd10X282VjEVn8tfQfVfK1hipa64rYJBSobB6LA9bp96aHAWwrGYNGZYIdn9pCWu_dirdjrUJHbpLgemtIo13gWfF0rCZYq1mpF8CSy94a7-X37x56_H7S8AZBp5F2xOAon9r1mQBExnAlr8MepLESXACEK-_AcmhJHKuJPbGGRiGDM91VoTeTpy8OCrmaGZvx0fl20fnGfUSDfzhREEHLw0vJ7nB268ft-0a64SYvTrCEqjGWL8E9qS1cikiehtYGPXkifH1WOUKQg1FpI3w5ITOu2NEoP2WmVdqDA1VRim5NUDeC3-3ynQp0lJBNS6zD2HLOdmoCjWlSPkJw17rqp2VK1NlrpfD4nWz95MXV4egF2049tim9GNooiXelygSH0ApE1bKge4-DOCOs7xn8ywM0datNZnufauaD-RVXeGCpgUb0KEN1XCyJOQl30NpNnXbl5zhoWGLWubLA9-I2lSBVM22S3ZWWtkZ1lha3A9VyHg4S3oefs4-jIhUh_LJGOf19GNowPJHVfKWJ72UTsNQ80NnxWaPhKMUdPPVwl5O24wNXI1s701fiHhSa2N8BmtH_lmMy3vzn8ffc4-fYlThNU0bIGOx7OLg2BaH0r84hfZ1wbKeNr8gFFHs55RnEcy_qVTgR2vzTtfm3k0D7T4CsnTkUnfDeFzG6OnZjot8RmLX4Ja3ZQnVh0trxeWcwZt1hVUb9Nj1r_3Do22T0VRL_4yujpleD2quetbE2fuZC5t9Svnb2Osme2aBTdRGk11trvLBWxztqDd3FITS0Y42hoYwhj0mF4U5e0dDiP1yBJX6ESbp1OF13PnKMT2OuQIbOsvJEU0En12ZMu8BbC6K4JJCu1r52cQ9LAFBKT2DRWgcPuIt99BGdF0jA5L3COAH2a146GOUUPUM6KJ9mxsQUdX7rsjEDf2a1AuUxgF64udTG4emJi7d42yoIBUknX9ABstTIixsuTvm0pKMxQgIt8ngiKxPDgLI7iP79AkMnIGA2svb-JDPBY0X8e9tS3Ghgnq4x_gTTz3hjPgUhCTcQHFUCLZQEtzVLwLP_vQLqly6i2oK_XT0nprf4RzbqenEgwHP7Ix9CFkiaIPsMIBDQxiXG-kpGAO23kjZYc2v7aFhiZgQicjnD5tRtHWgZwNHR0uhemaj5sCutTP5KzgMHJDstKfDwB8eXgzhJGnTsvKODgyLqOnE2w9P7UwZNkwuPszQLiCiTEpUapvheGbTba9pscwYSOYS5g8-GfPrg0zGnpKOJhTLq9IsHT2CNNTW2BsMG7CwhO2cTRW0m-nf_JMle-NNh5QtRpYTBRvcj5fxpTVfwWsRkvNNrxhLn9lL-PxzkzaDtRwzLckrx6RodZvTypdwSyrejUQ6qzcFDz-6LYjk1LsipjPRJzHkkVKykzrsurQsM-pwzXMUMxcr9fLuNqEjzu6dbQutwp_kehM2jtysA_QlM-SkawzhrhZ_6-R_MCDydS06lhsyG5l2ouNOVRttPc_q-l350WjqNYJepI5wStIyEphUVujkRq8amo-35sVN5oY7oicbeBcw_M3yo-0SRp6Q5x07DkGOpJB2pYSVzGCvSyfJ9eiLd7-wh067erSdLA25d2v7dovrnmiZedG5ZVWng9- -UWlN3OiBgCGn8WpUcC3Blq5iyHS0]--></g></svg>