<svg xmlns="http://www.w3.org/2000/svg" xmlns:xlink="http://www.w3.org/1999/xlink" contentStyleType="text/css" height="518px" preserveAspectRatio="none" style="width:926px;height:518px;" version="1.1" viewBox="0 0 926 518" width="926px" zoomAndPan="magnify"><defs/><g><rect fill="#353446" height="35.1328" rx="12.5" ry="12.5" style="stroke:#957DAD;stroke-width:1.5;" width="206.1768" x="10" y="240.5313"/><text fill="#EDEDED" font-family="Calibri" font-size="13" lengthAdjust="spacing" textLength="186.1768" x="20" y="262.5981">Fournisseurs de l'application</text><rect fill="#353446" height="35.1328" rx="12.5" ry="12.5" style="stroke:#957DAD;stroke-width:1.5;" width="104.5063" x="266.1768" y="47.5664"/><text fill="#EDEDED" font-family="Calibri" font-size="13" lengthAdjust="spacing" textLength="84.5063" x="276.1768" y="69.6333">AuthProvider</text><rect fill="#353446" height="35.1328" rx="12.5" ry="12.5" style="stroke:#957DAD;stroke-width:1.5;" width="274.4204" x="420.6831" y="20"/><text fill="#EDEDED" font-family="Calibri" font-size="13" lengthAdjust="spacing" textLength="254.4204" x="430.6831" y="42.0669">G&#233;rer l'authentification des utilisateurs</text><path d="M370.6831,65.1328 L380.6831,65.1328 C395.6831,65.1328 395.6831,37.5664 410.6831,37.5664 L420.6831,37.5664 " fill="none" style="stroke:#625D92;stroke-width:1.0;"/><rect fill="#353446" height="35.1328" rx="12.5" ry="12.5" style="stroke:#957DAD;stroke-width:1.5;" width="222.0142" x="420.6831" y="75.1328"/><text fill="#EDEDED" font-family="Calibri" font-size="13" lengthAdjust="spacing" textLength="202.0142" x="430.6831" y="97.1997">G&#233;rer la session de l'utilisateur</text><path d="M370.6831,65.1328 L380.6831,65.1328 C395.6831,65.1328 395.6831,92.6992 410.6831,92.6992 L420.6831,92.6992 " fill="none" style="stroke:#625D92;stroke-width:1.0;"/><path d="M216.1768,258.0977 L226.1768,258.0977 C241.1768,258.0977 241.1768,65.1328 256.1768,65.1328 L266.1768,65.1328 " fill="none" style="stroke:#625D92;stroke-width:1.0;"/><rect fill="#353446" height="35.1328" rx="12.5" ry="12.5" style="stroke:#957DAD;stroke-width:1.5;" width="113.9707" x="266.1768" y="212.9648"/><text fill="#EDEDED" font-family="Calibri" font-size="13" lengthAdjust="spacing" textLength="93.9707" x="276.1768" y="235.0317">SignalProvider</text><rect fill="#353446" height="35.1328" rx="12.5" ry="12.5" style="stroke:#957DAD;stroke-width:1.5;" width="339.3125" x="430.1475" y="130.2656"/><text fill="#EDEDED" font-family="Calibri" font-size="13" lengthAdjust="spacing" textLength="319.3125" x="440.1475" y="152.3325">Interface de haut niveau pour le protocole Signal</text><path d="M380.1475,230.5313 L390.1475,230.5313 C405.1475,230.5313 405.1475,147.832 420.1475,147.832 L430.1475,147.832 " fill="none" style="stroke:#625D92;stroke-width:1.0;"/><rect fill="#353446" height="35.1328" rx="12.5" ry="12.5" style="stroke:#957DAD;stroke-width:1.5;" width="484.3311" x="430.1475" y="185.3984"/><text fill="#EDEDED" font-family="Calibri" font-size="13" lengthAdjust="spacing" textLength="464.3311" x="440.1475" y="207.4653">Communication avec le serveur pour la rotation et le stockage des cl&#233;s</text><path d="M380.1475,230.5313 L390.1475,230.5313 C405.1475,230.5313 405.1475,202.9648 420.1475,202.9648 L430.1475,202.9648 " fill="none" style="stroke:#625D92;stroke-width:1.0;"/><rect fill="#353446" height="35.1328" rx="12.5" ry="12.5" style="stroke:#957DAD;stroke-width:1.5;" width="307.0093" x="430.1475" y="240.5313"/><text fill="#EDEDED" font-family="Calibri" font-size="13" lengthAdjust="spacing" textLength="287.0093" x="440.1475" y="262.5981">Chiffrement et d&#233;chiffrement des messages</text><path d="M380.1475,230.5313 L390.1475,230.5313 C405.1475,230.5313 405.1475,258.0977 420.1475,258.0977 L430.1475,258.0977 " fill="none" style="stroke:#625D92;stroke-width:1.0;"/><rect fill="#353446" height="35.1328" rx="12.5" ry="12.5" style="stroke:#957DAD;stroke-width:1.5;" width="265.3052" x="430.1475" y="295.6641"/><text fill="#EDEDED" font-family="Calibri" font-size="13" lengthAdjust="spacing" textLength="245.3052" x="440.1475" y="317.731">R&#233;cup&#233;ration des bundles de pr&#233; cl&#233;s</text><path d="M380.1475,230.5313 L390.1475,230.5313 C405.1475,230.5313 405.1475,313.2305 420.1475,313.2305 L430.1475,313.2305 " fill="none" style="stroke:#625D92;stroke-width:1.0;"/><path d="M216.1768,258.0977 L226.1768,258.0977 C241.1768,258.0977 241.1768,230.5313 256.1768,230.5313 L266.1768,230.5313 " fill="none" style="stroke:#625D92;stroke-width:1.0;"/><rect fill="#353446" height="35.1328" rx="12.5" ry="12.5" style="stroke:#957DAD;stroke-width:1.5;" width="104.4175" x="266.1768" y="405.9297"/><text fill="#EDEDED" font-family="Calibri" font-size="13" lengthAdjust="spacing" textLength="84.4175" x="276.1768" y="427.9966">ChatProvider</text><rect fill="#353446" height="35.1328" rx="12.5" ry="12.5" style="stroke:#957DAD;stroke-width:1.5;" width="166.231" x="420.5942" y="350.7969"/><text fill="#EDEDED" font-family="Calibri" font-size="13" lengthAdjust="spacing" textLength="146.231" x="430.5942" y="372.8638">Gestion des messages</text><path d="M370.5942,423.4961 L380.5942,423.4961 C395.5942,423.4961 395.5942,368.3633 410.5942,368.3633 L420.5942,368.3633 " fill="none" style="stroke:#625D92;stroke-width:1.0;"/><rect fill="#353446" height="35.1328" rx="12.5" ry="12.5" style="stroke:#957DAD;stroke-width:1.5;" width="138.7139" x="420.5942" y="405.9297"/><text fill="#EDEDED" font-family="Calibri" font-size="13" lengthAdjust="spacing" textLength="118.7139" x="430.5942" y="427.9966">Envoi et r&#233;ception</text><path d="M370.5942,423.4961 L380.5942,423.4961 C395.5942,423.4961 395.5942,423.4961 410.5942,423.4961 L420.5942,423.4961 " fill="none" style="stroke:#625D92;stroke-width:1.0;"/><rect fill="#353446" height="35.1328" rx="12.5" ry="12.5" style="stroke:#957DAD;stroke-width:1.5;" width="288.3535" x="420.5942" y="461.0625"/><text fill="#EDEDED" font-family="Calibri" font-size="13" lengthAdjust="spacing" textLength="268.3535" x="430.5942" y="483.1294">Communique avec le serveur WebSocket</text><path d="M370.5942,423.4961 L380.5942,423.4961 C395.5942,423.4961 395.5942,478.6289 410.5942,478.6289 L420.5942,478.6289 " fill="none" style="stroke:#625D92;stroke-width:1.0;"/><path d="M216.1768,258.0977 L226.1768,258.0977 C241.1768,258.0977 241.1768,423.4961 256.1768,423.4961 L266.1768,423.4961 " fill="none" style="stroke:#625D92;stroke-width:1.0;"/><!--SRC=[xLZRSjis47tdLo3EGnBFE1FBbyQUwOmbIdRY-5R9Jjkd34H1CYOKo8AWCcwd7-Jly8zrGH3W1G3fjdbhhR77vXwSWrrSkCSdcS1Sh2bRh76AKfviw8BmdGN5AuxNmOi5ML96qCtqu-Lm-kkNyFhYUefU7WuEnaS34vrDmkkhSIs-Tx2tltzeuiCmd5pTwk3HmG_ZuTW4RoU_t7vfyK_6yjE4M2BXllmOq6GwlPxgs7Xmj3iAW-0L6gleYZ32SOmsc5CyZqc6bWb7KHB3pnJ7H0W2u1VDUVo8jifKjsImFGCPLfaMuKQMCgOIBMAE92L2vLaXN0egpG8p6eQVpgRNTrVZMdmmafyYNY-13AagR0McHXQ1u9XbAUQ4YI3xIXdyYjVeZs24ewyhdkHi4HObQWyCPlTuaNoZR8MMECv8CEGy-QQmZJHLu3HXGWNjGbI86VsTeDsz880rmtaivBChl2Oen36TSrf_hh6rHrw1-Z3n41F44hx6SJ2CHCBRcRQMe0Gb74w50jINMKKxnOCmMQS9WmBtALL0dvf1T2kEiS1pd94-GOFpwMb0jzoG2xh4KMz-1kSjPWdebhjA5hsP5HYVZ0nsIznb97f6_JJC9rJ6kxLEanX6zqcLA9-I2lS8mSdkJKc1l38osgqo9P70R1NtAbL0dvf1z6o_rJFEbW9vDzwgzqoD93Vc3tr21kVJqe2-IuC9diJzLuQ2-I-C8jwjDM62Yjx4IfHFIOMxXJuoGJWSyDwzKG5zSWRHhNW3GdZLgwTXFhKotgtrKqxoNYK5ykaKqMwL88nnbhLbcY05yUu96Qr4NfuMN-hnK0XEvxaWTXm0IRxetP05o2yDqUxyPl0-VSQAQPXFgOntQrtWEObxEns5gWcv4JrI1AwOtkgLA5zIAjptTXHMyLflFz7rQgmlVNjwS0xW3HtH5DiNRdCQTQ3_K1cCOxVDo6yvOH4v0usqMwm9zUw8Eke3mOttfILxGPVmpKWldG5srVnFEBVRw3J9EQDPHdAUeGL1yIkSfZ6DiA092xQtqJ0NzpUb0uE_jz7PqoCdN08X0gyekYpHC3n3kQ0npR2GV0quHXd9CWM3mJMSL9dH5SDnGyVSfdB0FOWXHZS4voY5AIDecC4NYWJC4Yb75wEW6rtdJCy8RqWaeHdX6r0gXs848nM0Y28CFF8kBJA8ugT7DVNmdYwNdAmXIGbSF3r6jISIkuQKO9o2Jo6Ufv1kLOqvb5xQkeMSxTEZuGPgB9fL9PaPrM2Ti4r2fJoCZqXQBej951RSol9dCfz1GaG49t0qIniT12VThZhez5frJzPXixG9RnaixPs_hwlIh7_BIkb_0rWMIlyBeEMUj8ZVCcb6frNIh0wNP9XzraWJkooHvhNTaA7rMI1J0OVrCKMmN8-XTLaTJTcsE9gkwMuCbSVIQ3Q7bT64beind6xheYbjow8Psswb8dHP5CFNjYQ6hkbA39lNYcX6fmNHh0xtKIttgcDlMbR3BFJAlITzra8JkYo5vhJTHEqGEIr4TOGiwr0Te9PhC9nkgw0fROkW6Tlkm11wBO7cT5e1JUjm0ORPq_fhNaVBhrcjRjzmEbjypMYrzfglrTKRDdShhwzrguatg_Cz-tUp6zfzUwNMQDdDv3rzkkPpzEUQqMhD3QUp7w-_3QrMt0gwM9sjjvwetNBhURQxxTgjRBVOrUqhFBToOqrAyQw6Mky3JojTRTP_t4Lh1M__R5RiNxVERIPVrwnn_pVC_x66-IQ63NntUO4sX1SBiVjsy6wm__RmzGmBT9x7wDqXUdTqlBj_lFSUtTs6I8RV1A_FRYvG1fMJIq4pTVl1-3V1ETvWDCrX3wp9CRfE2JiVVz8FvCmfJvWiLd3- -R827ExlZAX0CpbTZZvVweuNHaJ90XhnOr0_tNaFrmrRvL29OqGOl361bpz0RFON]--></g></svg>