<svg xmlns="http://www.w3.org/2000/svg" xmlns:xlink="http://www.w3.org/1999/xlink" contentStyleType="text/css" height="453px" preserveAspectRatio="none" style="width:1014px;height:453px;" version="1.1" viewBox="0 0 1014 453" width="1014px" zoomAndPan="magnify"><defs/><g><rect fill="#957DAD" height="245.0625" style="stroke:#957DAD;stroke-width:1.0;" width="10" x="285.6523" y="111.2656"/><rect fill="#957DAD" height="129.5313" style="stroke:#957DAD;stroke-width:1.0;" width="10" x="613.2949" y="197.6641"/><rect fill="#957DAD" height="29.1328" style="stroke:#957DAD;stroke-width:1.0;" width="10" x="950.186" y="268.9297"/><line style="stroke:#957DAD;stroke-width:0.5;stroke-dasharray:5.0,5.0;" x1="41" x2="41" y1="80.1328" y2="374.3281"/><line style="stroke:#957DAD;stroke-width:0.5;stroke-dasharray:5.0,5.0;" x1="290.3342" x2="290.3342" y1="80.1328" y2="374.3281"/><line style="stroke:#957DAD;stroke-width:0.5;stroke-dasharray:5.0,5.0;" x1="618.0117" x2="618.0117" y1="80.1328" y2="374.3281"/><line style="stroke:#957DAD;stroke-width:0.5;stroke-dasharray:5.0,5.0;" x1="954.3743" x2="954.3743" y1="80.1328" y2="374.3281"/><text fill="#2B2B2B" font-family="Calibri" font-size="13" lengthAdjust="spacing" textLength="66.8662" x="5" y="77.0669">Utilisateur</text><ellipse cx="41.4331" cy="13.5" fill="#EDEDED" rx="8" ry="8" style="stroke:#957DAD;stroke-width:0.5;"/><path d="M41.4331,21.5 L41.4331,48.5 M28.4331,29.5 L54.4331,29.5 M41.4331,48.5 L28.4331,63.5 M41.4331,48.5 L54.4331,63.5 " fill="none" style="stroke:#957DAD;stroke-width:0.5;"/><text fill="#2B2B2B" font-family="Calibri" font-size="13" lengthAdjust="spacing" textLength="66.8662" x="5" y="385.395">Utilisateur</text><ellipse cx="41.4331" cy="396.9609" fill="#EDEDED" rx="8" ry="8" style="stroke:#957DAD;stroke-width:0.5;"/><path d="M41.4331,404.9609 L41.4331,431.9609 M28.4331,412.9609 L54.4331,412.9609 M41.4331,431.9609 L28.4331,446.9609 M41.4331,431.9609 L54.4331,446.9609 " fill="none" style="stroke:#957DAD;stroke-width:0.5;"/><rect fill="#625D92" height="29.1328" rx="2.5" ry="2.5" style="stroke:#957DAD;stroke-width:0.5;" width="86.6362" x="247.3342" y="50"/><text fill="#FFFFFF" font-family="Calibri" font-size="13" lengthAdjust="spacing" textLength="72.6362" x="254.3342" y="69.0669">Application</text><rect fill="#625D92" height="29.1328" rx="2.5" ry="2.5" style="stroke:#957DAD;stroke-width:0.5;" width="86.6362" x="247.3342" y="373.3281"/><text fill="#FFFFFF" font-family="Calibri" font-size="13" lengthAdjust="spacing" textLength="72.6362" x="254.3342" y="392.395">Application</text><rect fill="#625D92" height="29.1328" rx="2.5" ry="2.5" style="stroke:#957DAD;stroke-width:0.5;" width="34.5664" x="601.0117" y="50"/><text fill="#FFFFFF" font-family="Calibri" font-size="13" lengthAdjust="spacing" textLength="20.5664" x="608.0117" y="69.0669">API</text><rect fill="#625D92" height="29.1328" rx="2.5" ry="2.5" style="stroke:#957DAD;stroke-width:0.5;" width="34.5664" x="601.0117" y="373.3281"/><text fill="#FFFFFF" font-family="Calibri" font-size="13" lengthAdjust="spacing" textLength="20.5664" x="608.0117" y="392.395">API</text><text fill="#2B2B2B" font-family="Calibri" font-size="13" lengthAdjust="spacing" textLength="111.6235" x="896.3743" y="77.0669">Base de donn&#233;es</text><path d="M937.186,29 C937.186,19 955.186,19 955.186,19 C955.186,19 973.186,19 973.186,29 L973.186,55 C973.186,65 955.186,65 955.186,65 C955.186,65 937.186,65 937.186,55 L937.186,29 " fill="#EDEDED" style="stroke:#957DAD;stroke-width:1.5;"/><path d="M937.186,29 C937.186,39 955.186,39 955.186,39 C955.186,39 973.186,39 973.186,29 " fill="none" style="stroke:#957DAD;stroke-width:1.5;"/><text fill="#2B2B2B" font-family="Calibri" font-size="13" lengthAdjust="spacing" textLength="111.6235" x="896.3743" y="385.395">Base de donn&#233;es</text><path d="M937.186,398.4609 C937.186,388.4609 955.186,388.4609 955.186,388.4609 C955.186,388.4609 973.186,388.4609 973.186,398.4609 L973.186,424.4609 C973.186,434.4609 955.186,434.4609 955.186,434.4609 C955.186,434.4609 937.186,434.4609 937.186,424.4609 L937.186,398.4609 " fill="#EDEDED" style="stroke:#957DAD;stroke-width:1.5;"/><path d="M937.186,398.4609 C937.186,408.4609 955.186,408.4609 955.186,408.4609 C955.186,408.4609 973.186,408.4609 973.186,398.4609 " fill="none" style="stroke:#957DAD;stroke-width:1.5;"/><rect fill="#957DAD" height="245.0625" style="stroke:#957DAD;stroke-width:1.0;" width="10" x="285.6523" y="111.2656"/><rect fill="#957DAD" height="129.5313" style="stroke:#957DAD;stroke-width:1.0;" width="10" x="613.2949" y="197.6641"/><rect fill="#957DAD" height="29.1328" style="stroke:#957DAD;stroke-width:1.0;" width="10" x="950.186" y="268.9297"/><polygon fill="#625D92" points="273.6523,107.2656,283.6523,111.2656,273.6523,115.2656,277.6523,111.2656" style="stroke:#625D92;stroke-width:1.0;"/><line style="stroke:#625D92;stroke-width:1.0;" x1="41.4331" x2="279.6523" y1="111.2656" y2="111.2656"/><text fill="#2B2B2B" font-family="Calibri" font-size="13" lengthAdjust="spacing" textLength="110.7603" x="48.4331" y="106.1997">Cr&#233;e son compte</text><line style="stroke:#625D92;stroke-width:1.0;" x1="295.6523" x2="337.6523" y1="155.5313" y2="155.5313"/><line style="stroke:#625D92;stroke-width:1.0;" x1="337.6523" x2="337.6523" y1="155.5313" y2="168.5313"/><line style="stroke:#625D92;stroke-width:1.0;" x1="296.6523" x2="337.6523" y1="168.5313" y2="168.5313"/><polygon fill="#625D92" points="306.6523,164.5313,296.6523,168.5313,306.6523,172.5313,302.6523,168.5313" style="stroke:#625D92;stroke-width:1.0;"/><text fill="#2B2B2B" font-family="Calibri" font-size="13" lengthAdjust="spacing" textLength="201.0303" x="302.6523" y="135.3325">g&#233;n&#232;re un ID d'enregistrement</text><text fill="#2B2B2B" font-family="Calibri" font-size="13" lengthAdjust="spacing" textLength="164.106" x="302.6523" y="150.4653">+ paire de cl&#233;s d'identit&#233;</text><polygon fill="#625D92" points="601.2949,193.6641,611.2949,197.6641,601.2949,201.6641,605.2949,197.6641" style="stroke:#625D92;stroke-width:1.0;"/><line style="stroke:#625D92;stroke-width:1.0;" x1="295.6523" x2="607.2949" y1="197.6641" y2="197.6641"/><text fill="#2B2B2B" font-family="Calibri" font-size="13" lengthAdjust="spacing" textLength="125.8105" x="302.6523" y="192.5981">Envoie les donn&#233;es</text><line style="stroke:#625D92;stroke-width:1.0;" x1="623.2949" x2="665.2949" y1="226.7969" y2="226.7969"/><line style="stroke:#625D92;stroke-width:1.0;" x1="665.2949" x2="665.2949" y1="226.7969" y2="239.7969"/><line style="stroke:#625D92;stroke-width:1.0;" x1="624.2949" x2="665.2949" y1="239.7969" y2="239.7969"/><polygon fill="#625D92" points="634.2949,235.7969,624.2949,239.7969,634.2949,243.7969,630.2949,239.7969" style="stroke:#625D92;stroke-width:1.0;"/><text fill="#2B2B2B" font-family="Calibri" font-size="13" lengthAdjust="spacing" textLength="302.8911" x="630.2949" y="221.731">Traite les donn&#233;es (hachage du mot de passe)</text><polygon fill="#625D92" points="938.186,264.9297,948.186,268.9297,938.186,272.9297,942.186,268.9297" style="stroke:#625D92;stroke-width:1.0;"/><line style="stroke:#625D92;stroke-width:1.0;" x1="623.2949" x2="944.186" y1="268.9297" y2="268.9297"/><text fill="#2B2B2B" font-family="Calibri" font-size="13" lengthAdjust="spacing" textLength="125.8105" x="630.2949" y="263.8638">Envoie les donn&#233;es</text><polygon fill="#625D92" points="634.2949,294.0625,624.2949,298.0625,634.2949,302.0625,630.2949,298.0625" style="stroke:#625D92;stroke-width:1.0;"/><line style="stroke:#625D92;stroke-width:1.0;" x1="628.2949" x2="954.186" y1="298.0625" y2="298.0625"/><text fill="#2B2B2B" font-family="Calibri" font-size="13" lengthAdjust="spacing" textLength="171.4375" x="640.2949" y="292.9966">Confirme l'enregistrement</text><polygon fill="#625D92" points="306.6523,323.1953,296.6523,327.1953,306.6523,331.1953,302.6523,327.1953" style="stroke:#625D92;stroke-width:1.0;"/><line style="stroke:#625D92;stroke-width:1.0;" x1="300.6523" x2="617.2949" y1="327.1953" y2="327.1953"/><text fill="#2B2B2B" font-family="Calibri" font-size="13" lengthAdjust="spacing" textLength="293.6426" x="312.6523" y="322.1294">Renvoie jeton d'acc&#232;s et de rafra&#238;chissement</text><polygon fill="#625D92" points="52.4331,352.3281,42.4331,356.3281,52.4331,360.3281,48.4331,356.3281" style="stroke:#625D92;stroke-width:1.0;"/><line style="stroke:#625D92;stroke-width:1.0;" x1="46.4331" x2="289.6523" y1="356.3281" y2="356.3281"/><text fill="#2B2B2B" font-family="Calibri" font-size="13" lengthAdjust="spacing" textLength="220.2192" x="58.4331" y="351.2622">Redirection vers la page d'accueil</text><!--SRC=[ZPVTRjis5CVlzHIiUv4LmowQZmufi06sv7J1CZkp4w051XIqT2npfKcDeb9qGz-dkTbB-CLwAEhRePWOSGBzV-J_dCClyOGi7q0fbW1ve8hH3OUSRAKYdAKxJVOoWU150bicWDokhl-OhZvy39StonLv-URq8heyRTJrF5mkeeu-ZyodqQTXE5_SrUBbnS_Hj1Nlvk_lFWxwFvsPJnyvCZcxE3i_VzD0yzLgkQgrwFJozImCWXCIMJK50OhoGQQnvFYTKGvQ0y8l-d7yGYPLgXCZ3YCmiWsYb7jP6iqcMcfF96a8MwUMUCeXF3UVafbDmz_VhPRtYwYZsrgLUhS4Hh9Lc0HDZOuwq8gAFACAX0xoJqpWltHF_WjcDFwKAbc892nBD6mOh7SqaP-PICcMyXo2gLBoisLxQLhXIWfjnUD2jCIQ_GlazLaGu9ZHWclpR47tG4BAsKQnxlEQxJno6dIRwIySY91gJtamZRLKmqm7Gr11KYMWBD0TPgkEcWUXt6TIO85zJYteSck8SSU8QhgXEVWC6yxbLmFZTbEbsPR6tlmQpbdC2XYtM-2-vBCg6PUD4SSjxdE8dr6_6dCPLVgurvNasDfdLL4k9ojxZ71bUrEoaDF6gECkAuWr5IdtEhMWowqXFDClVSRQif1pugNUDJKpVLFrnMVKS2wl6l1j6a8hoVrRXiNS6qQfZtlDXMRQcrX5kPoiF6vqBJGeNE3UkT62Bhk667UyHIEQUlrgpELMwUDUVnPGU9qivF8frN6N8EGqpuSsVSWYpZbXrDRavLNvOnzFjLPiKsWurX6GHUATa2NajaPrFByrdgVF6B4QSpbL-hZN3Tq0zxxfMAfZz3JXiGBSOhpLgoXNKbRsdOxwg7Y3qq-F7OtTeH-6X-i0J-YOPVHum-s7qGNTYwfXdfXjQ_Yd0173E_J8nitwg7D6TAdVWFREooFR6xR5Nm7UxXfmhEPVSTrIywP89lUQSPPJ3OMQ49eJV4TGGTQMWaocMSPPJ3MJeYH2pipRUP-vlIur_1iarKiQcSpCDzxc4Yd4uH7o4ebcvVkC8Z_zMdL5tf9GeKvoAV06jC_mweFHiGUCgdQho6wRzF0e3jyKa4AGwuWa9o0Kf2pN2lQ6-4lyY3SffieGOdvup971owKv60wFdHunQEnkBXua0s9kOdMyRHGcBuCrz9sYJFTfyiEEnZjSv2GfyBAgZMs6UnYygfj6CvyF5WUXnWMFoorJUE7WW-I21BfjglwRqgp0clmD6akQdD0uFdpB2PGnARfLzF1_l6COsx0pasXRcNASJ7S9bZ4sCu3W3Jqdd69c9b7JSm6CTxkmpRy3]--></g></svg>