<svg xmlns="http://www.w3.org/2000/svg" xmlns:xlink="http://www.w3.org/1999/xlink" contentStyleType="text/css" height="520px" preserveAspectRatio="none" style="width:826px;height:520px;" version="1.1" viewBox="0 0 826 520" width="826px" zoomAndPan="magnify"><defs/><g><rect fill="#957DAD" height="319.7266" style="stroke:#957DAD;stroke-width:1.0;" width="10" x="366.1931" y="111.2656"/><rect fill="#957DAD" height="29.1328" style="stroke:#957DAD;stroke-width:1.0;" width="10" x="649.6008" y="297.3281"/><rect fill="#957DAD" height="29.1328" style="stroke:#957DAD;stroke-width:1.0;" width="10" x="761.2695" y="221.9297"/><rect fill="#353446" height="240.4609" style="stroke:#957DAD;stroke-width:1.5;" width="809.1265" x="10" y="183.5313"/><rect fill="#353446" height="164.9297" style="stroke:none;stroke-width:1.0;" width="809.1265" x="10" y="259.0625"/><rect fill="#353446" height="46.3984" style="stroke:#957DAD;stroke-width:1.5;" width="432.2346" x="20" y="370.5938"/><line style="stroke:#957DAD;stroke-width:0.5;stroke-dasharray:5.0,5.0;" x1="63" x2="63" y1="80.1328" y2="440.9922"/><line style="stroke:#957DAD;stroke-width:0.5;stroke-dasharray:5.0,5.0;" x1="371.1516" x2="371.1516" y1="80.1328" y2="440.9922"/><line style="stroke:#957DAD;stroke-width:0.5;stroke-dasharray:5.0,5.0;" x1="653.7891" x2="653.7891" y1="80.1328" y2="440.9922"/><line style="stroke:#957DAD;stroke-width:0.5;stroke-dasharray:5.0,5.0;" x1="765.4126" x2="765.4126" y1="80.1328" y2="440.9922"/><text fill="#EDEDED" font-family="Calibri" font-size="13" lengthAdjust="spacing" textLength="61.3755" x="30" y="77.0669">Envoyeur</text><ellipse cx="63.6877" cy="13.5" fill="#353446" rx="8" ry="8" style="stroke:#957DAD;stroke-width:0.5;"/><path d="M63.6877,21.5 L63.6877,48.5 M50.6877,29.5 L76.6877,29.5 M63.6877,48.5 L50.6877,63.5 M63.6877,48.5 L76.6877,63.5 " fill="none" style="stroke:#957DAD;stroke-width:0.5;"/><text fill="#EDEDED" font-family="Calibri" font-size="13" lengthAdjust="spacing" textLength="61.3755" x="30" y="452.0591">Envoyeur</text><ellipse cx="63.6877" cy="463.625" fill="#353446" rx="8" ry="8" style="stroke:#957DAD;stroke-width:0.5;"/><path d="M63.6877,471.625 L63.6877,498.625 M50.6877,479.625 L76.6877,479.625 M63.6877,498.625 L50.6877,513.625 M63.6877,498.625 L76.6877,513.625 " fill="none" style="stroke:#957DAD;stroke-width:0.5;"/><rect fill="#625D92" height="29.1328" rx="2.5" ry="2.5" style="stroke:#957DAD;stroke-width:0.5;" width="142.083" x="300.1516" y="50"/><text fill="#FFFFFF" font-family="Calibri" font-size="13" lengthAdjust="spacing" textLength="128.083" x="307.1516" y="69.0669">Serveur WebSocket</text><rect fill="#625D92" height="29.1328" rx="2.5" ry="2.5" style="stroke:#957DAD;stroke-width:0.5;" width="142.083" x="300.1516" y="439.9922"/><text fill="#FFFFFF" font-family="Calibri" font-size="13" lengthAdjust="spacing" textLength="128.083" x="307.1516" y="459.0591">Serveur WebSocket</text><text fill="#EDEDED" font-family="Calibri" font-size="13" lengthAdjust="spacing" textLength="111.6235" x="595.7891" y="77.0669">Base de donn&#233;es</text><path d="M636.6008,29 C636.6008,19 654.6008,19 654.6008,19 C654.6008,19 672.6008,19 672.6008,29 L672.6008,55 C672.6008,65 654.6008,65 654.6008,65 C654.6008,65 636.6008,65 636.6008,55 L636.6008,29 " fill="#353446" style="stroke:#957DAD;stroke-width:1.5;"/><path d="M636.6008,29 C636.6008,39 654.6008,39 654.6008,39 C654.6008,39 672.6008,39 672.6008,29 " fill="none" style="stroke:#957DAD;stroke-width:1.5;"/><text fill="#EDEDED" font-family="Calibri" font-size="13" lengthAdjust="spacing" textLength="111.6235" x="595.7891" y="452.0591">Base de donn&#233;es</text><path d="M636.6008,465.125 C636.6008,455.125 654.6008,455.125 654.6008,455.125 C654.6008,455.125 672.6008,455.125 672.6008,465.125 L672.6008,491.125 C672.6008,501.125 654.6008,501.125 654.6008,501.125 C654.6008,501.125 636.6008,501.125 636.6008,491.125 L636.6008,465.125 " fill="#353446" style="stroke:#957DAD;stroke-width:1.5;"/><path d="M636.6008,465.125 C636.6008,475.125 654.6008,475.125 654.6008,475.125 C654.6008,475.125 672.6008,475.125 672.6008,465.125 " fill="none" style="stroke:#957DAD;stroke-width:1.5;"/><text fill="#EDEDED" font-family="Calibri" font-size="13" lengthAdjust="spacing" textLength="79.7139" x="723.4126" y="77.0669">Destinataire</text><ellipse cx="766.2695" cy="13.5" fill="#353446" rx="8" ry="8" style="stroke:#957DAD;stroke-width:0.5;"/><path d="M766.2695,21.5 L766.2695,48.5 M753.2695,29.5 L779.2695,29.5 M766.2695,48.5 L753.2695,63.5 M766.2695,48.5 L779.2695,63.5 " fill="none" style="stroke:#957DAD;stroke-width:0.5;"/><text fill="#EDEDED" font-family="Calibri" font-size="13" lengthAdjust="spacing" textLength="79.7139" x="723.4126" y="452.0591">Destinataire</text><ellipse cx="766.2695" cy="463.625" fill="#353446" rx="8" ry="8" style="stroke:#957DAD;stroke-width:0.5;"/><path d="M766.2695,471.625 L766.2695,498.625 M753.2695,479.625 L779.2695,479.625 M766.2695,498.625 L753.2695,513.625 M766.2695,498.625 L779.2695,513.625 " fill="none" style="stroke:#957DAD;stroke-width:0.5;"/><rect fill="#957DAD" height="319.7266" style="stroke:#957DAD;stroke-width:1.0;" width="10" x="366.1931" y="111.2656"/><rect fill="#957DAD" height="29.1328" style="stroke:#957DAD;stroke-width:1.0;" width="10" x="649.6008" y="297.3281"/><rect fill="#957DAD" height="29.1328" style="stroke:#957DAD;stroke-width:1.0;" width="10" x="761.2695" y="221.9297"/><polygon fill="#625D92" points="354.1931,107.2656,364.1931,111.2656,354.1931,115.2656,358.1931,111.2656" style="stroke:#625D92;stroke-width:1.0;"/><line style="stroke:#625D92;stroke-width:1.0;" x1="63.6877" x2="360.1931" y1="111.2656" y2="111.2656"/><text fill="#EDEDED" font-family="Calibri" font-size="13" lengthAdjust="spacing" textLength="283.5054" x="70.6877" y="106.1997">Envoi d'un message (protocole WebSocket)</text><line style="stroke:#625D92;stroke-width:1.0;" x1="376.1931" x2="418.1931" y1="155.5313" y2="155.5313"/><line style="stroke:#625D92;stroke-width:1.0;" x1="418.1931" x2="418.1931" y1="155.5313" y2="168.5313"/><line style="stroke:#625D92;stroke-width:1.0;" x1="377.1931" x2="418.1931" y1="168.5313" y2="168.5313"/><polygon fill="#625D92" points="387.1931,164.5313,377.1931,168.5313,387.1931,172.5313,383.1931,168.5313" style="stroke:#625D92;stroke-width:1.0;"/><text fill="#EDEDED" font-family="Calibri" font-size="13" lengthAdjust="spacing" textLength="176.7632" x="383.1931" y="135.3325">V&#233;rification du destinataire</text><text fill="#EDEDED" font-family="Calibri" font-size="13" lengthAdjust="spacing" textLength="200.6367" x="383.1931" y="150.4653">(r&#233;cup&#233;ration de la connexion)</text><path d="M10,183.5313 L74.4429,183.5313 L74.4429,190.6641 L64.4429,200.6641 L10,200.6641 L10,183.5313 " fill="#625D92" style="stroke:#957DAD;stroke-width:1.5;"/><rect fill="none" height="240.4609" style="stroke:#957DAD;stroke-width:1.5;" width="809.1265" x="10" y="183.5313"/><text fill="#FFFFFF" font-family="Calibri" font-size="13" font-weight="bold" lengthAdjust="spacing" textLength="19.4429" x="25" y="196.5981">alt</text><text fill="#EDEDED" font-family="Calibri" font-size="13" font-weight="bold" lengthAdjust="spacing" textLength="166.0103" x="89.4429" y="197.5981">[Destinataire en ligne]</text><polygon fill="#625D92" points="749.2695,217.9297,759.2695,221.9297,749.2695,225.9297,753.2695,221.9297" style="stroke:#625D92;stroke-width:1.0;"/><line style="stroke:#625D92;stroke-width:1.0;" x1="376.1931" x2="755.2695" y1="221.9297" y2="221.9297"/><text fill="#EDEDED" font-family="Calibri" font-size="13" lengthAdjust="spacing" textLength="118.8916" x="383.1931" y="216.8638">Envoi du message</text><polygon fill="#625D92" points="74.6877,247.0625,64.6877,251.0625,74.6877,255.0625,70.6877,251.0625" style="stroke:#625D92;stroke-width:1.0;"/><line style="stroke:#625D92;stroke-width:1.0;" x1="68.6877" x2="365.1931" y1="251.0625" y2="251.0625"/><text fill="#EDEDED" font-family="Calibri" font-size="13" lengthAdjust="spacing" textLength="186.2021" x="80.6877" y="245.9966">Confirmation de la r&#233;ception</text><line style="stroke:#957DAD;stroke-width:1.0;stroke-dasharray:2.0,2.0;" x1="10" x2="819.1265" y1="260.0625" y2="260.0625"/><text fill="#EDEDED" font-family="Calibri" font-size="13" font-weight="bold" lengthAdjust="spacing" textLength="180.2734" x="15" y="272.1294">[Destinataire hors ligne]</text><polygon fill="#625D92" points="637.6008,293.3281,647.6008,297.3281,637.6008,301.3281,641.6008,297.3281" style="stroke:#625D92;stroke-width:1.0;"/><line style="stroke:#625D92;stroke-width:1.0;" x1="376.1931" x2="643.6008" y1="297.3281" y2="297.3281"/><text fill="#EDEDED" font-family="Calibri" font-size="13" lengthAdjust="spacing" textLength="254.4077" x="383.1931" y="292.2622">Requ&#234;te d'enregistrement du message</text><polygon fill="#625D92" points="387.1931,322.4609,377.1931,326.4609,387.1931,330.4609,383.1931,326.4609" style="stroke:#625D92;stroke-width:1.0;"/><line style="stroke:#625D92;stroke-width:1.0;stroke-dasharray:2.0,2.0;" x1="381.1931" x2="653.6008" y1="326.4609" y2="326.4609"/><text fill="#EDEDED" font-family="Calibri" font-size="13" lengthAdjust="spacing" textLength="216.6899" x="393.1931" y="321.395">Confirmation de l'enregistrement</text><polygon fill="#625D92" points="754.2695,351.5938,764.2695,355.5938,754.2695,359.5938,758.2695,355.5938" style="stroke:#625D92;stroke-width:1.0;"/><line style="stroke:#625D92;stroke-width:1.0;" x1="376.1931" x2="760.2695" y1="355.5938" y2="355.5938"/><text fill="#EDEDED" font-family="Calibri" font-size="13" lengthAdjust="spacing" textLength="153.3848" x="383.1931" y="350.5278">Envoi d'une notification</text><path d="M20,370.5938 L84.4429,370.5938 L84.4429,377.7266 L74.4429,387.7266 L20,387.7266 L20,370.5938 " fill="#625D92" style="stroke:#957DAD;stroke-width:1.5;"/><rect fill="none" height="46.3984" style="stroke:#957DAD;stroke-width:1.5;" width="432.2346" x="20" y="370.5938"/><text fill="#FFFFFF" font-family="Calibri" font-size="13" font-weight="bold" lengthAdjust="spacing" textLength="19.4429" x="35" y="383.6606">alt</text><text fill="#EDEDED" font-family="Calibri" font-size="13" font-weight="bold" lengthAdjust="spacing" textLength="143.3428" x="99.4429" y="384.6606">[Notification re&#231;ue]</text><polygon fill="#625D92" points="74.6877,404.9922,64.6877,408.9922,74.6877,412.9922,70.6877,408.9922" style="stroke:#625D92;stroke-width:1.0;"/><line style="stroke:#625D92;stroke-width:1.0;" x1="68.6877" x2="365.1931" y1="408.9922" y2="408.9922"/><text fill="#EDEDED" font-family="Calibri" font-size="13" lengthAdjust="spacing" textLength="151.5313" x="80.6877" y="403.9263">Confirmation de l'envoi</text><!--SRC=[ZPVTRjis5CVl-HICUv7seXVDHuSKs01RShfYcTtPwJw00GKj7Rj4PDAZA7VPiESPijVmY-rGbAWFcsBYs4Zu__lypZaaHUaiXJKNG3ykFlmuNlpsEPhVpHVqnTkBw_ZcWfnLwd8QpMTnIx-ylhowUklqSHHDP_UrU7FzJJoEdNW__VN-So_-D3QlhkK84bsPbpDD5ulvejRYYvitauYGSnfRTGC25CledYdELXdaT2qLJMI6dpkMWTQ0vhDk7j_IKLNgo8Zz38niAotbJfL6iuMMseaYZSFMsJXE4MoPfMSoZdvulvX_ciKj_M9YNgNURe6HR1T6nFNeA81MJEGxfa1eaZzmWN-oBVsRJ5Zoi56o46bKjgZ_HRBymbBvbOiDNRCi1p9MIdwrtawPLhYLGblnk16DOyd_0lhcaX2SCrPasepDs1Pen3A-KhmzNdjRGrv0-slwCGCgfDgoZ8mJBLM_qjuKL2QfKb3Mq9vcgmx2IIItEocmmI5IO_JHd6EO63FDLYo74D3vVBpQC8mRAytNB0dMvtpUPbQ6OTnCfi7AIeyFOyHXnASSacVqhxRvG9K-pBgL6NuxXAfSFfAL0o3SsS6IhCcBCUemPG69PcAJ1KcDqKTpZi3ospnZRrcJT-5jWdjgOc8pzHW2EP-FLHj25msXbSp2bmnhyrymIdsODHMQws1XbSj7il8mw8FGe7231zT6O_JXd6EO-151R1FarJOVhTA7MJyLK0H9rkJZbEemXKGPo_C-fcko5k-QC6e3UN5R_jZXiTQAhmeDnpeQP9465sHfygDH7QvlYUVfCsQijlb8bJxCkcCho89tEjRL0frs1520bvXWzogNhoWhXqv7VTIytkcdXux6zjJtqyDzW2TqmdVi-8BRJQDjz6ygvpcnsfRmHm4YWVV8s0t3kbRlYcYxlWVMEI-Fi7TyZMy1mN3EEDJpVt3VCdEdI4TJiPUFKAWHPJbTudI28hkc4tIq1BL7dVu2gwLC7a2NJlSVIQjxCZgQcCyKVwKGXoV8IsDzorRpOiWr5pZ85PG6F5M1xv5AB9s-_gw9JjzHao2dwNaXw1Ro73SHVRbJKajyLeB6-Se0-9xfrXXfulI2_dnuKdpD4wQv53GjCEqcBVgxUAaEJqcnGrVb09enV3eJ0lx4_rzX-p9DsxLG43JZ6m5TQ5rTKqXHbz4ax5hG-MhLZdSK3yqrnmU4LYOcFTYP0PB2SHp09w1kTb-aoa_bLqyFOXQuWWx_OPZq78I23S-rWYtUY9pCsSshY_2wr-EZj7jXsvcxQ87cuIemJqlQpLqv3xFM05Lm-BU0vxOISyB01FNotKh91VWV]--></g></svg>