<svg xmlns="http://www.w3.org/2000/svg" xmlns:xlink="http://www.w3.org/1999/xlink" contentStyleType="text/css" height="469px" preserveAspectRatio="none" style="width:739px;height:469px;" version="1.1" viewBox="0 0 739 469" width="739px" zoomAndPan="magnify"><defs/><g><!--cluster Missive--><g id="cluster_Missive"><rect fill="#353446" height="456" rx="2.5" ry="2.5" style="stroke:#957DAD;stroke-width:1.0;" width="613.87" x="119.87" y="7"/><text fill="#EDEDED" font-family="Calibri" font-size="13" font-weight="bold" lengthAdjust="spacing" textLength="54.6152" x="399.4974" y="21.0669">Missive</text></g><g id="elem_UC1"><ellipse cx="244.8685" cy="57.0037" fill="#353446" rx="65.6685" ry="15.5337" style="stroke:#957DAD;stroke-width:0.5;"/><text fill="#EDEDED" font-family="Calibri" font-size="13" lengthAdjust="spacing" textLength="87.4771" x="198.2804" y="60.2534">Se Connecter</text></g><g id="elem_UC2"><ellipse cx="244.8719" cy="124.0024" fill="#353446" rx="72.0619" ry="16.8124" style="stroke:#957DAD;stroke-width:0.5;"/><text fill="#EDEDED" font-family="Calibri" font-size="13" lengthAdjust="spacing" textLength="103.5557" x="193.094" y="126.5029">Se D&#233;connecter</text></g><g id="elem_UC3"><ellipse cx="244.8679" cy="192.9976" fill="#353446" rx="75.4379" ry="17.4876" style="stroke:#957DAD;stroke-width:0.5;"/><text fill="#EDEDED" font-family="Calibri" font-size="13" lengthAdjust="spacing" textLength="111.5474" x="189.0942" y="195.4981">Cr&#233;er un Compte</text></g><g id="elem_UC4"><ellipse cx="244.8688" cy="269.0018" fill="#353446" rx="107.3088" ry="23.8618" style="stroke:#957DAD;stroke-width:0.5;"/><text fill="#EDEDED" font-family="Calibri" font-size="13" lengthAdjust="spacing" textLength="182.4126" x="153.6625" y="271.5022">Envoyer un Message Chiffr&#233;</text></g><g id="elem_UC5"><ellipse cx="244.8686" cy="352.0017" fill="#353446" rx="109.0086" ry="24.2017" style="stroke:#957DAD;stroke-width:0.5;"/><text fill="#EDEDED" font-family="Calibri" font-size="13" lengthAdjust="spacing" textLength="186.0562" x="151.8405" y="354.5022">Recevoir un Message Chiffr&#233;</text></g><g id="elem_UC6"><ellipse cx="597.309" cy="268.9958" fill="#353446" rx="120.429" ry="26.4858" style="stroke:#957DAD;stroke-width:0.5;"/><text fill="#EDEDED" font-family="Calibri" font-size="13" lengthAdjust="spacing" textLength="210.3359" x="492.1411" y="271.4963">R&#233;cup&#233;rer le Bundle de Pr&#233;-Cl&#233;s</text></g><g id="elem_UC7"><ellipse cx="597.3065" cy="352.0033" fill="#353446" rx="81.7665" ry="18.7533" style="stroke:#957DAD;stroke-width:0.5;"/><text fill="#EDEDED" font-family="Calibri" font-size="13" lengthAdjust="spacing" textLength="126.1724" x="534.2203" y="354.5038">Stocker le Message</text></g><g id="elem_UC8"><ellipse cx="244.8717" cy="428.9963" fill="#353446" rx="77.4317" ry="17.8863" style="stroke:#957DAD;stroke-width:0.5;"/><text fill="#EDEDED" font-family="Calibri" font-size="13" lengthAdjust="spacing" textLength="116.2002" x="186.7717" y="431.4968">Voir les Messages</text></g><!--entity U--><g id="elem_U"><ellipse cx="39.4331" cy="210.93" fill="#353446" rx="8" ry="8" style="stroke:#957DAD;stroke-width:0.5;"/><path d="M39.4331,218.93 L39.4331,245.93 M26.4331,226.93 L52.4331,226.93 M39.4331,245.93 L26.4331,260.93 M39.4331,245.93 L52.4331,260.93 " fill="none" style="stroke:#957DAD;stroke-width:0.5;"/><text fill="#EDEDED" font-family="Calibri" font-size="13" lengthAdjust="spacing" textLength="66.8662" x="6" y="274.4969">Utilisateur</text></g><!--link U to UC1--><g id="link_U_UC1"><path d="M48.67,202.26 C58.13,167.96 77.04,118.49 111.87,90 C131.34,74.07 151.5577,66.7585 175.4177,62.3985 " fill="none" id="U-to-UC1" style="stroke:#625D92;stroke-width:1.0;"/><polygon fill="#625D92" points="181.32,61.32,171.7476,59.003,176.4014,62.2188,173.1856,66.8726,181.32,61.32" style="stroke:#625D92;stroke-width:1.0;"/></g><!--link U to UC2--><g id="link_U_UC2"><path d="M65.41,202.32 C77.67,186.5 93.71,169.21 111.87,158 C132.61,145.19 152.1672,138.4656 175.1472,133.4656 " fill="none" id="U-to-UC2" style="stroke:#625D92;stroke-width:1.0;"/><polygon fill="#625D92" points="181.01,132.19,171.3653,130.1949,176.1243,133.253,173.0662,138.012,181.01,132.19" style="stroke:#625D92;stroke-width:1.0;"/></g><!--link U to UC3--><g id="link_U_UC3"><path d="M73.11,231.4 C82.68,228.94 93.18,226.31 102.87,224 C130.79,217.36 156.0754,211.7175 181.9854,206.1175 " fill="none" id="U-to-UC3" style="stroke:#625D92;stroke-width:1.0;"/><polygon fill="#625D92" points="187.85,204.85,178.2081,202.8416,182.9628,205.9063,179.8981,210.661,187.85,204.85" style="stroke:#625D92;stroke-width:1.0;"/></g><!--link U to UC4--><g id="link_U_UC4"><path d="M73.12,244.66 C95.02,247.78 119.0698,251.2147 147.8098,255.3047 " fill="none" id="U-to-UC4" style="stroke:#625D92;stroke-width:1.0;"/><polygon fill="#625D92" points="153.75,256.15,145.4033,250.9219,148.7999,255.4455,144.2762,258.8421,153.75,256.15" style="stroke:#625D92;stroke-width:1.0;"/></g><!--link U to UC5--><g id="link_U_UC5"><path d="M72.53,277.78 C83.97,289.41 97.58,301.41 111.87,310 C128.97,320.29 143.1505,326.4757 162.2205,332.6357 " fill="none" id="U-to-UC5" style="stroke:#625D92;stroke-width:1.0;"/><polygon fill="#625D92" points="167.93,334.48,160.5953,327.9072,163.1721,332.9431,158.1362,335.5199,167.93,334.48" style="stroke:#625D92;stroke-width:1.0;"/></g><!--link U to UC8--><g id="link_U_UC8"><path d="M48.31,277.94 C57.58,313.08 76.41,364.27 111.87,394 C129.03,408.4 145.6785,415.5598 167.2085,420.6098 " fill="none" id="U-to-UC8" style="stroke:#625D92;stroke-width:1.0;"/><polygon fill="#625D92" points="173.05,421.98,165.2012,416.0305,168.1821,420.8382,163.3744,423.8191,173.05,421.98" style="stroke:#625D92;stroke-width:1.0;"/></g><!--link UC4 to UC6--><g id="link_UC4_UC6"><path d="M352.44,269 C391.61,269 430.21,269 470.47,269 " fill="none" id="UC4-to-UC6" style="stroke:#625D92;stroke-width:1.0;stroke-dasharray:7.0,7.0;"/><polygon fill="#625D92" points="476.47,269,467.47,265,471.47,269,467.47,273,476.47,269" style="stroke:#625D92;stroke-width:1.0;"/><text fill="#EDEDED" font-family="Calibri" font-size="13" lengthAdjust="spacing" textLength="61.1851" x="384.88" y="265.0669">&#171;extend&#187;</text></g><!--link UC5 to UC7--><g id="link_UC5_UC7"><path d="M354.36,352 C406.32,352 461.49,352 509.32,352 " fill="none" id="UC5-to-UC7" style="stroke:#625D92;stroke-width:1.0;stroke-dasharray:7.0,7.0;"/><polygon fill="#625D92" points="515.32,352,506.32,348,510.32,352,506.32,356,515.32,352" style="stroke:#625D92;stroke-width:1.0;"/><text fill="#EDEDED" font-family="Calibri" font-size="13" lengthAdjust="spacing" textLength="61.1851" x="384.88" y="348.0669">&#171;extend&#187;</text></g><!--SRC=[ZPVTKjiu5CVl_HGYlTWhEaC-e7HOPX8xT3k5f4rWP_UAKPoJeC58gIpJqiu-4C_1Y-sHvUyW2Jo0nl-VzDSv-lJ16ZQC0_cw-7mrNlnx6yulvmloxhW_YaxxmK6XBgVXV1OrzC5eC1mUL_eu3AUpwr8y7Pr4uwWIhwV_NDzssfz6-caZUoRXK3yLD5qivejIY_gdHvCm2FuWaL6tm47IX3nIoUWgWPHiX2InIF3lZYQW521yqEx7dwHNXDhJOhS7MZQHvd8hIgsPG7FjbI0rOUAiYTSSJ9WvCnc7NpujvZUpgA7t9_h9zMOAj6Ioq0kg7Eqre2JbwOvAu2f8xnd78dqWluC9ZU-tKcHy7UOfwbOCbdTqBNumlYKRcgGGZAKKFmpR2jC85u8h8-udeYQMx1UGeq4Gu9ZHB57wtOm-00bfmbQIDT-NREELrQ1PJJqbGBYG3pG9nh4IiXjfPmWAICWrI0CqXzceJlCW50yxmJ71FgSQjBbLXDineegkQ0e-mugp-PM0ssui5TlGs1jVnLcJMG1kkvbOUoFB6PkD5jqMDod4RyXVYTcC2jtjTI4IhEspAYYRav4zHhYolI4Po6gZLRVB0c95-JRnEjMWpQqYFDDl-uQrPI3hnDjwrzH4jqtbay-eucnU9U3RDBYI8l5l6GQpRnYvxlQQSiMKDx22iZaPsMtqcIkGkC2zSwC6RNOLuNRyYaPqw_KhCPjReRkzlcMGUPqCPFF9LRTB42OqJRisRSWWrZcXrThatKN-OrwFbP9ibIdOrn4GsTex8NF8ResgExubdgTl6B4IipaLkjlhaguWyTvq3DKmUftmM05kCTxi5PGjA2FxJaUrbxpEwQTSHsDpwBlTmtM09tJCTdH_msrtemdQ5rN5l3BRbl0z0nx39_JOkStQg7L6DAc_WBREoptRIxR1NmxUvYhGbVF_SDqci5542IBPzawHDPDukZ716xVkdTbbp1LLbeTVGFKLazmebh2KAiWaeIcv2OAA8BqhbgRi4NfuSS_CdOFqbdXj5fmZ1BANLmcFMchqyXntW7uDXFBb6IJ9ED6NJWK5CQY9ANyKJmQvWZJ5dfFmZcqsMB60XpMCPpay2kQYHmqQkvRjNfubDe_nJJ2h-6-Ddw687uR9otDQL3fkXAH4V6yg50u5Sr8pV-ikw8-_WYYR-O1tFd9uU9udgIprgzAWAWshqgWgVT3ZYn9vZrz4_Br-TKm-ahCp-AbmlPwVepXgY2SjyNy0]--></g></svg>