<svg xmlns="http://www.w3.org/2000/svg" data-name="Layer 1" viewBox="10 10 80 80" x="0px" y="0px"><path d="M80.92,52.23A31,31,0,0,0,47.77,19.08,31.26,31.26,0,0,0,19.14,47a30.63,30.63,0,0,0,1.47,12.79,6.1,6.1,0,0,1,.14,3.62h0L19.45,68a10.27,10.27,0,0,0,.92,8,10,10,0,0,0,11.38,4.57l4.55-1.3A6.82,6.82,0,0,1,38.18,79a5.75,5.75,0,0,1,1.88.31A30.77,30.77,0,0,0,53,80.86,31.26,31.26,0,0,0,80.92,52.23ZM50,75a24.47,24.47,0,0,1-8-1.33,12.27,12.27,0,0,0-7.35-.13l-4.55,1.3A4,4,0,0,1,25.53,73a4.27,4.27,0,0,1-.32-3.31l1.31-4.59a12,12,0,0,0-.22-7.19,24.7,24.7,0,0,1-1.19-10.3h0A25.2,25.2,0,0,1,48.19,25.07C48.79,25,49.4,25,50,25a24.65,24.65,0,0,1,14.83,4.84,25,25,0,0,1-12.44,45Q51.18,75,50,75Z" /><circle cx="40" cy="44" r="3" /><circle cx="60" cy="44" r="3" /><path d="M48.8,63.9A7,7,0,0,0,57,57a6.65,6.65,0,0,0-.17-1.48,2,2,0,0,0-2-1.52H45.12a2,2,0,0,0-1.95,1.51h0a6.72,6.72,0,0,0,.07,3.29A7.06,7.06,0,0,0,48.8,63.9Z" /></svg>
